<svg xmlns="http://www.w3.org/2000/svg" xmlns:xlink="http://www.w3.org/1999/xlink" width="137.464" height="137.99" viewBox="0 0 137.464 137.99"><defs><clipPath id="a"><rect width="137.464" height="137.99" fill="#fff"/></clipPath></defs><g clip-path="url(#a)"><path d="M129.391,1.065a9.352,9.352,0,1,0,9.353,9.353,9.364,9.364,0,0,0-9.353-9.353" transform="translate(-60.659 -0.538)" fill="#fff"/><path d="M129.391,241.142a9.352,9.352,0,1,0,9.353,9.353,9.363,9.363,0,0,0-9.353-9.353" transform="translate(-60.659 -121.857)" fill="#fff"/><path d="M66.95,35.537A9.353,9.353,0,1,0,64.693,18.4,9.353,9.353,0,0,0,66.95,35.537" transform="translate(-30.328 -8.668)" fill="#fff"/><path d="M191.826,225.375a9.352,9.352,0,1,0,5.679,4.357,9.3,9.3,0,0,0-5.679-4.357" transform="translate(-90.984 -113.726)" fill="#fff"/><path d="M30.114,62.335a9.352,9.352,0,1,0,3.423,12.776,9.285,9.285,0,0,0-3.423-12.776" transform="translate(-8.129 -30.866)" fill="#fff"/><path d="M238.026,182.374a9.352,9.352,0,1,0,3.423,12.776,9.287,9.287,0,0,0-3.423-12.776" transform="translate(-113.193 -91.525)" fill="#fff"/><path d="M18.7,130.456a9.352,9.352,0,1,0-9.353,9.353,9.363,9.363,0,0,0,9.353-9.353" transform="translate(0 -61.197)" fill="#fff"/><path d="M249.429,121.1a9.352,9.352,0,1,0,9.353,9.353,9.363,9.363,0,0,0-9.353-9.353" transform="translate(-121.318 -61.198)" fill="#fff"/><path d="M20.761,182.377h0A9.353,9.353,0,1,0,33.537,185.8a9.365,9.365,0,0,0-12.775-3.423" transform="translate(-8.129 -91.529)" fill="#fff"/><path d="M230.928,79.467h0a9.353,9.353,0,1,0-5.679-4.359,9.38,9.38,0,0,0,5.679,4.359" transform="translate(-113.193 -30.863)" fill="#fff"/><path d="M74.05,226.308a9.353,9.353,0,1,0-4.688,17.456,9.436,9.436,0,0,0,2.432-.322,9.354,9.354,0,0,0,2.256-17.134" transform="translate(-30.331 -113.725)" fill="#fff"/><path d="M184.736,34.595A9.339,9.339,0,0,0,189.4,35.85h0a9.4,9.4,0,0,0,2.432-.322,9.352,9.352,0,1,0-7.1-.934" transform="translate(-90.99 -8.66)" fill="#fff"/><path d="M252.645,8.013c1.575,0,2.743-.706,2.743-2.445,0-1.494-1.141-2.173-2.716-2.173h-4.563V8.013ZM243.9,0h9.154c3.369,0,6.546,1.521,6.546,5.025,0,3.178-1.956,4.292-2.988,4.482,1.792.489,2.988,1.386,2.988,3.668v2.988a4.081,4.081,0,0,0,1.113,3.016H256.1a3.659,3.659,0,0,1-.735-2.5V14.017c0-1.467-.65-2.608-2.118-2.608h-5.134v7.769H243.9Z" transform="translate(-123.249)" fill="#fff"/><path d="M0,0V19.179H13.881v-3.4H4.347V0Z" transform="translate(0 0)" fill="#fff"/></g></svg>