<svg xmlns="http://www.w3.org/2000/svg" xmlns:xlink="http://www.w3.org/1999/xlink" width="271.312" height="44.501" viewBox="0 0 271.312 44.501"><defs><clipPath id="a"><rect width="271.312" height="44.501" fill="none"/></clipPath></defs><rect width="4.873" height="17.597" transform="translate(65.816 20.684)" fill="#212122"/><rect width="4.873" height="17.597" transform="translate(81.517 20.684)" fill="#212122"/><rect width="30.321" height="4.062" transform="translate(60.7 14.404)" fill="#212122"/><path d="M69.873,12.284h30.321L85.033,2.265Z" transform="translate(-9.156 -0.297)" fill="#212122"/><g transform="translate(0 0)"><g clip-path="url(#a)"><path d="M15.465,33.6c0-8-10.47-6.259-10.47-10.4,0-2.6,2.121-3.318,3.763-3.318a12.372,12.372,0,0,1,4.859,1.025l.443-3.934a17.991,17.991,0,0,0-5.711-.854C4.141,16.122,0,18.071,0,23.406c0,7.9,10.469,6.023,10.469,10.574,0,2.153-2.428,3.08-4.241,3.08A11.522,11.522,0,0,1,.822,35.587L.378,39.9a21.1,21.1,0,0,0,6.123.923c4.824,0,8.964-1.984,8.964-7.219" transform="translate(0 -2.113)" fill="#212122"/><path d="M37.679,16.6H19.206v3.763h6.84V40.473h4.789V20.358h6.844Z" transform="translate(-2.517 -2.175)" fill="#212122"/><path d="M63.075,31.851V16.593H58.287V30.378c0,4.073-1.3,6.741-4.96,6.741s-4.963-2.668-4.963-6.741V16.593H43.576V31.851c0,6.4,3.626,9.033,9.751,9.033s9.749-2.636,9.749-9.033" transform="translate(-5.71 -2.174)" fill="#212122"/><path d="M107.622,28.881c0,8.074,5.371,11.94,13.1,11.94a30.179,30.179,0,0,0,7.731-1.23V26.725h-9.647V30.49h5.063v6.225a12.972,12.972,0,0,1-3.147.343c-5.1,0-8.109-3.661-8.109-8.521,0-4.891,3.081-8.654,8.657-8.654a15.648,15.648,0,0,1,6.157,1.266l.308-4.037a23.587,23.587,0,0,0-7.013-.991c-8.109,0-13.1,4.585-13.1,12.76" transform="translate(-14.103 -2.112)" fill="#212122"/><path d="M153.549,40.473h5.3l-9.373-23.88h-5.406l-9.306,23.88h4.961L141.815,35H151.5Zm-10.367-9.236,3.458-9.855h.068l3.455,9.855Z" transform="translate(-17.66 -2.174)" fill="#212122"/><path d="M176.3,33.015l2.875,7.458h5.336l-3.833-9.34c-.477-1.062-1.23-2.36-2.53-2.464V28.6a5.464,5.464,0,0,0,4.925-5.543c0-6.637-6.123-6.466-11.255-6.466H166.65v23.88h4.789V30.55h1.541c2.018,0,2.636.686,3.319,2.464m-4.859-6.226V20.356h1.574c2.4,0,5.063.24,5.063,3.114,0,2.975-2.7,3.319-5.063,3.319Z" transform="translate(-21.838 -2.174)" fill="#212122"/><path d="M206.8,16.519H188.232V20.3h6.877V40.519h4.813V20.3H206.8Z" transform="translate(-24.666 -2.165)" fill="#212122"/><path d="M290.143,30.249l-.055.016h.071Z" transform="translate(-38.013 -3.964)" fill="#212122"/><path d="M280.9,2.489c.056-.666.273-1.426.254-2.042-.235.472-.362,1.138-.85,1.447-.128.217-.341.2-.452.342l.017.019c-.145.036-.18.144-.344.2-.163.163-.109.487-.361.471-.145-.129.038-.436.072-.6.109-.254.417-.237.615-.4V1.912l.235-.09a.329.329,0,0,0,.074-.129l-.507-.07a.056.056,0,0,1,.036-.019,3.279,3.279,0,0,0-.833-.019c.019.055-.056.055-.072.055-.327.163-.342.615-.4.849a5.484,5.484,0,0,0-.778.308l.019.019c-.2.019-.273.164-.472.18l.019.019-.272.09c.018,0,.036,0,.036.02l-1.067.506.018.019-.272.09.019.017-.2.092.019.017a1.83,1.83,0,0,0-.6.308l.019.018-.219.071.02.019c-.235.128-.561.307-.74.433a4.041,4.041,0,0,1-.978.308l.019.019c-.2-.036-.236.18-.415.2a1.142,1.142,0,0,0-.237.343c-.4.452.019.977-.179,1.429-.019.18.271.073.326.163.433.07.85,0,1.282.07a.053.053,0,0,1-.035.02l.416.019c.145.035.071.124.09.215-.4.163-.723.362-1.1.507a.068.068,0,0,1,.055.019c-.147.054-.272.09-.4.144-.07.128.182.09.129.2.163.055.109.109.272.164-.019,0-.019.018-.038.018.038.07.128.035.2.09a.061.061,0,0,1-.055.019c.055.052.182.017.2.125a1.323,1.323,0,0,0,.92-.018c-.016-.09.093-.055.144-.09l-.017-.017c.125-.074.18-.182.344-.217l-.019-.019c.2-.125.416-.269.634-.4a7.212,7.212,0,0,1,1.192-.273c.2.147.4.362.6.49.272-.019.328.144.6.109a3.008,3.008,0,0,0,1.03-.326l-.016-.019c.2-.055.269-.254.451-.288l-.019-.02c.217-.144.272-.452.525-.468.091.125-.054.269-.128.361-.09.145-.252.288-.378.468a6.819,6.819,0,0,1-.561.4c-.217,0-.308.2-.525.2.019,0,.055,0,.055.017-.164.054-.378.019-.525.109a.4.4,0,0,0-.344.18,11.531,11.531,0,0,0-1.029,1.067,21.551,21.551,0,0,0-2.1,3.112,3.338,3.338,0,0,1-.434.417c-.163.234-.38.413-.544.666a2.648,2.648,0,0,0-.452.868c-.2-.125-.379-.323-.6-.433a.066.066,0,0,1,.036-.019c-.126-.071-.235-.144-.325-.2h.017l-.161-.109.017-.016c-.2-.019-.09-.129-.288-.183a13.857,13.857,0,0,1-1.123-1.374,4.421,4.421,0,0,0-.252-.706.238.238,0,0,1-.145-.2c-.188-.033-.151-.164-.331-.178-.453.229-1.026,0-1.386.449-.09.288-.288.507-.416.831-.289.4-.777.759-1.013,1.176-.254.164-.308.343-.542.507l.02.019c-.219.18-.417.362-.635.542-.416.2-.432.759-.54,1.1.034.272.09.381.143.669a1.484,1.484,0,0,1-.451,1.266,1.561,1.561,0,0,1-.759.273c.034,0,.018.035.018.054a1.643,1.643,0,0,1,.6.07.935.935,0,0,1,.109.308c-.093.272-.093.724-.163,1.031l.09.055a.082.082,0,0,0-.035.055,3.651,3.651,0,0,0,1.083-.019c.038-.09.255-.055.327-.09a4.715,4.715,0,0,1,.577-.217c-.016-.109.238-.09.219-.18.308-.236.253-.743.342-1.066l-1.138-.039c.055-.09-.072-.161,0-.253.254-.09.561-.161.85-.254.036-.215.056-.468.235-.6.109-.234.381-.323.581-.487.2-.073-.056-.273,0-.416a1.1,1.1,0,0,1-.164-.324c-.163-.147-.254-.291-.452-.362-.017-.128.128-.217.182-.346.523-.507,1.067-.92,1.52-1.445a.136.136,0,0,1,.143-.036c.2-.055.145.109.288.162.164.289.453.488.58.722a3.974,3.974,0,0,1,.541,1.013,6.71,6.71,0,0,1,.38,1.32c.038.09.109.144.128.236a3.6,3.6,0,0,0,.83.4c.272-.037.308.2.56.145a5.478,5.478,0,0,1-.016-1.34c.071-.143.124-.343.215-.522.074-.055.109,0,.163.035a3.261,3.261,0,0,0,.073,1.719c-.038.217.11.342.126.541-.289.218-.577.074-.885.074.035-.039.071-.019.109-.019-.328-.036-.6-.144-.924-.2.017,0,.017-.019.036-.019-.542-.017-.94-.452-1.464-.522l.034-.02c-.2-.035-.4-.109-.577,0,.016,0,.056-.018.056.02-.328.09-.416.56-.546.83-.4.507.109.958.129,1.448a5.817,5.817,0,0,1,.143.67c.074.9.09,1.843.217,2.73.071.2.288.324.344.523.163.019.271.182.432.182-.016.016-.016.016-.035.016.073.055.182.019.236.109h-.019c.164.036.234.163.4.2l-.019.02a2.709,2.709,0,0,1,.345.288c.052.144.036.308.126.435a2.263,2.263,0,0,1,.019.92c.125.073.109-.125.2-.144l-.019-.017c.073-.093.2-.038.288-.038a5.561,5.561,0,0,0,.581.561c.053.09.124.182.179.288.073.019.218.054.272-.036.074-.09.144-.18.217-.288.308-.74.777-1.682.269-2.423-.159-.109-.215-.288-.359-.362-.2.471-.416.74-.6,1.211a.663.663,0,0,1-.271-.055,4.2,4.2,0,0,1,.453-1.23.722.722,0,0,1-.4-.071,1.94,1.94,0,0,0-.163-.218,2.669,2.669,0,0,1,.109-1.285c-.037-.035-.144.02-.128-.07l-.65-.074a.577.577,0,0,1,.163-.016h-.416a.13.13,0,0,1,.075.016c-.2-.016-.382.109-.527.02a15.4,15.4,0,0,1-.125-2.045c.414-.144.831.144,1.263.236-.017.017-.035.036-.052.036l.253.074-.037.035c.182.017.236.163.416.18l-.055.054a1.2,1.2,0,0,1,.254.055l-.054.055c.073.019.162.019.217.074l-.036.035c.161,0,.215.163.359.163l-.035.036.2.09-.036.036c.217-.036.179.182.378.162l-.036.055a.526.526,0,0,1,.218.074c-.019,0-.019.016-.035.016a8.519,8.519,0,0,1,.866.452,6.975,6.975,0,0,1,.906.308,1.509,1.509,0,0,0,.7,0c.056-.125.18-.215.235-.323a3.457,3.457,0,0,0,.432-1.827c.037.036.109-.055.147.019a8.616,8.616,0,0,1-.073,2.241c.2.019.2.2.4.2l-.036.038c.055.035.18.035.18.106l.217.093-.019.017.183.074-.055.054a.954.954,0,0,1,.235.054c-.055.017-.016.036-.016.055.071,0,.105.055.18.071l-.036.018c.2.163.434.163.6.324h-.019a2.7,2.7,0,0,1,.6.327h-.016l.254.09-.038.039.256.07-.037.036c.089.018.182.018.235.092h-.018c.054.052.162.052.234.071l-.016.073c.234-.073.254.18.487.161a.067.067,0,0,1-.035.019,5.917,5.917,0,0,0,1.138.4l-.017.038a5.578,5.578,0,0,1,1.464.453c.379-.02.543.16.9.16a.067.067,0,0,0-.018.037c.417.071.8.145,1.193.181,0,.019-.071,0-.036.019.236.07.507.035.744.09l-.019.019c.631-.019,1.157.2,1.791.2-.018,0-.018.017-.037.017l.2.074c.073.561.09,1.067.162,1.608.074.2.129.434.18.616.2.163-.106.2-.016.361-.09-.037-.128-.182-.2-.237a5.972,5.972,0,0,0-.326-.65,5.508,5.508,0,0,1-.308-1.029c-.017-.254-.415-.109-.616-.182a.345.345,0,0,1,.128-.017l-1.066-.073c0-.011.012-.017.029-.019-.271-.071-.594-.055-.844-.109.019-.017.037,0,.056,0a.573.573,0,0,0-.344-.052,7.728,7.728,0,0,0,.939,2.026,10.64,10.64,0,0,1,.779.865c.163-.017.09.163.233.147.145.324.546.506.67.865a6.522,6.522,0,0,1-.109,2.225,24.1,24.1,0,0,1-1.682,2.224c-.235.237-.523.361-.775.6-.4.254-.616.76-.959,1.067a3.031,3.031,0,0,1-1.051.289c-.017.09.109.108.109.179.019.561-.468,1.051-.522,1.609.144.018.27.163.453.109a3.269,3.269,0,0,0,1.264.055c.2-.126.433.018.6-.145a1.545,1.545,0,0,0,.778-.992c-.037-.02-.109-.039-.073-.055-.343,0-.7-.129-1.013-.145a.588.588,0,0,1,.036-.342c.382-.093.9.125,1.2-.128l-.019-.02c.164-.124.254-.323.471-.361l-.018-.017a4.676,4.676,0,0,1,1.047-.253v-.019l.272-.036a1.05,1.05,0,0,0-.143-.814c-.036-.109-.183-.163-.145-.288a9.456,9.456,0,0,1,1.5-1.772c.219-.145.471-.2.651-.308a5.132,5.132,0,0,0,.849-.58c.038-.109.255-.323.147-.506-.072-.453-.162-.92-.217-1.391a.161.161,0,0,1,.18.054c-.016.017-.016.017-.035.017.252.073.432.327.686.415-.016,0-.016.02-.036.02.2.035.288.235.487.288l-.05.054a1.408,1.408,0,0,1,.252.055.066.066,0,0,1-.053.019,6.333,6.333,0,0,0,1.028.414c-.017,0-.017.019-.036,0,.071.109.308.019.344.145.416.47.9.977,1.285,1.483.124.2-.019.342-.075.525a9.055,9.055,0,0,1-1.1,2.244,8.6,8.6,0,0,0-1.176,1.409,1.413,1.413,0,0,1-.344.289l.019.018a5.019,5.019,0,0,1-1.177.469.4.4,0,0,1,.146.326,3.138,3.138,0,0,1-.58,1.177c-.09.09-.071.16.018.215a5.2,5.2,0,0,0,.58.144l-.018.019a6.824,6.824,0,0,0,1.735,0,1.5,1.5,0,0,0,.995-1.121c-.056-.017-.126-.017-.126-.055l-.634-.071.019-.019c-.163-.055-.4,0-.561-.07.071-.129.11-.273.218-.346a10.238,10.238,0,0,1,1.065.019,4.36,4.36,0,0,1,.6-.7,1.434,1.434,0,0,1,.668-.273l-.017-.017.686-.073a.711.711,0,0,0-.163-.779.468.468,0,0,0-.215-.234.4.4,0,0,1-.11-.308c.2-.541.434-1.029.686-1.589.381-.8,1.176-1.265,1.321-2.172-.019-.25.128-.577-.164-.7-.09-.126-.179-.2-.233-.27-.18,0-.109-.163-.273-.163-.18-.2-.36-.47-.523-.651-.253-.435-.544-.74-.759-1.14a.878.878,0,0,1-.273-.234l-.019-.125c.416-.833,1-1.612,1.375-2.407.382-.849.943-2.06.435-3.092.071-.036.145-.036.163-.109h.289c.125.218.215.327.324.525.2.02.109.145.291.164l-.053.035.233.036c.036.054-.053.038,0,.073a.907.907,0,0,1,.273.071c-.019,0-.019.019-.038.019l.272.09c-.019,0-.019.018-.036.018l.2.09c-.019.02-.019.02-.035.02.035.035.18.07.105.124.253.292,0,.76-.125,1.106.235-.272.343-.67.577-.906a2.484,2.484,0,0,0,.074-.633c.055-.019.09.02.128.071.036.182.2.217.254.346a6.514,6.514,0,0,0,.794.055c0,.106.218.07.18.179h.128a1.573,1.573,0,0,0-.054-.58c-.182-.269-.506-.452-.561-.794a2.027,2.027,0,0,1-.326-.325c.073-.054.2-.018.29.036l-.037.035a.628.628,0,0,1,.237.073l-.039.017a.786.786,0,0,0,.58.019c.235-.019.272.18.506.145.071-.036.219-.017.2-.109l.6-.055c.054-.144-.09-.234-.126-.342h.017a4.9,4.9,0,0,0-.507-.2,2.009,2.009,0,0,1-.253-.269,1.081,1.081,0,0,1-.235-.038.165.165,0,0,1,.019-.2,1.218,1.218,0,0,1,.668.036c0,.074.163.055.217.163.342.109.507-.216.724-.253a.07.07,0,0,1-.055-.017c.071-.073.2-.018.288-.073-.07-.074-.054-.234-.2-.218-.054-.109-.252-.054-.361-.109l.037-.036-.236-.07c-.036-.109-.18-.2-.2-.253-.126-.055-.164-.163-.308-.182,0-.036.02-.036-.016-.07.145-.074.324-.02.468-.039.037-.125.217-.07.217-.144a.916.916,0,0,1,.632-.125c.056.09.273.055.4.017l-.019-.017.18-.054c-.036-.109.092-.09.054-.182-.035,0-.109,0-.124-.071l.016-.019a2.082,2.082,0,0,1-.667-.433c-.416-.109-.849.071-1.23-.037-.074-.107-.289-.09-.434-.126,0-.019.017-.019.036-.019a1.269,1.269,0,0,0-.65.128h.016c-.124,0-.235.109-.343.036a.9.9,0,0,1,.417-.361,1.1,1.1,0,0,1,.507-.253l-.019-.017c.4-.109.9.017,1.319-.092l-.016-.017.254-.073-.02-.019a.83.83,0,0,0,.324-.235c.253-.017.472.074.708.055.145-.109.36-.125.432-.289a.813.813,0,0,1,.418-.018c.2.055.2-.144.378-.144,0-.074.09-.09.128-.163-.254-.109-.49-.308-.76-.452-.127-.144-.4-.036-.614-.09,0-.144-.145-.02-.183-.129.217.038.4-.125.6-.125,0-.019.017-.035,0-.055a1.028,1.028,0,0,1,.6-.217c.145.019.453.253.686.163-.016-.109.129-.055.182-.109-.037-.054.071-.108.056-.162a1.548,1.548,0,0,1-.292-.052,2.873,2.873,0,0,0-.254-.2c0-.017-.016-.051,0-.07-.214.035-.161-.163-.359-.163a.022.022,0,0,1,.01-.006,2,2,0,0,0-.626-.065,2.112,2.112,0,0,0-.779-.454c.055-.2.288-.051.453-.071-.019.02-.019.02-.036.02a.878.878,0,0,0,.523.035c.273-.109.472-.308.76-.272.072.144.326.019.38.163a1,1,0,0,0,.74-.128c.019-.071.146-.144.129-.216a1.765,1.765,0,0,1-.634-.2c-.109-.144-.289-.2-.378-.361-.074-.054-.217.019-.236-.109l-1.084-.036a1.16,1.16,0,0,0-.561-.237c0-.016.035-.016.054-.016-.089-.074-.271-.038-.38-.093l.053-.036c-.18-.054-.4-.017-.577-.071.09-.182.363-.182.487-.291a6.164,6.164,0,0,1,.76,0c.163.164.487.039.651.164a7.016,7.016,0,0,0,1.211.019c.09-.074.254-.129.362-.2.054-.093.073-.182.182-.237a.915.915,0,0,0-.147-.83c-.035-.2-.324-.308-.269-.542.325-.054.6.235.9.09,0-.019-.036-.019-.036-.038l.181-.052c-.075-.073.035-.092.055-.128.124-.272-.129-.487-.219-.686-.308-.345-.67-.56-.974-.852-.254.019-.327-.2-.507-.234,0,.018.017.054-.018.073a7.173,7.173,0,0,1,.614.468c.09.218.288.236.325.417.053.127.128.326.019.452-.056-.036-.18-.017-.18-.109a1.5,1.5,0,0,0-.689,0,.563.563,0,0,0-.18.526c-.018.234.269.288.18.542,0,.073-.109.108-.071.143-.127.109-.362.055-.545.038-.035-.128-.234-.074-.361-.109-.036-.036.054-.019,0-.055-.413-.09-.831-.273-1.266-.4l.038-.038a3.206,3.206,0,0,1-.832-.2,6.641,6.641,0,0,0-1.464-.017,1.622,1.622,0,0,0-.742.324,6.831,6.831,0,0,0-1.048,1.519c-.128.019-.072.236-.217.182.07-.291.362-.56.362-.887a.943.943,0,0,0-.163-.6c-.273-.2-.453-.542-.7-.759-.236-.109-.453-.272-.671-.4a.066.066,0,0,1,.036-.019.163.163,0,0,0-.18-.017c-.019.125.18.036.163.162.056,0,.09.037.145.037.253.288.487.487.724.776-.074.054.071.128.035.163a.782.782,0,0,1-.252.779c-.2.2-.453.343-.652.561-.723.868-.308,1.987-.019,2.928a7.186,7.186,0,0,1,.686,2.439c-.106.49.019,1.051-.36,1.468-.182.017-.182.2-.327.2l.036.035c-.109.055-.342,0-.324.125l-.922.019c-.254-.124-.417-.163-.67-.272.019-.016.019-.016.038-.016a11.266,11.266,0,0,1-1.195-.943l.018-.016c-.235-.182-.434-.4-.67-.545l.019-.017-.182-.073.02-.017c-.343-.129-.616-.471-1.013-.561l-.47-.073h.019c-.507-.035-1.051-.253-1.539-.327,0-.005.011-.005.023-.005-.126-.079-.3-.05-.42-.1.018,0,.018-.019.035-.019-.109-.074-.269-.035-.4-.09a.065.065,0,0,1,.055-.019,2.061,2.061,0,0,0-.343-.09c.006,0,.008,0,.014-.005-.269-.043-.329-.212-.629-.212l.019-.017c-.381-.163-.759-.272-1.1-.416l.016-.038c-.071-.036-.18,0-.254-.09l.019-.016c-.182-.02-.308-.183-.451-.183l.035-.035a3.755,3.755,0,0,1-.885-.507l.017-.018-.145-.09.019-.019c-.054-.071-.218-.017-.182-.125h.018c-.181-.09-.289-.2-.451-.272.016-.017,0-.055.016-.071a5.647,5.647,0,0,1-.775-.651.988.988,0,0,1,.235-.868,2.923,2.923,0,0,1,.47-.381l-.019-.016c.292-.039.416-.163.7-.2V14.1l.145-.055c.054-.128-.145-.035-.106-.163a4.827,4.827,0,0,0-.688-.269v-.019l-.235-.109c.017-.055-.09-.09-.072-.144a.313.313,0,0,1,.252-.019,1.978,1.978,0,0,0,.759.237c.344-.093.634-.02.942-.129a1.052,1.052,0,0,0,.706.055c.109-.036-.055-.09-.055-.144-.143-.074-.273-.2-.416-.288l.018-.019c-.235-.164-.524-.109-.759-.164a.016.016,0,0,1,.017-.016c-.089-.074-.235-.038-.344-.092-.018-.071-.233-.18-.324-.216.052-.074-.147-.038-.091-.163.054-.055.163-.036.236-.019a2.622,2.622,0,0,0,.6.163c.163-.109.452-.019.56-.163a13.614,13.614,0,0,0,1.535-.054c.073-.144-.161-.2-.235-.254-.089-.017-.217,0-.271-.071l.019-.019a3.24,3.24,0,0,1-.453-.2.034.034,0,0,1,.025-.022c-.388-.009-.741-.177-1.111-.158a3.2,3.2,0,0,1-.4-.326c.019-.055-.035-.074.038-.09a3.1,3.1,0,0,0,.56-.036l.036-.073a3.394,3.394,0,0,0,.759-.09.95.95,0,0,0-.289-.164c.017-.019.017-.019.017-.036-.269.017-.432-.143-.686-.143-.019-.129-.253-.055-.271-.237.109-.125.416-.055.614-.055,0,.019-.09,0-.018.019a1.31,1.31,0,0,0,.941-.109c.055-.073.235-.036.235-.144.506-.109.958.272,1.429.055-.019,0-.035,0-.035-.02l.161-.07c.037-.074,0-.074,0-.163-.4,0-.815-.436-1.157-.342-.308-.164-.741-.039-1.083-.129,0-.109-.292-.054-.4-.125l.036-.037a.86.86,0,0,1-.471-.254c.344-.055.741.038,1.123-.017.326-.109.631-.163.922-.291.453-.017.85.018,1.32-.036-.038-.109.125-.055.181-.109-.056-.055.109-.055.054-.144a4.477,4.477,0,0,1-.561-.163l.019-.017c-.2-.073-.362-.217-.544-.2l.018-.018a11.831,11.831,0,0,1-1.409.035,3.7,3.7,0,0,1-.834-.452.913.913,0,0,1,.273-.216c.035-.182-.235-.108-.254-.253a10.582,10.582,0,0,0,1.032-.272c0-.09.215-.109.18-.163.326-.109.723.019,1.011-.109a.884.884,0,0,0,.6-.254c.019-.269-.361-.125-.541-.2a2.316,2.316,0,0,0-1.286-.288,2.581,2.581,0,0,1-1.118.074c-.146-.147-.362-.074-.506-.217.035-.09.18-.128.2-.182.323-.161.667-.216.958-.343-.019-.017-.129-.09-.075-.071C286.6,5,286.4,5,286.2,4.913c-.344-.052-.741-.017-1.084-.071l.017-.019-.255-.07c.019-.074.146,0,.183-.074,0,0-.037.019-.037,0a4.317,4.317,0,0,1,.707-.07c.451-.129.811-.472,1.227-.49.253.128.49-.036.744-.036.035-.09.2-.163.18-.288h-.472c-.055-.144-.308-.055-.432-.128,0-.017.019-.017.035-.017-.109-.109-.308,0-.343-.147l-.507-.055a.071.071,0,0,1,.036-.016,14.467,14.467,0,0,0-2.641-.074c0-.09.128-.109.147-.163a5.232,5.232,0,0,1,.9-.305l-.018-.019.254-.074-.056-.035.183-.073a1.142,1.142,0,0,0,.124-.255c-.019-.016-.054,0-.072-.016-.052.036-.052.055-.052.09a3.073,3.073,0,0,0-.69-.109c-.034-.125-.272-.036-.322-.163a13.888,13.888,0,0,0-1.5-.017c.273-.237.689-.253.888-.526a7.388,7.388,0,0,1-1.518-.07.058.058,0,0,1,.053-.019c-.128,0-.271-.073-.4.036-.038.526-.218.958-.271,1.5a.476.476,0,0,1,.163.051c-.038.019,0,.019-.038.038.183-.019.164.162.308.179l.67.616c.217.308.488.614.7.938a8.2,8.2,0,0,1,.743,1.413,9.041,9.041,0,0,1,.161,4.772,32.777,32.777,0,0,1-.814,3.237c-.055.019-.09.074-.144.038.039-.163-.18-.182-.144-.327-.289-.253.019-.651.056-.958a13.014,13.014,0,0,0,.759-5.063c-.035-.144.019-.272-.019-.361a6.809,6.809,0,0,0-.72-2.1,9.971,9.971,0,0,0-.958-1.375,3.618,3.618,0,0,1-.561-.525c-.218-.02-.292-.254-.49-.288.018,0,.018-.02.037-.02-.182-.109-.4-.217-.579-.342.019-.074.128-.036.18-.036.29-.038.236-.362.38-.545m-7.431,3.039c-.035.109.2.073.164.162a.36.36,0,0,1,.089.308c.019.109-.055.144-.109.235a.672.672,0,0,0-.145.093h-.362a.691.691,0,0,0,.219-.273c.035-.109-.089-.218-.128-.362a.451.451,0,0,0-.308-.018c-.017-.106.182-.017.163-.144a1.9,1.9,0,0,1,.416,0m3.814-1.7c-.017,0-.017,0-.035.018a.769.769,0,0,1,.271.181.66.66,0,0,1-.054.58.948.948,0,0,1-.542.017c-.072-.126-.271-.216-.326-.362a.706.706,0,0,0-.361-.071c0-.144.252-.038.236-.162a4.9,4.9,0,0,0,.686-.181l-.036-.018Z" transform="translate(-34.615 -0.058)" fill="#212122"/><path d="M270.577,13.371l.005,0c-.016-.019-.035,0-.035,0l.03,0" transform="translate(-35.452 -1.751)" fill="#212122"/><rect width="0.961" height="44.501" transform="translate(205.616)" fill="#212122"/></g></g></svg>