<?xml version="1.0" encoding="utf-8"?>
<svg version="1.1" id="Ebene_1" xmlns="http://www.w3.org/2000/svg" xmlns:xlink="http://www.w3.org/1999/xlink" x="0px" y="0px"
	 viewBox="0 0 546.9 250" style="enable-background:new 0 0 546.9 250;" xml:space="preserve">
<g>
	<g>
		<g>
			<path d="M372.4,160.8h11.7l-19.9-27.9l18.9-19.7h-12.1l-19.4,20.6v-20.6h-9.9v47.5h9.9v-15.1l5.8-6.3L372.4,160.8z M322.5,160.8
				h9.9v-47.5h-9.9V160.8z M275,143.6c0.6,13.4,10.7,18,20.9,18.1c10.8,0.1,19.7-5.5,19.7-14.5c0-7.8-5.5-11.9-13.7-13.7l-7.9-1.9
				c-4.3-0.9-7.1-2.6-7.1-6c0-3.8,4-5.7,8.3-5.7c5.3,0,9.4,3.4,9.7,8.4h10.6c-0.9-10.2-9.3-15.9-20.3-15.9
				c-10.4,0-18.7,4.6-18.7,13.9c0,6.8,5,11.2,13.5,13.2l7.3,1.8c3.5,0.8,7.8,1.8,7.8,6.4c0,4-4.7,6.3-9.1,6.3
				c-5.6,0-10.3-3.5-10.4-10.4H275z M248.9,161.7c12.9,0,20-7.3,20-19.5v-28.9H259v28.9c0,7.3-3.6,11.7-9.7,11.7h-0.6
				c-6.2,0-9.9-4.4-9.9-11.7v-28.9h-9.9v28.9C228.8,154.4,235.9,161.7,248.9,161.7 M166.7,113.3v47.5h9.7V134
				c0-3.4-0.3-6.9-0.8-11.4l1.1-0.1c0.9,4.6,1.6,6.9,2.7,10.4l9,28h9.1l9.1-28c0.8-2.5,1.8-6.1,2.6-10.4l1.2,0.1
				c-0.5,4.4-0.7,7.6-0.7,11.7v26.6h9.7v-47.5H205l-8.2,24.9c-1.4,3.9-2.4,7.8-3.2,11.7h-0.9c-0.7-3.9-1.7-7.4-3.1-11.7l-8.3-24.9
				H166.7z"/>
		</g>
		<g>
			<path d="M472,89.5V77.1h22.2v-7.6H472V58h24.6v-8H462v47.5h34.9v-8H472z M410.6,50L428,97.5h11.9L457.2,50h-10.4l-8.6,24.5
				c-1.4,3.9-2.9,8.9-3.6,13.2h-1.1c-0.9-4.4-2.4-9.2-3.6-13.1L421.1,50H410.6z M396,97.5h9.9V50H396V97.5z M391.5,50h-40.2v8h15.2
				v39.5h9.9V58h15.1V50z M326.2,78.8l4.6-13.4c0.7-2.4,1.2-4,1.5-6.4h1.1c0.4,2.4,0.9,4,1.7,6.4l4.9,13.4H326.2z M346.4,97.5h10.3
				L339,50h-12.3l-16.9,47.5H320l4.1-11.7h17.9L346.4,97.5z M295.4,97.5h9.9V50h-9.9V97.5z M290.8,50h-40.2v8h15.2v39.5h9.9V58h15.1
				V50z M236.3,97.5h9.9V50h-9.9V97.5z M185.8,50v47.5h9.6V71.9c0-3.4-0.4-6.8-0.8-9.2l1-0.2c1.2,3.1,2.4,5.6,4.8,9.3L217,97.5h10
				V50h-9.6l0.1,26c0,2.6,0.4,5.7,0.9,8.4l-1.1,0.3c-1.7-4.1-3-6.4-5.4-10.3L196.1,50H185.8z M166.7,97.5h9.9V50h-9.9V97.5z"/>
		</g>
	</g>
	<rect x="88.9" y="127.6" width="13.8" height="13.8"/>
	<rect x="88.9" y="108.1" width="13.8" height="13.8"/>
	<rect x="88.9" y="88.7" width="13.8" height="13.8"/>
	<rect x="88.9" y="69.2" width="13.8" height="13.8"/>
	<rect x="88.9" y="49.7" width="13.8" height="13.8"/>
	<rect x="127.8" y="127.6" width="13.8" height="13.8"/>
	<rect x="127.8" y="108.1" width="13.8" height="13.8"/>
	<rect x="127.8" y="88.7" width="13.8" height="13.8"/>
	<rect x="127.8" y="69.2" width="13.8" height="13.8"/>
	<rect x="127.8" y="147.1" width="13.8" height="13.8"/>
	<rect x="50" y="127.6" width="13.8" height="13.8"/>
	<rect x="50" y="108.1" width="13.8" height="13.8"/>
	<rect x="50" y="88.7" width="13.8" height="13.8"/>
	<rect x="50" y="69.2" width="13.8" height="13.8"/>
	<rect x="50" y="147.1" width="13.8" height="13.8"/>
	<rect x="108.4" y="166.5" width="13.8" height="13.8"/>
	<rect x="108.4" y="147.1" width="13.8" height="13.8"/>
	<rect x="108.4" y="127.6" width="13.8" height="13.8"/>
	<rect x="108.4" y="108.2" width="13.8" height="13.8"/>
	<rect x="108.4" y="88.7" width="13.8" height="13.8"/>
	<rect x="108.4" y="186" width="13.8" height="13.8"/>
</g>
</svg>
