<?xml version="1.0" encoding="utf-8"?>
<!-- Generator: Adobe Illustrator 24.1.0, SVG Export Plug-In . SVG Version: 6.00 Build 0)  -->
<svg version="1.2" baseProfile="tiny" id="Ebene_1" xmlns="http://www.w3.org/2000/svg" xmlns:xlink="http://www.w3.org/1999/xlink"
	 x="0px" y="0px" viewBox="0 0 578.6 338.8" xml:space="preserve">
<path fill="#F3A1B4" d="M510.7,177.3l0.2,0.5l0.2-0.5L510.7,177.3z M267.8,241.8l0.6,0.1l-0.2-0.7L267.8,241.8z M324.4,189.4l0.4,0
	l-0.2-0.6L324.4,189.4z M322.7,139.1l0.3,0.6l0.3-0.6L322.7,139.1z M266.8,259.7c-0.1-0.2-0.2-0.4-0.2-0.6c-0.1,0.2-0.4,0.3-0.4,0.5
	c0,0.2,0.1,0.4,0.2,0.6C266.5,260.1,266.7,259.9,266.8,259.7 M328.1,55.6c-0.2,0.1-0.5,0.1-0.5,0.2c0,0.2,0.1,0.5,0.2,0.7
	c0.2-0.1,0.5-0.1,0.5-0.2C328.3,56.1,328.2,55.9,328.1,55.6 M321.7,91.6c-0.1-0.2-0.3-0.4-0.4-0.6c-0.2,0.2-0.5,0.4-0.5,0.5
	c0.1,0.3,0.4,0.5,0.6,0.8C321.6,92.1,321.7,91.8,321.7,91.6 M329.7,78.9c-0.1,0.4-0.2,0.7-0.3,1c0.2-0.1,0.5-0.1,0.5-0.2
	C329.9,79.6,329.8,79.4,329.7,78.9 M321.2,245.2c-0.1,0.2-0.3,0.3-0.4,0.5c0,0.2,0.1,0.4,0.2,0.6c0.1-0.2,0.3-0.3,0.3-0.5
	C321.5,245.6,321.3,245.4,321.2,245.2 M264.6,84.7c-0.1,0.3-0.2,0.5-0.2,0.8c0,0.1,0.4,0.2,0.6,0.2c0.1-0.2,0.2-0.5,0.2-0.7
	C265.1,84.9,264.8,84.8,264.6,84.7 M503.9,191.2l0.3,0.6l0.3-0.7L503.9,191.2z M263.4,131c-0.1-0.2-0.2-0.4-0.3-0.6
	c-0.2,0.2-0.5,0.4-0.4,0.5c0.1,0.3,0.4,0.5,0.6,0.7C263.3,131.4,263.4,131.2,263.4,131 M264,162.6c-0.2-0.2-0.4-0.6-0.5-0.6
	c-0.4,0.2-0.8,0.5-1.3,0.7c0.2,0.2,0.4,0.7,0.5,0.6C263.2,163.2,263.6,162.9,264,162.6 M263.1,178.3c-0.2,0.1-0.4,0.2-0.5,0.4
	c-0.1,0.2,0,0.5,0.1,0.7c0.2-0.2,0.5-0.3,0.7-0.5C263.4,178.8,263.2,178.5,263.1,178.3 M28.9,244.9c-0.2,0.2-0.5,0.4-0.5,0.5
	c0.1,0.4,0.3,0.8,0.4,1.3c0.2-0.2,0.5-0.4,0.5-0.5C29.3,245.8,29,245.4,28.9,244.9 M33.9,196.4l0.3-0.5l-0.4-0.1L33.9,196.4z
	 M333,173.9l0.4-0.5l-0.5-0.1L333,173.9z M35.7,234.8c-0.1,0.2-0.4,0.4-0.4,0.6c0,0.2,0.2,0.5,0.2,0.7c0.1-0.2,0.4-0.4,0.4-0.6
	C36,235.2,35.8,235,35.7,234.8 M332.9,105.2l0.2,0.6l0.2-0.6L332.9,105.2z M332.9,36.1c-0.1,0.2-0.3,0.5-0.2,0.7
	c0,0.1,0.4,0.2,0.6,0.3c0.1-0.2,0.2-0.5,0.3-0.7C333.4,36.3,333.2,36.2,332.9,36.1 M262.6,247c0.1,0.2,0.3,0.4,0.4,0.6
	c0.2-0.1,0.4-0.3,0.5-0.4c-0.2-0.3-0.4-0.6-0.7-0.9C262.8,246.5,262.7,246.7,262.6,247 M271.8,194.5l-0.4-0.1l0.1,0.6L271.8,194.5z
	 M262.9,257.7l0.4-0.5l-0.5-0.1L262.9,257.7z M319.7,125.6l-0.5,0l0.2,0.6L319.7,125.6z M319.3,275.8c-0.1,0.2-0.1,0.4-0.2,0.6
	c0.2-0.1,0.4-0.2,0.7-0.4C319.6,276,319.4,275.9,319.3,275.8 M336.4,233.3c-0.1,0.2-0.2,0.4-0.2,0.6c0,0.1,0.3,0.1,0.4,0.2
	c0.1-0.2,0.2-0.4,0.2-0.6C336.8,233.5,336.6,233.4,336.4,233.3 M51.1,285.9c-0.1,0.5-0.2,0.9-0.3,1.2c0.2-0.1,0.5-0.1,0.5-0.2
	C51.4,286.7,51.3,286.4,51.1,285.9 M271.7,154.2c0.1-0.2,0.2-0.5,0.3-0.7c-0.3,0.2-0.6,0.3-0.9,0.5
	C271.3,154,271.5,154.1,271.7,154.2 M52.9,277.4c0.1-0.2,0.2-0.4,0.2-0.6c0-0.1-0.3-0.2-0.5-0.3c-0.1,0.2-0.2,0.4-0.2,0.7
	C52.3,277.2,52.7,277.3,52.9,277.4 M314.5,52.4c0.1-0.2,0.1-0.5,0.2-0.7c-0.2-0.1-0.4-0.1-0.6-0.2c-0.1,0.2-0.2,0.5-0.1,0.7
	C314,52.3,314.3,52.4,314.5,52.4 M314.5,90.5l-0.2-0.6l-0.2,0.6L314.5,90.5z M271.7,147.7c-0.2,0.1-0.4,0.2-0.5,0.4
	c-0.1,0.2,0,0.5,0.1,0.7c0.3-0.2,0.5-0.3,0.7-0.5C272.1,148.2,271.8,147.9,271.7,147.7 M271.2,143.7l0.6,0l-0.3-0.7L271.2,143.7z
	 M314.2,98.8c0.2-0.1,0.6-0.4,0.6-0.4c-0.1-0.4-0.4-0.7-0.6-1.1c-0.2,0.4-0.4,0.7-0.6,1.1C313.6,98.5,314,98.7,314.2,98.8 M63,166.2
	c-0.1,0.2-0.4,0.3-0.4,0.5c0,0.2,0.1,0.4,0.2,0.6c0.1-0.2,0.4-0.3,0.4-0.5C63.3,166.6,63.1,166.4,63,166.2 M259.7,121.3l-0.2-0.5
	l-0.2,0.5L259.7,121.3z M259.7,167.7c-0.2,0.5-0.3,0.9-0.3,1.2c0.2-0.1,0.5-0.1,0.6-0.2C259.9,168.4,259.8,168.2,259.7,167.7
	 M260.1,172.8l0,0.4l0.5-0.2L260.1,172.8z M66.5,282.3c-0.2,0.2-0.6,0.4-0.5,0.5c0.1,0.5,0.3,0.9,0.4,1.4c0.2-0.2,0.6-0.4,0.5-0.5
	C66.8,283.2,66.6,282.7,66.5,282.3 M259.7,269.9c0.1-0.2,0.2-0.5,0.2-0.7c0-0.1-0.3-0.1-0.5-0.2c-0.1,0.2-0.2,0.4-0.2,0.7
	C259.2,269.8,259.5,269.8,259.7,269.9 M259.3,278.7l0.6,0l-0.3-0.7L259.3,278.7z M257.6,161.6c0.1,0.2,0.1,0.5,0.2,0.7
	c0.2-0.1,0.5-0.1,0.5-0.2c0-0.2-0.1-0.5-0.2-0.7C257.9,161.5,257.8,161.6,257.6,161.6 M76.9,255.6l-0.5,0l0.2,0.7L76.9,255.6z
	 M345.3,88.4c0.1-0.2,0.2-0.4,0.2-0.6c0-0.1-0.3-0.1-0.5-0.2c0,0.2-0.1,0.4-0.1,0.6C344.8,88.2,345.1,88.3,345.3,88.4 M495.7,207.5
	c0.2,0.1,0.5,0.2,0.7,0.2c0-0.3,0.1-0.6,0.1-1c-0.2,0-0.5,0-0.7,0.2C495.6,207,495.7,207.3,495.7,207.5 M79.8,285l0.5,0.1l-0.2-0.7
	L79.8,285z M256.1,87.7c-0.1,0.2-0.1,0.4-0.2,0.6c0.3,0,0.5,0.1,0.8,0.1c0-0.2,0-0.5-0.1-0.6C256.5,87.7,256.3,87.7,256.1,87.7
	 M256.3,257.3l-0.5,0l0.2,0.6L256.3,257.3z M274,267.6c-0.2-0.2-0.4-0.4-0.5-0.6c-0.2,0.5-0.5,0.9-0.6,1.4c0,0.1,0.3,0.4,0.5,0.6
	C273.5,268.5,273.7,268,274,267.6 M254.7,268.4c0.1-0.2,0.1-0.4,0.2-0.7c-0.2,0.1-0.5,0.3-0.7,0.4
	C254.3,268.2,254.5,268.3,254.7,268.4 M254.1,300.1c0.1,0.2,0.1,0.4,0.2,0.6c0.2-0.1,0.4-0.1,0.4-0.2c0-0.2-0.1-0.4-0.1-0.6
	C254.4,300,254.2,300,254.1,300.1 M312.9,262.8l-0.5-0.1l0.2,0.7L312.9,262.8z M253,203.1c0.1-0.2,0.2-0.4,0.2-0.7
	c0-0.1-0.3-0.1-0.5-0.2c-0.1,0.2-0.2,0.4-0.2,0.6C252.5,203,252.8,203,253,203.1 M310.7,59.4l0.3,0.6l0.2-0.6L310.7,59.4z
	 M311.3,126.6c-0.2,0-0.5,0-0.6,0.1c-0.1,0.1-0.1,0.4-0.2,0.7c0.3,0,0.6-0.1,1-0.1C311.4,127,311.3,126.8,311.3,126.6 M97.6,269.4
	c-0.1-0.2-0.2-0.5-0.3-0.7c0,0.5-0.1,0.9-0.1,1.4C97.3,269.8,97.4,269.6,97.6,269.4 M487.1,197.4c-0.1,0.5-0.2,0.7-0.3,1
	c0.2-0.1,0.5-0.1,0.5-0.2C487.3,198,487.2,197.8,487.1,197.4 M252.7,223.5l0.3-0.5l-0.4-0.1L252.7,223.5z M251.2,261.7
	c0.1-0.2,0.1-0.4,0.2-0.7c-0.2,0.1-0.5,0.3-0.7,0.4C250.8,261.5,251,261.6,251.2,261.7 M483.7,202.1c-0.1,0.5-0.2,0.8-0.3,1.1
	c0.2-0.1,0.5-0.1,0.5-0.2C483.9,202.8,483.8,202.5,483.7,202.1 M275.1,234.6c0.1-0.2,0.2-0.4,0.2-0.6c-0.3,0.1-0.5,0.2-0.8,0.4
	C274.7,234.5,274.9,234.6,275.1,234.6 M309,225.1c-0.2,0.1-0.5,0.2-0.5,0.3c-0.1,0.2,0,0.4,0.1,0.6c0.3-0.2,0.6-0.3,0.9-0.5
	C309.3,225.4,309.2,225.3,309,225.1 M309.3,244.5c0.1-0.2,0.1-0.4,0.2-0.6c-0.2,0.1-0.4,0.3-0.7,0.4
	C309,244.3,309.1,244.4,309.3,244.5 M307.6,58.1c0.1-0.2,0.2-0.5,0.2-0.7c-0.3,0.2-0.5,0.3-0.8,0.5C307.2,58,307.4,58,307.6,58.1
	 M111,307.3c-0.2,0.1-0.5,0.1-0.5,0.2c-0.1,0.2-0.1,0.5-0.1,0.7c0.3-0.1,0.6-0.2,0.9-0.3C111.2,307.7,111.1,307.5,111,307.3
	 M113,299.1c-0.1-0.2-0.2-0.5-0.3-0.7c-0.2,0.2-0.4,0.4-0.5,0.6c0,0.2,0.2,0.5,0.3,0.7C112.7,299.4,112.8,299.3,113,299.1
	 M112.5,239.6l0.3-0.6l-0.6-0.1L112.5,239.6z M305.8,87.7l-0.3,0.5l0.4,0.1L305.8,87.7z M112.3,151.6l0.3,0.6l0.2-0.6L112.3,151.6z
	 M306.3,125.4l0.7-0.3l-0.7-0.3L306.3,125.4z M475.4,189l-0.3-0.7l-0.3,0.7L475.4,189z M246.1,140.5c-0.2,0.1-0.6,0.1-0.6,0.2
	c0,0.2,0.1,0.5,0.2,0.7c0.2-0.1,0.5-0.1,0.5-0.2C246.2,141,246.1,140.7,246.1,140.5 M307.2,195.5l0-0.5l-0.6,0.2L307.2,195.5z
	 M119.2,187.8l0.5,0l-0.2-0.6L119.2,187.8z M305.7,292.4c0.2-0.4,0.4-0.8,0.6-1.3c0-0.1-0.3-0.3-0.5-0.5c-0.2,0.4-0.4,0.8-0.5,1.3
	C305.2,292,305.5,292.2,305.7,292.4 M121,266.6c0.2,0,0.5,0,0.6-0.2c0.1-0.2,0.1-0.5,0.1-0.8c-0.3,0.1-0.7,0.2-1,0.2
	C120.8,266.1,120.9,266.3,121,266.6 M242.7,250.6c-0.1,0.4-0.2,0.7-0.3,1c0.2-0.1,0.5-0.1,0.5-0.2
	C242.9,251.2,242.8,251,242.7,250.6 M276.4,245.7l0.4,0.1l-0.2-0.6L276.4,245.7z M124.2,136.4l0.6,0.1l-0.2-0.8L124.2,136.4z
	 M277,149.5c0.2-0.4,0.5-0.8,0.6-1.3c0-0.1-0.3-0.4-0.5-0.5c-0.3,0.3-0.7,0.6-0.8,1C276.1,148.9,276.7,149.3,277,149.5 M370.5,205.2
	c0.2,0,0.4,0,0.5-0.1c0.1-0.2,0.1-0.4,0.1-0.7c-0.3,0.1-0.5,0.1-0.8,0.2C370.4,204.7,370.4,204.9,370.5,205.2 M371.1,185.9
	c-0.2,0.1-0.5,0.1-0.5,0.2c0,0.2,0.1,0.4,0.2,0.6c0.2-0.1,0.4-0.1,0.6-0.2C371.2,186.3,371.1,186.1,371.1,185.9 M127.9,290.5
	c-0.2,0.1-0.5,0.1-0.7,0.3c-0.1,0.1,0.1,0.4,0.1,0.6c0.2-0.1,0.6-0.1,0.7-0.3C128.1,291,127.9,290.7,127.9,290.5 M372.7,180.2
	l-0.6,0l0.3,0.7L372.7,180.2z M129.5,105.3l0.2,0.6l0.3-0.6L129.5,105.3z M239.7,79.6c-0.1-0.2-0.3-0.4-0.4-0.7
	c-0.2,0.2-0.5,0.5-0.5,0.6c0.1,0.3,0.4,0.6,0.7,0.8C239.5,80.1,239.6,79.9,239.7,79.6 M377.3,243.9c0.1,0.2,0.1,0.5,0.2,0.7
	c0.2-0.1,0.5-0.1,0.5-0.2c0-0.2-0.1-0.5-0.2-0.7C377.6,243.8,377.5,243.8,377.3,243.9 M302.7,209.8c-0.1-0.2-0.2-0.5-0.3-0.7
	c-0.1,0.2-0.4,0.4-0.4,0.6c0,0.2,0.2,0.5,0.3,0.7C302.4,210.2,302.6,210,302.7,209.8 M235.4,82.4c-0.1,0.2-0.2,0.4-0.2,0.6
	c0.3,0,0.6,0.1,0.9,0.1c0-0.2,0-0.5-0.1-0.7C235.9,82.4,235.6,82.5,235.4,82.4 M379.6,201.2l-0.3-0.7l-0.2,0.7L379.6,201.2z
	 M302.3,288.1c-0.1,0.2-0.4,0.4-0.4,0.6c0,0.2,0.2,0.4,0.3,0.6c0.1-0.2,0.4-0.4,0.4-0.6C302.6,288.5,302.4,288.3,302.3,288.1
	 M380.9,240.4c-0.2,0.1-0.4,0.2-0.5,0.3c-0.1,0.2,0.1,0.4,0.1,0.7c0.3-0.2,0.5-0.3,0.8-0.5C381.2,240.7,381.1,240.6,380.9,240.4
	 M235.8,98.3l-0.4,0.6l0.5,0.1L235.8,98.3z M235.6,225.4l0.4-0.6l-0.5-0.1L235.6,225.4z M147.4,130.2l0.4,0.3l0.1-0.4L147.4,130.2z
	 M150.9,211.6c-0.1-0.2-0.3-0.5-0.4-0.7c-0.2,0.2-0.6,0.5-0.6,0.5c0.2,0.3,0.5,0.6,0.7,0.9C150.7,212.1,150.8,211.8,150.9,211.6
	 M234.1,105.6l-0.5-0.1l0.2,0.6L234.1,105.6z M155.5,222.1c0.2-0.2,0.5-0.4,0.5-0.5c-0.1-0.4-0.3-0.8-0.5-1.2
	c-0.2,0.2-0.5,0.4-0.5,0.5C155,221.3,155.3,221.7,155.5,222.1 M458.1,197.1l-0.4,0.7l0.6,0.1L458.1,197.1z M300.4,84.7l0.4,0.1
	l-0.1-0.5L300.4,84.7z M156.9,281.7l0.3,0.6l0.2-0.6L156.9,281.7z M300.9,92.1l-0.3-0.7l-0.3,0.7L300.9,92.1z M231.8,205.8
	c0.1,0.2,0.3,0.5,0.5,0.6c0.1,0,0.4-0.2,0.6-0.4c-0.2-0.3-0.5-0.6-0.7-0.9C232,205.3,231.9,205.5,231.8,205.8 M158.6,202.9
	c0.2-0.1,0.4-0.1,0.5-0.2c0.1-0.2,0.1-0.5,0.1-0.7c-0.3,0.1-0.6,0.2-1,0.2C158.5,202.5,158.6,202.7,158.6,202.9 M232.7,213.3
	c-0.2-0.4-0.4-0.9-0.5-1.3c-0.2,0.2-0.6,0.4-0.5,0.5c0.1,0.5,0.3,0.9,0.5,1.3C232.3,213.6,232.5,213.4,232.7,213.3 M230.3,193.7
	c-0.1,0.2-0.2,0.5-0.2,0.7c0.2,0.9,0.6,1,0.9,0.1c0.1-0.2,0-0.5-0.2-0.8C230.8,193.7,230.5,193.7,230.3,193.7 M300.9,264.3
	c-0.2,0.1-0.5,0.1-0.5,0.2c0,0.2,0.1,0.5,0.1,0.7c0.2-0.1,0.5-0.1,0.5-0.2C301.1,264.7,301,264.5,300.9,264.3 M280.7,248.6
	c-0.2-0.2-0.3-0.4-0.5-0.6c-0.2,0.2-0.5,0.5-0.5,0.6c0.1,0.3,0.4,0.5,0.7,0.8C280.5,249.1,280.6,248.8,280.7,248.6 M230.5,243.3
	c-0.1,0.2-0.2,0.5-0.2,0.7c0.3-0.2,0.5-0.3,0.8-0.5C230.9,243.5,230.7,243.4,230.5,243.3 M163.7,218.1c-0.1,0.2-0.1,0.4-0.2,0.7
	c0.3,0,0.6,0,0.9,0.1c-0.1-0.2-0.1-0.5-0.2-0.7C164.1,218.1,163.8,218.1,163.7,218.1 M166,271.1l-0.3-0.7l-0.3,0.7L166,271.1z
	 M392.5,204.7c0.1,0.2,0.2,0.4,0.3,0.6c0.2-0.1,0.5-0.3,0.4-0.3c-0.1-0.3-0.3-0.6-0.5-0.8C392.7,204.3,392.6,204.5,392.5,204.7
	 M165.6,89.5c-0.1,0.2-0.4,0.4-0.4,0.6c0,0.2,0.2,0.5,0.3,0.7c0.1-0.2,0.4-0.4,0.4-0.6C165.9,90,165.7,89.7,165.6,89.5 M228.9,166.1
	c-0.1,0.2-0.4,0.3-0.4,0.5c0,0.2,0.2,0.4,0.2,0.7c0.1-0.2,0.4-0.4,0.4-0.6C229.2,166.6,229,166.3,228.9,166.1 M169.2,198l-0.5-0.1
	l0.2,0.6L169.2,198z M172.2,294.7c-0.1,0.2-0.2,0.4-0.2,0.6c0,0.1,0.3,0.1,0.4,0.2c0.1-0.2,0.2-0.4,0.2-0.6
	C172.7,294.8,172.4,294.8,172.2,294.7 M172.5,113.5c-0.1,0.2-0.4,0.4-0.4,0.6c0,0.2,0.2,0.4,0.3,0.6c0.1-0.2,0.4-0.4,0.4-0.6
	C172.8,113.9,172.6,113.7,172.5,113.5 M172.3,60.1c-0.2,0.1-0.5,0.2-0.5,0.3c-0.1,0.2,0.1,0.4,0.1,0.6c0.3-0.1,0.5-0.3,0.8-0.4
	C172.5,60.4,172.4,60.2,172.3,60.1 M399.9,202.2c-0.1,0.5-0.2,0.8-0.3,1.1c0.2-0.1,0.5-0.1,0.5-0.2
	C400.1,202.8,400,202.6,399.9,202.2 M228.2,152.2c-0.2-0.1-0.4-0.1-0.6-0.2c-0.1,0.2-0.2,0.5-0.2,0.5c0.1,0.1,0.4,0.2,0.6,0.2
	C228.1,152.6,228.1,152.4,228.2,152.2 M451.5,182.2c-0.1-0.2-0.2-0.4-0.3-0.6c-0.1,0.2-0.4,0.4-0.4,0.6c0,0.2,0.2,0.4,0.3,0.6
	C451.2,182.6,451.4,182.4,451.5,182.2 M451,187.6l0.4-0.5l-0.5-0.1L451,187.6z M225.5,213.1c-0.1,0.2-0.4,0.4-0.4,0.6
	c0,0.2,0.2,0.4,0.4,0.7c0.1-0.2,0.4-0.4,0.4-0.6C225.9,213.5,225.6,213.3,225.5,213.1 M175.7,259.6l0.6,0.1l-0.3-0.7L175.7,259.6z
	 M175.9,118l0.3-0.5l-0.4-0.1L175.9,118z M179.4,221.6c-0.1,0.2-0.3,0.3-0.3,0.5c0,0.2,0.2,0.4,0.3,0.5c0.1-0.2,0.3-0.3,0.3-0.5
	C179.7,222,179.5,221.8,179.4,221.6 M222.1,215.5c-0.2,0.1-0.5,0.2-0.6,0.4c-0.1,0.2,0.1,0.5,0.1,0.8c0.3-0.2,0.6-0.3,0.9-0.5
	C222.3,216,222.2,215.8,222.1,215.5 M445.8,192.6l0.2,0.5l0.2-0.5L445.8,192.6z M179.2,131.3l0.4-0.6l-0.5-0.1L179.2,131.3z
	 M179.3,108.3l-0.3,0.5l0.4,0.1L179.3,108.3z M281.7,241.3c0.2-0.1,0.5,0,0.6-0.2c0.1-0.2,0.1-0.5,0.1-0.8c-0.3,0.1-0.7,0.1-1,0.2
	C281.5,240.8,281.6,241,281.7,241.3 M295.6,209.7l-0.2-0.5l-0.2,0.5L295.6,209.7z M220.7,158.5c-0.1-0.2-0.2-0.4-0.3-0.6
	c-0.2,0.2-0.5,0.4-0.4,0.5c0.1,0.3,0.3,0.5,0.5,0.7C220.6,158.9,220.6,158.7,220.7,158.5 M180.8,201.2l0.5,0.1l-0.2-0.6L180.8,201.2
	z M220.5,204.3l-0.4,0l0.2,0.5L220.5,204.3z M218.4,274.2c-0.1,0.3-0.2,0.5-0.2,0.8c0,0.1,0.4,0.2,0.5,0.2c0.1-0.3,0.2-0.5,0.2-0.8
	C218.9,274.4,218.5,274.3,218.4,274.2 M293.6,110.3c-0.1,0.2-0.2,0.5-0.2,0.7c0.3,0,0.6,0,1,0.1c-0.1-0.2-0.1-0.5-0.2-0.7
	C294.1,110.3,293.8,110.4,293.6,110.3 M442.7,163.3c-0.2,0.1-0.4,0.1-0.5,0.2c-0.1,0.2-0.1,0.5-0.2,0.7c0.3-0.1,0.6-0.1,0.9-0.2
	C442.9,163.7,442.8,163.5,442.7,163.3 M292,143.8c0.2,0,0.4,0,0.5-0.1c0.1-0.2,0.1-0.4,0.1-0.6c-0.3,0.1-0.6,0.1-0.9,0.2
	C291.9,143.4,292,143.6,292,143.8 M415.1,189.9c0.2-0.5,0.5-0.9,0.6-1.4c0-0.1-0.4-0.4-0.6-0.6c-0.2,0.5-0.5,0.9-0.6,1.4
	C414.5,189.5,414.9,189.7,415.1,189.9 M182.7,103.4c-0.2,0.1-0.5,0.1-0.5,0.2c0,0.2,0.1,0.5,0.2,0.7c0.2-0.1,0.5-0.1,0.5-0.2
	C182.9,103.9,182.8,103.7,182.7,103.4 M291.8,220.8c-0.1,0.2-0.2,0.4-0.2,0.6c0.3-0.1,0.5-0.2,0.8-0.3
	C292.2,220.9,292,220.8,291.8,220.8 M418.5,183.9c-0.1,0.2-0.2,0.4-0.2,0.7c0,0.1,0.3,0.1,0.5,0.2c0.1-0.2,0.2-0.4,0.2-0.7
	C419,184.1,418.7,184,418.5,183.9 M217,236.3c-0.1,0.5-0.1,0.9-0.2,1.4c0.2-0.2,0.4-0.4,0.4-0.6C217.3,236.8,217.1,236.5,217,236.3
	 M185.8,143.8c0.2-0.1,0.5-0.1,0.6-0.2c0.1-0.2,0.1-0.5,0.2-0.8c-0.3,0.1-0.7,0.2-1,0.2C185.6,143.3,185.7,143.5,185.8,143.8
	 M189,256.2c-0.4,0.2-0.9,0.4-1.3,0.6c0.2,0.2,0.4,0.6,0.5,0.5c0.5-0.1,0.9-0.4,1.3-0.5C189.3,256.5,189.2,256.3,189,256.2
	 M188.3,190.9c-0.1-0.2-0.2-0.4-0.3-0.6c0,0.4-0.1,0.8-0.1,1.2C188,191.2,188.1,191.1,188.3,190.9 M291.3,138.7l0.6,0.4l0.1-0.6
	L291.3,138.7z M291.1,229.6c0.2,0.1,0.4,0.1,0.6,0.2c0.1-0.2,0.2-0.4,0.1-0.5c-0.1-0.1-0.4-0.2-0.5-0.2
	C291.2,229.1,291.2,229.4,291.1,229.6 M191,184.8c-0.2-0.1-0.4-0.2-0.6-0.2c-0.1,0-0.2,0.3-0.2,0.5c0.2,0.1,0.4,0.2,0.6,0.2
	C190.9,185.3,190.9,185,191,184.8 M189.5,157.9l-0.3,0.6l0.5,0.1L189.5,157.9z M439.2,172.8c-0.1,0.4-0.1,0.9-0.2,1.3
	c0.2-0.2,0.4-0.4,0.5-0.6C439.5,173.3,439.3,173.1,439.2,172.8 M288.4,135c0.2-0.1,0.5-0.1,0.5-0.2c0.1-0.2,0.1-0.5,0.2-0.8
	c-0.3,0.1-0.7,0.2-1,0.2C288.3,134.5,288.3,134.7,288.4,135 M193.3,293c-0.1-0.2-0.3-0.4-0.4-0.6c-0.1,0.2-0.4,0.4-0.4,0.6
	c0,0.2,0.2,0.5,0.4,0.7C193,293.4,193.1,293.2,193.3,293 M192.8,136.5l0.6,0.1l-0.3-0.7L192.8,136.5z M288.3,222.7
	c0.1,0.2,0.1,0.4,0.2,0.6c0.2-0.1,0.5-0.1,0.5-0.2c0-0.2-0.1-0.4-0.1-0.6C288.7,222.6,288.5,222.6,288.3,222.7 M437.5,161
	c0.1-0.2,0.2-0.5,0.2-0.7c0-0.1-0.4-0.2-0.5-0.3c-0.1,0.2-0.2,0.5-0.3,0.7C436.9,160.9,437.3,160.9,437.5,161 M286.7,216.9l0.6,0
	l-0.2-0.7L286.7,216.9z M283.4,98.9l0.5,0l-0.2-0.6L283.4,98.9z M285.1,132.2c-0.1,0.2-0.1,0.4-0.2,0.6c0.2-0.1,0.5-0.3,0.7-0.4
	C285.4,132.4,285.3,132.3,285.1,132.2 M435.5,212c0.2,0,0.4,0,0.5-0.1c0.1-0.2,0.1-0.4,0.1-0.7c-0.3,0.1-0.5,0.1-0.8,0.2
	C435.3,211.5,435.4,211.8,435.5,212 M433.8,166.1c-0.1,0.2-0.2,0.4-0.2,0.5c0,0.1,0.3,0.2,0.4,0.2c0.1-0.2,0.2-0.4,0.2-0.5
	C434.2,166.2,433.9,166.1,433.8,166.1 M203.4,136.3c0.1-0.2,0.2-0.4,0.2-0.7c0-0.1-0.3-0.1-0.5-0.2c-0.1,0.2-0.2,0.4-0.2,0.7
	C202.9,136.2,203.2,136.3,203.4,136.3 M207.3,148.8l0,0.5l0.6-0.2L207.3,148.8z M432.8,191c-0.1-0.2-0.3-0.4-0.4-0.6
	c-0.2,0.2-0.5,0.4-0.5,0.5c0.2,0.3,0.4,0.5,0.6,0.8C432.7,191.4,432.7,191.2,432.8,191 M432.2,182.2c0.3-0.4,0.6-0.8,0.8-1.2
	c0-0.1-0.4-0.3-0.6-0.5c-0.3,0.4-0.6,0.8-0.8,1.2C431.6,181.8,432,182.1,432.2,182.2 M206.5,255c-0.2,0.2-0.5,0.4-0.5,0.5
	c0.1,0.4,0.3,0.9,0.4,1.3c0.2-0.2,0.5-0.4,0.5-0.5C206.9,255.8,206.7,255.4,206.5,255 M203.3,223.5c-0.3,0.4-0.6,0.7-0.8,1.1
	c-0.1,0.2,0.1,0.5,0.2,0.8c0.4-0.1,1-0.3,1-0.4C203.7,224.6,203.5,224.1,203.3,223.5 M285.4,176.2c-0.3,0.4-0.7,0.8-0.8,1.2
	c0,0.4,0.3,0.9,0.5,1.4c0.3-0.4,0.7-0.8,0.8-1.3C286,177.2,285.6,176.7,285.4,176.2 M207.2,181.8c0.4,0.6,0.7,0.9,1.1,1.3
	c0.3-0.5,0.7-0.9,0.7-1.4c0-0.5-0.4-1-0.6-1.4C208,180.8,207.6,181.3,207.2,181.8 M208.3,118.3c-0.3,0.4-0.8,0.9-0.8,1.3
	c0,0.4,0.5,0.9,0.7,1.3c0.3-0.4,0.8-0.9,0.8-1.3C209,119.2,208.5,118.7,208.3,118.3 M290.5,234.1c-0.4-0.2-0.8-0.4-1.3-0.5
	c-0.1,0-0.5,0.5-0.5,0.5c0.2,0.4,0.6,0.7,0.8,1C289.9,234.8,290.2,234.5,290.5,234.1 M211,282.6c0.1,0.2,0.2,0.5,0.3,0.7
	c0.2-0.3,0.4-0.6,0.6-1c0-0.1-0.3-0.3-0.5-0.4C211.3,282.1,211.2,282.4,211,282.6 M211.8,129.6c-0.2,0.4-0.5,0.8-0.6,1.3
	c-0.1,0.2,0.1,0.5,0.2,0.7c0.3-0.2,0.9-0.4,0.9-0.6C212.3,130.5,212,130,211.8,129.6 M422.4,191.4c-0.4,0.2-1,0.4-1.1,0.8
	c-0.1,0.4,0.2,0.9,0.3,1.4c0.5-0.3,1.1-0.6,1.5-1.1C423.2,192.5,422.7,191.8,422.4,191.4 M214.9,141.4v1.4c0.2,0,0.4,0,0.4,0
	c0-0.5,0-0.9,0-1.4H214.9z M180.9,262.4c0.2-0.2,0.4-0.3,0.4-0.5c0.1-0.2,0-0.5,0-0.8c-0.2,0.2-0.6,0.3-0.7,0.5
	C180.5,261.8,180.8,262.1,180.9,262.4 M295.9,148.9c-0.1-0.2-0.2-0.4-0.3-0.7c-0.2,0.2-0.5,0.4-0.5,0.5c0.1,0.3,0.4,0.6,0.6,0.8
	C295.8,149.4,295.8,149.1,295.9,148.9 M446.5,231.4c-0.3,0-0.5,0-0.8,0v2.6c0.2,0,0.4,0,0.6,0C446.4,233.2,446.4,232.3,446.5,231.4
	 M223.4,153.1c-0.1,0.9-0.3,1.6-0.3,2.3c0,0.2,0.3,0.4,0.5,0.5c0.3-0.6,0.6-1.2,0.8-1.8C224.4,153.9,223.9,153.6,223.4,153.1
	 M225.1,168.4c-0.1,1-0.2,1.7-0.2,2.4c0,0.2,0.4,0.4,0.6,0.5c0.3-0.6,0.7-1.2,0.8-1.8C226.3,169.3,225.6,168.9,225.1,168.4
	 M280.6,164.8c-0.2-0.4-0.4-0.8-0.5-1.2c-0.1,0.2-0.4,0.5-0.4,0.7c0.1,0.4,0.3,0.8,0.5,1.2C280.3,165.2,280.4,165,280.6,164.8
	 M280.1,199.1l0.6,0l-0.1-0.5L280.1,199.1z M227.8,75.6c0.3,0.4,0.6,0.7,0.9,1c0.1-0.2,0.4-0.5,0.4-0.6c-0.2-0.3-0.5-0.6-0.8-0.8
	C228.2,75.1,227.9,75.4,227.8,75.6 M299.6,222.6c-0.2-0.5-0.3-1-0.5-1.5c-0.2,0.2-0.5,0.4-0.6,0.6c0,0.5,0.1,1.1,0.2,1.6
	C299,223.1,299.3,222.9,299.6,222.6 M299.8,214.3c-0.3-0.5-0.5-0.9-0.8-1.4c-0.4,0.4-1.1,0.8-1,1c0.1,0.6,0.6,1.1,1,1.7
	C299.3,215.2,299.5,214.7,299.8,214.3 M167.5,124.5h-0.7c0,0.5,0,1,0.1,1.4c0,0,0.4,0,0.6,0V124.5z M298.3,108
	c0.1,0.2,0.2,0.4,0.4,0.6c0.2-0.3,0.5-0.6,0.6-1c0-0.1-0.2-0.4-0.3-0.6C298.7,107.4,298.5,107.7,298.3,108 M166.1,200.9
	c-0.1,0.2-0.4,0.3-0.3,0.5c0,0.2,0.2,0.4,0.3,0.6c0.2-0.2,0.4-0.5,0.6-0.7C166.5,201.2,166.3,201,166.1,200.9 M228.3,105.3
	c0.1,0.2,0.3,0.4,0.4,0.7c0.3-0.3,0.7-0.7,0.7-1c0-0.3-0.4-0.7-0.7-1.1C228.6,104.4,228.5,104.9,228.3,105.3 M162.7,130.9
	c-0.2-0.4-0.3-0.8-0.5-1.2c-0.2,0.2-0.4,0.3-0.4,0.5c0,0.5,0.1,0.9,0.2,1.4C162.2,131.3,162.4,131.1,162.7,130.9 M389.7,180.1
	l-0.1,0.6l0.5-0.3L389.7,180.1z M235.7,150.6c-0.4,0.3-1,0.5-1.2,0.9c-0.2,0.3,0.1,0.9,0.1,1.4c0.5-0.3,1.2-0.5,1.5-0.9
	C236.3,151.7,235.9,151,235.7,150.6 M300.5,47c0.1,0.1,0.3,0.2,0.5,0.3c0.1-0.2,0.4-0.6,0.3-0.7c-0.2-0.2-0.5-0.3-0.8-0.4V47z
	 M378.1,181c-0.1-0.2-0.3-0.5-0.4-0.7c-0.2,0.5-0.4,0.9-0.5,1.4c0,0.2,0.2,0.5,0.4,0.7C377.7,181.9,377.9,181.5,378.1,181
	 M238.8,213.6c-0.3,0.5-0.6,0.9-0.9,1.3c0.4,0.1,0.7,0.3,1.1,0.4c0.1,0,0.4-0.5,0.3-0.6C239.3,214.3,239,214,238.8,213.6 M302,102.2
	c0.1,0.2,0.3,0.4,0.4,0.6c0.5-0.5,1.1-1.1,1.6-1.6c-0.5-0.1-1-0.4-1.4-0.3C302.3,101.1,302.2,101.8,302,102.2 M304.9,221.1
	c-0.2,0-0.6-0.1-0.7,0c-0.1,0.4-0.2,0.9-0.3,1.3c0.2,0,0.5,0,0.6,0C304.7,222,304.8,221.5,304.9,221.1 M131.4,249.4
	c-0.2,0.1-0.5,0.3-0.5,0.5c0,0.5,0.2,0.9,0.4,1.4c0.2-0.2,0.5-0.4,0.5-0.5C131.7,250.2,131.5,249.8,131.4,249.4 M122.6,114.9
	l0.4-0.1l-0.2-0.6L122.6,114.9z M118.4,260.2c0.3,0.4,0.5,0.8,0.8,1.2c0.3-0.4,0.7-0.8,0.7-1.2c0-0.4-0.5-0.8-0.8-1.2
	C119,259.4,118.7,259.8,118.4,260.2 M120.5,280.7c-0.2,0.5-0.4,0.9-0.6,1.4c0.4,0.1,0.9,0.2,1.3,0.1c0.1,0,0.3-0.5,0.3-0.7
	C121.2,281.2,120.8,281,120.5,280.7 M306.7,272c0.1,0.2,0.2,0.5,0.3,0.7c0.3-0.2,0.6-0.5,0.9-0.7c-0.3-0.2-0.5-0.5-0.8-0.7
	C307,271.6,306.8,271.8,306.7,272 M356.6,227.1c0.4,0.2,0.7,0.4,1.1,0.6c0.2-0.5,0.6-1,0.5-1.4c-0.1-0.3-0.8-0.5-1.2-0.7
	C356.9,226.1,356.8,226.6,356.6,227.1 M309.4,234.9c-0.2,0-0.5,0-0.5,0.1c-0.1,0.5-0.2,1-0.3,1.4c0.3,0,0.7-0.1,1-0.1
	C309.6,235.8,309.5,235.4,309.4,234.9 M101,264.3c-0.4,0.3-0.8,0.5-1,0.9c-0.1,0.2,0,0.8,0.1,0.8c0.4,0,0.8-0.1,1.2-0.1
	C101.2,265.3,101.1,264.8,101,264.3 M310.1,164.9c0.2,0.4,0.5,0.7,0.7,1.1c0.1-0.1,0.4-0.4,0.4-0.4c-0.1-0.4-0.4-0.7-0.6-1.1
	C310.4,164.6,310.3,164.7,310.1,164.9 M252,274.7c0.2,0.5,0.4,0.9,0.6,1.4c0.2-0.4,0.6-0.8,0.6-1.2c0-0.3-0.6-0.6-0.9-0.9
	C252.3,274.3,252.2,274.5,252,274.7 M273.7,110.3c0.2,0.1,0.4,0.4,0.6,0.4c0.2,0,0.5-0.2,0.7-0.3c-0.3-0.3-0.6-0.5-0.9-0.8
	C273.9,109.9,273.8,110.1,273.7,110.3 M494.1,173.7c-0.2,0.1-0.6,0.2-0.5,0.3c0.1,0.5,0.2,1,0.3,1.5c0.2-0.1,0.6-0.2,0.6-0.3
	C494.4,174.7,494.2,174.2,494.1,173.7 M256.3,188.6c-0.4-0.2-0.9-0.3-1.3-0.5c-0.1,0.4-0.2,0.8-0.1,1.2c0,0.1,0.6,0.4,0.6,0.3
	C255.8,189.3,256.1,188.9,256.3,188.6 M312.4,109.3c-0.1,0.5-0.2,1-0.3,1.5c0.3,0,0.7,0,1,0c-0.1-0.5-0.1-1-0.2-1.5
	C312.9,109.2,312.6,109.3,312.4,109.3 M80.1,186.2l-0.3-0.5l-0.3,0.6L80.1,186.2z M261.8,203.8c-0.2,0.4-0.5,0.8-0.7,1.2
	c0,0.2,0.4,0.7,0.4,0.6c0.4-0.2,0.8-0.4,1.3-0.6C262.5,204.6,262.2,204.2,261.8,203.8 M56.1,284.1c0,0.4,0,0.9-0.1,1.3
	c0.2,0,0.5,0,0.5,0c0.1-0.4,0.1-0.9,0.1-1.3H56.1z M50.7,193.2c0.2,0.4,0.4,0.8,0.6,1.2c0.2-0.1,0.6-0.2,0.6-0.4
	c0-0.4-0.1-0.9-0.1-1.3C51.4,192.9,51,193,50.7,193.2 M319,114.8c0.2,0,0.4,0,0.5,0c0.1-0.7,0.3-1.4,0.4-2.1c-0.4,0-0.7-0.1-1.1-0.1
	C318.9,113.4,319,114.1,319,114.8 M269.5,254c0,0.5,0,1,0,1.5c0,0,0.4,0,0.6,0c0-0.5,0-1,0-1.5H269.5z M263.7,118.9
	c-0.2-0.5-0.4-0.9-0.6-1.4c-0.2,0.2-0.6,0.3-0.6,0.5c0,0.5,0.1,1,0.2,1.5C263,119.3,263.4,119.1,263.7,118.9 M332.5,118.4
	c0.2,0,0.4,0,0.6-0.1c-0.1-0.3-0.2-0.6-0.3-0.9c-0.2,0.1-0.4,0.2-0.5,0.4C332.3,118,332.4,118.2,332.5,118.4 M331.3,92.3
	c-0.1-0.2-0.1-0.4-0.2-0.6c-0.2,0.1-0.5,0.1-0.6,0.3c-0.1,0.1,0.1,0.4,0.2,0.6C330.9,92.5,331.1,92.4,331.3,92.3 M326.7,75.3
	c-0.2,0.4-0.4,0.8-0.6,1.2c0.2,0.1,0.6,0.3,0.6,0.2c0.3-0.3,0.5-0.7,0.7-1.1C327.2,75.5,326.9,75.4,326.7,75.3 M323.6,80.8
	c0.3,0.4,0.6,0.8,0.9,1.2c0.2-0.2,0.5-0.4,0.5-0.5c-0.2-0.4-0.5-0.8-0.8-1.1C324.1,80.4,323.8,80.6,323.6,80.8 M268.7,173.2
	c-0.3,0-0.6,0-0.8,0v2.8c0.2,0,0.5,0,0.7,0C268.6,175.1,268.6,174.1,268.7,173.2 M270.6,278.1c-0.4-0.3-0.8-0.6-1.2-0.9
	c-0.2,0.7-0.5,1.4-0.6,2.2c0,0.7,0.2,1.3,0.3,2c0.6-0.3,1.5-0.6,1.7-1.1C271,279.6,270.7,278.8,270.6,278.1 M326.4,93.1
	c-0.6,0.6-1.1,1.1-1.4,1.6c-0.2,0.4-0.2,1.1,0.1,1.4c0.2,0.3,1.1,0.4,1.3,0.2c0.3-0.3,0.4-1,0.5-1.5
	C326.8,94.5,326.6,93.9,326.4,93.1 M326.9,233.7c0.3-0.4,0.6-0.8,0.9-1.1c-0.2-0.1-0.6-0.3-0.7-0.2c-0.3,0.3-0.6,0.7-0.9,1.1
	C326.5,233.5,326.7,233.6,326.9,233.7 M327.7,223.1c-0.6,0.6-1,0.9-1.3,1.2c0.6,0.5,1.1,1,1.7,1.5c0.2-0.2,0.5-0.5,0.4-0.7
	C328.3,224.5,328,223.8,327.7,223.1 M330,187.9c-0.5,0.2-1.2,0.4-1.3,0.8c-0.1,0.4,0.3,1,0.5,1.5c0.6-0.4,1.2-0.7,1.7-1.1
	C330.6,188.6,330.3,188.2,330,187.9 M263.2,267.1c0.1-0.9,0.2-1.6,0.1-2.3c0-0.1-0.7-0.2-1.1-0.3c-0.1,0.5-0.4,1-0.3,1.4
	C262.1,266.4,262.7,266.7,263.2,267.1 M259.5,178.3c-0.2-0.1-0.4-0.2-0.6-0.3c0,0.3,0,0.7,0.2,1c0.1,0.2,0.3,0.3,0.5,0.4
	C259.5,179.1,259.5,178.7,259.5,178.3 M488.2,210c0.7-0.8,1.3-1.2,1.4-1.6c0.3-1.2-1.1-2.9-2.2-2.7c-0.4,0.1-1,0.8-0.9,1
	C487,207.8,487.6,208.8,488.2,210 M276.2,202.1c-0.6,0.7-1.1,1.2-1.4,1.8c-0.1,0.1,0.5,0.6,0.8,0.9c0.4-0.4,0.9-0.7,1.1-1.1
	C276.7,203.4,276.4,202.9,276.2,202.1 M276.5,137.3c-0.9,0.5-1.7,0.9-1.6,0.9c0.3,0.7,0.6,1.4,1.1,2c0.1,0.2,0.8-0.1,1.2-0.2
	C277,139.2,276.8,138.3,276.5,137.3 M476.1,181.2c0,1-0.1,1.7-0.1,2.4c0,0.1,1.1,0.2,1.1,0.1c0.2-0.5,0.3-1.1,0.2-1.5
	C477.2,181.9,476.7,181.7,476.1,181.2 M248.9,291.7c0,2.3,0,3.1,0,3.9c0,0.2,0.3,0.4,0.5,0.6c0.3-0.3,1-0.7,0.9-0.9
	C250.2,294.5,249.8,293.8,248.9,291.7 M334.9,147.6c-0.6,0.6-1.1,0.9-1.3,1.4c-0.2,0.6-0.1,1.3-0.1,2c0.6-0.4,1.4-0.6,1.6-1.1
	C335.3,149.3,335,148.5,334.9,147.6 M47.6,285.7c-0.4,0.5-0.7,0.6-0.8,0.8c-0.4,1.3-0.9,2.6,0.5,3.6c0.2,0.1,0.5,0.2,0.7,0.1
	c1.5-1,0.8-2.3,0.4-3.5C48.3,286.5,48.1,286.3,47.6,285.7 M336.2,83.3c0.3,0,0.6,0,0.8,0c-0.1-1.1-0.2-2.1-0.2-3.2
	c-0.2,0-0.5,0-0.8,0C336.1,81.2,336.2,82.2,336.2,83.3 M462.5,187.3c0.3,0,0.7,0,1,0.1c0.1-1,0.1-1.9,0.2-2.9c-0.3,0-0.6,0-0.9-0.1
	C462.6,185.4,462.6,186.3,462.5,187.3 M233.4,248.5c0.2,0,0.5,0,0.7,0v-2.8c-0.2,0-0.4,0-0.6,0C233.5,246.7,233.5,247.6,233.4,248.5
	 M340.2,234.7c0.4,0.2,0.9,0.6,1.1,0.5c0.3-0.2,0.6-0.7,0.6-1.2c0-0.1-0.8-0.6-0.9-0.5C340.6,233.9,340.4,234.3,340.2,234.7
	 M340.7,21.6c-0.3-0.7-0.5-1.1-0.7-1.6c-0.2,0.5-0.6,0.9-0.7,1.4c-0.1,0.5,0.2,1,0.3,1.6C340,22.5,340.4,22,340.7,21.6 M456.6,211.8
	c-0.3,0.1-0.6,0.1-1,0.2c0.1,0.8,0.1,1.6,0.2,2.4c0.2,0,0.4,0,0.6,0C456.5,213.5,456.5,212.6,456.6,211.8 M315.5,224.7
	c-0.6,0.6-1.3,0.9-1.2,1.2c0.1,0.4,0.5,0.9,0.9,1.2c0.2,0.1,0.7-0.2,1.1-0.3C316.1,226.1,315.8,225.5,315.5,224.7 M452,201.6
	c-0.6,0.7-1.2,1.2-1.4,1.8c-0.1,0.3,0.3,0.9,0.4,1.4c0.5-0.5,1.1-1,1.4-1.7C452.5,202.9,452.2,202.3,452,201.6 M281.4,132.5
	c-0.6,0.7-1.2,1.1-1.6,1.8c-0.2,0.3,0.3,0.9,0.4,1.4c0.5-0.5,1.2-1,1.6-1.6C282,133.8,281.6,133.2,281.4,132.5 M446.5,207.7
	c-0.4,0.6-0.8,1.2-1.1,1.8c0,0.1,0.5,0.6,0.5,0.6c0.6-0.4,1.3-0.9,1.9-1.4C447.4,208.4,447.1,208.1,446.5,207.7 M217.4,124.8
	c-0.1,0.4-0.2,0.8-0.3,1.2c0.2,0,0.6,0,0.7-0.2c0.2-0.4,0.3-0.8,0.4-1.2C217.9,124.7,217.7,124.7,217.4,124.8 M348.4,81.4
	c0,0.2,0,0.4,0.1,0.7c0.1-0.1,0.1-0.3,0.1-0.4c0-0.2,0-0.4-0.1-0.7C348.5,81.1,348.4,81.2,348.4,81.4 M435.1,196.7
	c0.4,0.6,0.8,1.4,0.9,1.4c0.8-0.3,1.4-0.8,2.2-1.2c-0.3-0.4-0.7-1.3-0.8-1.2C436.5,195.9,435.8,196.3,435.1,196.7 M351.7,227.9
	c0,0.3,0,0.6,0.1,0.8c0.2-0.3,0.4-0.5,0.4-0.8c0-0.2-0.2-0.5-0.3-0.7C351.9,227.4,351.8,227.7,351.7,227.9 M207.9,136.2
	c0.3-0.1,0.6-0.2,0.9-0.3c-0.2-0.9-0.4-1.8-0.7-2.6c0-0.1-0.9,0.2-1.4,0.3C207.2,134.5,207.6,135.4,207.9,136.2 M208.5,220.1
	c-0.6,0.5-1.2,0.7-1.3,1c-0.1,0.4,0.1,1,0.4,1.4c0.1,0.1,1.1-0.1,1.1-0.3C208.7,221.6,208.5,220.9,208.5,220.1 M285,226.4
	c0.1,0.2,0.2,0.4,0.3,0.7c0.2-0.3,0.5-0.7,0.6-1.1c0-0.2-0.2-0.4-0.4-0.6C285.4,225.7,285.2,226,285,226.4 M205.6,181.9
	c-0.1-0.2-0.3-0.4-0.4-0.7c-0.2,0.4-0.4,0.9-0.5,1.3c0,0.2,0.2,0.5,0.3,0.7C205.2,182.8,205.4,182.4,205.6,181.9 M200,155.2
	c-0.3,0.4-0.7,0.8-0.9,1.2c-0.1,0.2,0.5,0.6,0.8,0.9c0.3-0.4,0.8-0.8,1-1.3C201,155.9,200.3,155.5,200,155.2 M197.8,276.9h0.8v-3.5
	h-0.8V276.9z M287.8,182.2c0.3,0.3,0.5,0.7,0.8,1.1c0.2-0.4,0.6-0.9,0.6-1.3c0-0.4-0.4-0.7-0.6-1.1
	C288.3,181.3,288.1,181.8,287.8,182.2 M193.1,253.1c-0.2,0.5-0.4,0.9-0.4,1.4c0,0.2,0.5,0.4,0.8,0.6c0.1-0.5,0.2-1,0.1-1.5
	C193.6,253.3,193.2,253.2,193.1,253.1 M192.5,241.1c-0.6,1.1-1.1,2-1.5,2.9c-0.1,0.1,0.3,0.4,0.4,0.6c0.7-0.6,1.4-1.2,2-2
	C193.5,242.5,193,241.9,192.5,241.1 M355.9,219.4c-0.2,0-0.6-0.1-0.6,0c-0.1,0.5-0.2,1-0.3,1.5c0.3,0,0.6,0,1,0V219.4z M356.5,60.5
	c0,1.4-0.1,2.3,0.1,3.2c0,0.3,0.7,0.4,1.1,0.6c0.2-0.9,0.4-1.8,0.5-2.8C358.1,61.4,357.4,61.1,356.5,60.5 M307.8,152.8
	c0.2,0.1,0.5,0.4,0.6,0.4c0.4-0.3,0.7-0.6,1-1c-0.2-0.2-0.5-0.5-0.5-0.4C308.5,152.1,308.2,152.5,307.8,152.8 M296.9,177.4
	c0.4-0.6,0.7-0.8,0.6-1c-0.2-0.6-0.4-1.2-0.6-1.7V177.4z M179.1,209.1c-0.2,0.9-0.4,1.6-0.5,2.3c0,0.1,1,0.5,1.2,0.4
	c0.4-0.3,0.7-0.9,0.6-1.4C180.4,209.9,179.7,209.6,179.1,209.1 M178.2,217.2c-0.8-0.8-1.5-1.4-2.2-2c0,0-0.5,0.4-0.5,0.4
	c0.3,0.9,0.7,1.7,1.1,2.5C176.9,217.9,177.3,217.7,178.2,217.2 M298.7,245.9c0.3,0.6,0.6,1.1,0.8,1.5c0.6-0.5,1.3-0.9,1.7-1.5
	c0.2-0.2-0.4-0.9-0.6-1.4C299.9,245,299.3,245.5,298.7,245.9 M304.3,80c-0.2,0-0.5,0-0.8,0c0.1,1,0.2,2,0.2,2.9c0.2,0,0.3,0,0.5,0
	V80z M162.4,229.9c-0.3,0-0.5,0-0.8,0v3.6h0.8V229.9z M159,232.8c-0.2,0.1-0.5,0.1-0.5,0.2c0,0.5,0.1,1.1,0.2,1.6
	c0.2-0.1,0.4-0.1,0.4-0.2C159.1,233.9,159,233.3,159,232.8 M159.7,264.5c-0.2,0.2-0.4,0.4-0.6,0.6c0.3,0.1,0.6,0.2,0.9,0.1
	c0.2,0,0.2-0.4,0.3-0.7C160.2,264.5,160,264.5,159.7,264.5 M132.5,274.5c0.3,0,0.6,0,0.8,0v-3.6c-0.3,0-0.7,0-1,0
	C132.4,272,132.5,273.2,132.5,274.5 M135.1,259.8c0.4-1.7,2.1-2.1,0.9-3.8c-0.1-0.2-0.5-0.3-0.7-0.3
	C133.6,256.4,134.1,257.6,135.1,259.8 M144.5,294.6c-0.4,0.5-0.8,0.9-0.9,1.4c0,0.1,0.6,0.5,1,0.7c0.3-0.4,0.7-0.8,0.8-1.3
	C145.4,295.3,144.8,294.9,144.5,294.6 M160.7,273.5c-0.3,0-0.5,0-0.8,0c0.1,1.2,0.2,2.5,0.3,3.7c0.2,0,0.4,0,0.5,0V273.5z
	 M163.5,209.4c-1,1.5-1.5,2.1-1.8,2.7c-0.1,0.2,0.4,0.7,0.6,1c0.2-0.2,0.4-0.4,0.5-0.6C162.9,211.9,163.1,211.2,163.5,209.4
	 M165.2,193.4c-0.8,0.9-1.4,1.4-1.7,2c-0.1,0.3,0.4,0.9,0.6,1.3c0.6-0.3,1.5-0.5,1.7-1C166.1,195.2,165.6,194.5,165.2,193.4
	 M305,49.4c-0.6,1.1-1.3,1.8-1.2,2.3c0.1,0.6,1,1,1.6,1.5c0.4-0.6,1-1.2,1-1.8C306.3,50.9,305.6,50.3,305,49.4 M165.1,258.7
	c1.5,0.1,3.1,0.4,3.5-1.9C166.6,256.3,165,256,165.1,258.7 M270,161.9c-0.7,1-1.3,1.6-1.7,2.3c-0.1,0.1,0.2,0.7,0.3,0.7
	c0.5,0,1.3,0,1.3-0.1C270,163.9,270,163.1,270,161.9 M122.9,286.8c-0.5,0.6-1.1,1-1.1,1.4c0,0.7,0.3,1.4,0.5,2.1
	c0,0.1,0.7,0.1,0.7,0c0.3-0.4,0.6-1,0.6-1.4C123.5,288.3,123.2,287.6,122.9,286.8 M364.1,200.8c0.1-2.1,0.2-2.8,0.2-3.5
	c0-0.3-0.5-0.6-0.8-0.9c-0.1,0.2-0.2,0.5-0.2,0.7C363.4,197.9,363.6,198.7,364.1,200.8 M175.5,99.3c1.6-0.7,2.7-1.2,5.4-2.5
	C177.7,97.1,176.3,96.9,175.5,99.3 M111.7,289c-0.8,0.5-1.4,0.6-1.6,1c-0.3,0.5-0.3,1.2-0.4,1.8c0.5-0.2,1.1-0.3,1.3-0.6
	C111.4,290.7,111.5,290,111.7,289 M412.7,209.6c0.3,0.1,0.7,0.2,1,0.3c0.5-0.9,1-1.9,1.3-2.8c0.1-0.3-0.4-0.9-0.6-1.3
	c-0.4,0.3-1.2,0.5-1.3,0.9C412.9,207.6,412.9,208.7,412.7,209.6 M294.3,127.9c-0.8,1-1.4,1.5-1.7,2.1c-0.2,0.3,0.2,0.9,0.3,1.4
	c0.6-0.3,1.4-0.5,1.6-0.9C294.8,129.9,294.4,129.1,294.3,127.9 M183.9,92.1c-0.3,0.6-0.7,1.3-1,1.9c0.3,0.1,0.7,0.3,1,0.4
	c0.2-0.7,0.5-1.3,0.7-2C184.5,92.4,184.2,92.2,183.9,92.1 M185.9,252.3c0.2-0.1,0.5-0.2,0.5-0.4c0-1.1-0.1-2.1-0.1-3.2
	c-0.3,0-0.6-0.1-0.8,0.1c-1.2,0.9-0.8,1.9-0.2,3C185.5,252,185.7,252.1,185.9,252.3 M291,114.2c0.4-1.9,0.8-3.4-1.2-5.5
	C290,110.9,288.8,112.4,291,114.2 M291.7,251.6c0.1,0.5,0.1,0.7,0.1,1c0.7-0.3,1.3-0.5,2-0.8c0,0-0.1-0.4-0.1-0.7
	C293,251.2,292.4,251.4,291.7,251.6 M204.4,172.1c-0.8,0-1.7-0.1-1.8,0c-0.3,0.7-0.3,1.5-0.4,2.2c0.6,0,1.5,0.2,1.8-0.2
	C204.4,173.7,204.3,172.8,204.4,172.1 M203.9,284c-0.4,0.1-0.9,0.2-1.3,0.2c0.1,1.2,0.2,2.4,0.3,3.6c0.3,0,0.5,0,0.8,0
	C203.8,286.5,203.9,285.2,203.9,284 M96.5,173.2c0.3,0,0.6,0,0.9,0.1v-4.3c-0.2,0-0.4,0-0.6,0C96.7,170.3,96.6,171.7,96.5,173.2
	 M215.6,264c-0.6,0.5-1.2,0.7-1.2,1c-0.1,0.6,0.1,1.2,0.2,1.9c0.2-0.1,0.6-0.2,0.6-0.4C215.4,265.7,215.5,265,215.6,264 M82.7,176.7
	c1,1.6,1,2.9,2.7,3.5C86.1,178.4,85.2,177.6,82.7,176.7 M313,229.8c-0.1,0.8-0.3,1.5-0.2,2.2c0,0.2,0.9,0.4,1.3,0.5
	c0.2-0.7,0.5-1.4,0.5-2.1C314.6,230.3,313.8,230.1,313,229.8 M348.5,217.7c0-0.5,0.1-1,0-1.6c0-0.2-0.3-0.4-0.5-0.6
	c-0.1,0.3-0.2,0.7-0.1,1C348,216.9,348.3,217.3,348.5,217.7 M222.5,227.2c-0.3,0.8-0.6,1.4-0.8,2.1c0,0.2,0.3,0.4,0.4,0.6
	c0.5-0.5,1-1,1.6-1.5C223.5,228.1,223.1,227.8,222.5,227.2 M451.8,224.4c-0.4,0-0.8,0-1.3,0v3.7c0.3,0,0.6,0,0.9,0
	C451.6,226.9,451.7,225.7,451.8,224.4 M232.1,218.3c-0.4,0.8-0.8,1.5-1.1,2.1c0.4,0.2,0.9,0.6,1.1,0.4c0.4-0.3,0.7-0.8,0.7-1.3
	C232.8,219.3,232.4,218.9,232.1,218.3 M339.9,70.4c0.3-1.1,0.6-1.8,0.6-2.6c0-0.4-0.3-0.9-0.5-1.3c-0.2,0.4-0.6,0.9-0.6,1.3
	C339.5,68.6,339.7,69.3,339.9,70.4 M339,193.3c0.3,0.8,0.6,1.4,0.8,1.9c0.6-0.5,1.2-1,1.6-1.7c0.1-0.2-0.4-0.9-0.7-1.4
	C340.1,192.5,339.5,192.9,339,193.3 M338.4,176.3c0.3-4.2,0.3-4.2-1.5-5.6C337.4,172.3,337.6,173.4,338.4,176.3 M334.1,48.2
	c-0.6,0.6-1.2,1.1-1.5,1.7c-0.2,0.4,0.3,1,0.5,1.5c0.6-0.5,1.3-0.9,1.7-1.5C335,49.7,334.5,49,334.1,48.2 M251.9,240.8
	c-1.4,0.4-2.2,0.5-2.8,0.9c-0.2,0.1,0.1,1,0.2,1.5c0.3-0.1,0.6,0,0.7-0.2C250.5,242.4,251,241.9,251.9,240.8 M494.2,196.5
	c-0.9,3.1-1.3,4.2-1.4,5.4c0,0.5,0.7,1.1,1.1,1.6c0.4-0.6,1.1-1.2,1.2-1.9C495.1,200.7,494.7,199.6,494.2,196.5 M330.9,267.6
	c1.3-1.5,1.1-2.5,0.1-3.3c-0.2-0.2-0.9,0.2-1.4,0.4C330,265.5,330.4,266.4,330.9,267.6 M261.5,86.9c-0.2,0.1-0.4,0.2-0.7,0.2
	c0,0.8,0,1.6,0.2,2.4c0.1,0.4,0.6,0.7,1,1c0.1-0.5,0.5-1,0.4-1.4C262.2,88.4,261.8,87.6,261.5,86.9 M262.9,215.7
	c1.3-1.5,2.1-2.3,3.2-3.5C263.6,212.2,263.4,213.4,262.9,215.7 M327.6,100.5v5.5C329.9,103.2,329.9,103.2,327.6,100.5 M200.1,175.6
	c-1.7,2.2-2.5,3.2-3.4,4.3c1.3,0.7,2.3,1.3,3.9,2.2C200.5,179.8,200.4,178.6,200.1,175.6 M111.6,204.5c1.5-0.9,2.5-1.9,2.5-3.3
	c0-0.4-0.4-1.1-0.8-1.2c-0.3-0.1-1.2,0.4-1.2,0.7C111.7,201.9,111.7,203.2,111.6,204.5 M320.2,210.4c-3.1,2.4-4,3.6-2.2,6
	C318.6,214.8,319.1,213.4,320.2,210.4 M318.3,122.5c-0.5-2.1-0.5-3.2-1-4.1c-0.3-0.6-1.1-1-1.6-1.5c-0.1-0.1-0.6,0.2-0.6,0.4
	c-0.1,0.7-0.3,1.7,0.1,2.2C315.7,120.4,316.7,121,318.3,122.5 M351.9,80c0.4-0.9,0.7-1.7,1-2.4c0.1-0.2-0.1-0.5-0.2-0.7
	c-0.3,0.3-0.9,0.5-0.9,0.9C351.7,78.4,351.8,79.2,351.9,80 M351.2,45.4c0.5,0,1,0,1.4,0.1c-0.2-1.8-0.3-3.7-0.5-5.5
	c-0.2,0-0.4,0-0.6,0C351.5,41.7,351.4,43.6,351.2,45.4 M116.8,198.2c2.2-1.3,3.2-2.6,2.6-5.1C117.1,194.1,116.4,195.5,116.8,198.2
	 M497.7,195.1c1.8-3.5,1.8-3.5,0.8-6.6C498.2,191,498,193,497.7,195.1 M167.3,275.8c-0.9,1.6-1.5,2.2-1.7,3c-0.1,0.4,0,1.1,0.2,1.5
	c0.3,0.3,1.1,0.6,1.3,0.5c0.4-0.2,0.6-0.9,0.6-1.4C167.7,278.6,167.5,277.9,167.3,275.8 M297.9,204.4c3.7,0.5,3.7,0.5,4.6-5.1
	C300.8,201.2,299.7,202.4,297.9,204.4 M90.6,241.6c-2.1,2.8-2.7,4.2,0,5.2V241.6z M289,123.1c-1,1-1.6,1.6-2.1,2.3
	c-0.3,0.4-0.2,1.1-0.2,1.6c0,0.2,0.6,0.5,0.6,0.5c0.6-0.5,1.3-0.9,1.6-1.6C289.2,125.2,289,124.4,289,123.1 M452.9,209.5
	c-1.3,1.5-2.4,3-1.9,5.4C452.9,213.1,454.4,211.8,452.9,209.5 M174.2,269.5c0.5,0.5,1,1.1,1.6,1.7c0.8-0.7,1.7-1.2,2.3-2
	c0.4-0.5,0.4-1.3,0.5-2c-0.4-0.3-0.8-0.6-1.2-1C176.3,267.3,175.2,268.4,174.2,269.5 M282.6,153c-0.6-0.6-1.2-1.2-1.8-1.8
	c-0.5,1-1,2-1.5,3c-0.6,1.2-1.5,2.4,0.9,3.6C281,156.1,281.8,154.6,282.6,153 M306.6,227.2c-3,2.2-3,2.2-1.8,6.4
	C305.5,231,306,229.3,306.6,227.2 M189.4,203.4c0.9-3.9,1.4-6,1.9-8.1c0-0.1-0.4-0.3-0.7-0.5C189,197.6,189,197.6,189.4,203.4
	 M254.7,131.3c0.1-1.3,0.3-2.6,0.2-3.9c0-0.4-0.7-1.1-1-1.1c-0.7,0.1-1.7,0.5-1.9,1C251.2,129.4,251.6,131,254.7,131.3 M320.7,84
	c-0.6-0.7-1.3-1.5-2-2.3c-0.1-0.2-0.7-0.2-0.8-0.1c-0.3,0.5-0.7,1.1-0.5,1.5c0.3,0.7,0.8,1.4,1.4,2c0.3,0.2,0.9,0.1,1.4,0
	C320.3,85,320.4,84.6,320.7,84 M80.1,254.4c-0.5,2.4-2,4.7-1.4,8.5C81.7,259.6,81.1,257,80.1,254.4 M426.9,182.7
	c-1.9,2.2-1.4,4,0.7,6c1-1.1,2-2.1,3-3.3C429.1,184.4,428.1,183.6,426.9,182.7 M219.4,231.4c-0.2-2.2-0.4-4.4-0.7-7.9
	C217.2,228.1,217.2,228.1,219.4,231.4 M306.8,99.6c2.1-2.3,3.3-3.3,4-4.6c0.2-0.4-0.8-1.8-1.5-2.4c-0.3-0.2-1.8,0.4-1.9,0.8
	C307,94.9,307,96.5,306.8,99.6 M499.5,172.6c1.5,1.9,2.9,3.7,4.8,6.1C501.9,172.1,501.9,172.1,499.5,172.6 M358.2,211.1
	c1.9-4.8,1.9-4.8,0-8.6V211.1z M431.9,198.3c-2.4,2.1-2.4,2.1-2.7,4.6C432.8,201.4,432.8,201.4,431.9,198.3 M399.4,219.5
	c-0.1-2.5,1.8-5.3-0.6-7.8C397,216.2,397,216.2,399.4,219.5 M128.8,184.4c-6,1.2-6,1.2-6.2,6.8C124.6,189,126.3,187.2,128.8,184.4
	 M277.9,234.5c3.4-4.2,0.9-6.7,0-9.2V234.5z M229.2,97.3c0.5,0.3,1,0.6,1.5,0.9c2.2-2.2,2.6-4.9,0.9-8.3
	C230.8,92.3,230,94.8,229.2,97.3 M328.3,34.6c2.9-3.4,6.8-4.8,6.9-9.4C333.2,28.3,328.6,29.2,328.3,34.6 M288,142.5
	c-1,1.6-1.6,2.5-2,3.4c-0.6,1.3-1,2.7,0.5,3.6c0.4,0.2,1.4,0.2,1.5-0.1c0.7-1.1,1.4-2.2,1.5-3.4C289.6,145.1,288.8,144.1,288,142.5
	 M149.5,203.5c4.2-5,4-7.4,0-8.8V203.5z M71.7,278.2c-3,4.1-3.1,7.6-2.9,12.1C72.1,283.6,72.5,282.2,71.7,278.2 M317.8,105
	c0.2,0.2,0.5,0.4,0.7,0.6c1-0.8,1.9-1.7,2.9-2.5c1.1-0.9,2.2-1.7,3.3-2.6c-1.4-2-3-2.1-4.3-0.5C319.3,101.4,318.7,103.3,317.8,105
	 M442.6,176.4c-0.9,3.8-1.8,7.4,1.6,12.6C442.8,183.8,446.2,180,442.6,176.4 M67.3,294.1c-1.3-2-1.2-4.4-3-6c-2.5,4-2.7,6.6-0.8,7.6
	C64.4,295.2,65.5,294.8,67.3,294.1 M52,293.6c0.5,2.4,0.9,4.8,1.4,7.3c-0.5,0.5-1.2,1-1.7,1.6c-0.3,0.4-0.7,1-0.6,1.4
	c0,0.3,0.7,0.9,1.1,0.9c0.5,0,1.2-0.3,1.3-0.7C55.2,300.3,56.2,296.7,52,293.6 M321.5,186.2c-2.5,2.8-6.4,5.3-2.4,9.6
	C323.5,193.5,320.2,189.3,321.5,186.2 M137.6,274.2c1.6-4,1.9-7.9,0.5-11.7c-2.8-0.3-4.6,0.1-5.4,2.8h3.9
	C136.9,268.3,137.2,271.3,137.6,274.2 M125.1,271.1c2.4-4.8,6-7,5.3-11.6C123.1,263.6,123.1,263.6,125.1,271.1 M181,170.7
	c0.5-0.6,1.1-1.2,1.6-1.8c0.7,0.6,1.4,1.2,2,1.8c0.5-3.9,1-7.6,1.5-11.5C180.2,163.5,180.2,163.5,181,170.7 M461.9,167.3
	c-5,3.7-8.1,7-8.6,12.9c3.2-0.9,6.1-1.9,5.6-4.7C458.3,172.3,461.5,171.4,461.9,167.3 M302.7,130.4c1-3.5-0.3-5.9,1.7-7.8
	c1.6-1.5,3.1-3.2,3-6.5c-3.6,2.8-6.7,5.3-9.8,7.9c-0.5,0.4-0.4,1.6-0.6,2.4C299.1,126.9,301.5,126.8,302.7,130.4 M71.1,267.6
	c1.9,0.4,0.9,2.5,3.5,2.1c0.4-0.3,1.2-1,2-1.8c-1.3-2.7-2.3-4.8-3.1-6.4c-1.9,1-4.1,1.4-4.9,2.7c-1,1.7-0.9,4.1-1.3,6.5
	C70.2,270.7,70.4,268.8,71.1,267.6 M70.2,201.6v-5.7c-4-0.1-5.5,3.7-8.7,5c-1.1,0.4-1.8,2.7-2,4.2c-0.1,1,1,2.2,1.6,3.2
	C64.4,205.9,67.3,203.8,70.2,201.6 M108.2,247.7c0.7,0.2,1.4,0.5,2.1,0.7c0.1-0.4,0.5-1,0.4-1.3c-0.1-0.3-0.8-0.6-1.2-0.5
	c-0.4,0.1-0.8,0.6-1.2,0.9c2.6-3.1,2-6.8,1.9-10.7c-1.1,0.1-1.8,0.3-2.6,0.2c-1-0.1-1.9-0.4-2.6-0.6c-1.8,1.8-0.9,4.6-3.2,6
	c-1.4-3.3,1.1-7.6-3.4-9.4c-0.7,2.4,2.6,5.6-1.7,7.6c-0.4-1.8-0.7-3.6-1.2-6c-1,2.5-1.8,4.2-2.4,6c-0.8,2.2-0.3,3.5,2,4.7
	c0.9,0.4,2.3-0.8,2.7,0.8c0.4,3.4-2.3,5.1-4,7.6c0.8,2.8-0.1,6,1.8,9.4c0.8-4.1,1.3-7.4,2.1-10.7c0.3-1.3,1.4-1.6,2.6-1.2l-0.2-0.2
	c-0.1,2.1-0.5,4.3,0,6.3c0.3,1.2,1.6,1.1,2.1-0.4l0.2,0C105.4,254.6,108.7,252.3,108.2,247.7 M420.2,166.2c-0.3,3-0.6,5.9-0.9,8.9
	c1.9-1.3,2.7-2.9,3.3-4.5c0.7-2,4.1-0.4,4.1-3.2c4.7-4.2,8.4-9.2,10.8-15.1c0.1-0.2,0.4-0.4,0.6-0.6l-0.3-0.3c0.6,2.3,0,5.2,3,6.4
	c2.5-3.2,2-8.7,7.9-9.4c-2.1-3.3-2.7-7.1-6.1-9.4c-2.7,2.1-3.4,4.8-3.9,7.5l0,0c-0.9,0.7-2.1,1.1-2.6,2c-1.1,2.3-2,4.6-4.7,5.5
	c-0.6,0.2-1.2,1.2-1.4,1.9c-1.1,4-5.4,6.1-6.4,10.2c-0.4,1.5-2.2,1.3-3.6,0.3c-0.5-1.1-1-2.1-1.5-3.2c-2.4,1.4-3.2,2.8-1.6,5
	C418,167.5,419.1,166.8,420.2,166.2 M176.2,241.8c-0.9,3.2-0.9,3.2,0.1,7.1c0.8-2.7,1.3-5-0.3-7.3c1,1,2.1,1.9,3.1,2.9
	c0.1-0.2-0.1,0-0.1-0.1c0.4-3.1,0.8-6.3,1.1-9.4c0.4,0,0.8,0,1.1,0c0.3,1.6,0.6,3.3,1,4.9c0.7,0.2,1.4,0.4,2.2,0.6
	c0.3,0.1,0.5,0.2,0.8,0.2c0.2,0,0.4-0.5,0.4-0.5c-0.3-0.3-0.8-0.9-1.1-0.9c-0.8,0.1-1.6,0.4-2.4,0.6c0.7-3.5,4.1-6,3.3-10.4
	c-0.7-3.9,0.3-8.1-1.9-12.6c-0.2,7-1.3,9.3-6.9,15.6c-0.2-0.5-0.4-1-0.7-1.6c-0.2-1.7,2-3.6-0.5-5c-0.2-0.1-0.6,0-0.7,0.2
	c-1.5,2.2,0.3,3.5,1.5,5c-0.9,0.4-2.6,0.8-2.6,1.3c-0.1,3-1.2,5.4-3.1,7.7c-0.6,0.8-0.8,2.1-0.8,3.2c0,0.7,0.7,1.4,1.1,2.1
	c0.6-0.4,1.6-0.6,1.9-1.2c0.4-1,0-2.4,0.6-3.2C174.7,239,175.5,240.4,176.2,241.8 M140.1,277.2c-0.5,0.5-1,1-1.5,1.6
	c-0.1,0.1,0.1,0.7,0.1,0.7c0.5,0,1.3,0,1.3-0.1c0.1-0.8,0-1.7-0.1-2.5c2.6,0.2,3.6-5,7-2c0.9-2.3,4.2-2.7,4.4-5.8
	c0.1-1.9,1-3.8,1.2-4.7c2.2-1,4.5-1.4,4.8-2.3c1.4-4.5,4.4-7.1,8.1-8.3c1-3,1.7-5.4,1.8-9.1c-3.7,3.6-5.5,7.4-9.1,9.8
	c-3.3,2.2-5.4,6.2-8,9.3c-1.3-0.1-2.4-0.2-3.6-0.2C144.4,268.1,142.2,272.6,140.1,277.2 M168.8,174.1c2.7,1.1,1.9,4.2,3.7,7.1
	c0.9-2.1,1.4-3.3,1.9-4.6c0.6-1.5,1-3.1,1.8-4.6c1.5-2.8,1.5-2.7-2.2-3.9C172,169.9,172.5,173.8,168.8,174.1
	c-1.5,0.6-3.4,0.4-3.8,2.6c-0.3,1.6-1.1,3.2-1.8,5.3c-4.6-2.1-6.8,0.9-8.6,4.1c-2,3.7-2,7.3,1.2,10.3c2.8-3.3,6.2-6,8-9.6
	C165.8,182.8,169.5,179.2,168.8,174.1 M144.7,208.5c0,0.6,0,1.2,0,1.7c0.2-0.1,0.5-0.2,0.5-0.2c0-0.4-0.1-0.9-0.2-1.3
	c-0.1-0.1-0.5-0.2-0.7-0.2c4.3-2.8,4.6-3.2,3.5-6.4c-0.7-2.3-1.5-4.5-2.2-6.7c-1.9,1.5-3.8,3.1-5.6,4.7c-1.6,1.3-2.5,2.9-2.6,5.1
	c-0.2,3.4-0.8,6.7-1.2,10c-0.7-0.2-1.3-0.3-2-0.5c0-2.6-0.1-5-3.6-5.4c-0.5,0.8-1.1,1.5-1.2,2.2c-0.4,4.9-3,6.5-7.6,5.6
	c-0.4-0.1-0.9,0.6-1.3,0.9c-0.1,1.3-0.1,2.5-0.2,3.8c-0.7,0.8-1.4,1.5-2,2.3c-1.5,2.2-1.7,4.3,0.5,6.3l-0.2-0.2
	c0.2,2-0.9,2.6-2.8,2.6c-0.4-0.3-0.8-0.8-1.2-0.9c-0.4-0.1-0.9,0.3-1.3,0.5c-0.1,0.1-0.1,0.7-0.1,0.7c0.5,0.1,1,0.3,1.4,0.2
	c0.5-0.1,0.9-0.5,1.4-0.8c-1.5,2.9,0,5.3,1.1,7.8c0.1,0.3,0.7,0.4,1.1,0.6c0.4-2.3,0.7-4.4,0.9-5.8c1.8-1.2,3.8-1.9,3.7-2.6
	c-0.2-2.7,1-4.1,3.1-5.4c1.4-0.9,2.4-2.2,3.6-3.4c0,0.4,0,0.9-0.1,1.3c-0.1,0-0.1,0-0.2-0.1c0.2-0.4,0.3-0.8,0.5-1.2
	c-2.7-0.4-3-1.9-2-4.2c1.4,0.3,2.8,0.5,4.6,0.9c-0.7-2.3-1.2-3.9-1.7-5.8c1.6-0.1,2.7-0.2,3.7-0.3c-0.1,0.5-0.4,1.1-0.3,1.6
	c0,0.4,0.5,0.7,0.8,1c0.2-0.2,0.5-0.3,0.6-0.5c0.2-0.5,0.3-1.1,0.5-1.6c1.3-0.3,2.6-0.5,4-0.8c0.1-1.4,0.3-2.6,0.4-4
	c0.8-0.2,1.5-0.4,2.2-0.7C143.2,209.2,144,208.8,144.7,208.5 M386.4,220.9c0.2,3.9,0.5,7.9,0.7,11.8c0,0.3,0.5,0.6,0.8,0.9
	c1.9-1.4-0.4-4.8,2.7-5.5c0.7,1.1,1.3,2.2,2.4,4c1.6-5.4,2.7-9.8,1.9-14.6c-2-1.5-3.9-2.9-7.1-5.3c1.5,3.9,2.3,6.1,3.2,8.5
	C389.1,220.8,387.8,220.9,386.4,220.9c0.2-0.2,0.3-0.5,0.3-0.8C386.7,220.4,386.6,220.6,386.4,220.9 M331.4,246.1
	c1.1,0.7,2.2,1.6,3.4,2.2c0.2,0.1,1.1-0.3,1.2-0.7c0.1-0.4-0.3-1.3-0.6-1.3C334.1,246.2,332.8,246.2,331.4,246.1
	c-3.2,2.8-6.4,5.5-9.6,8.2c-1.3,1.2-1.9,2.7-0.8,4.4c0.7-0.2,1.5-0.5,2.2-0.7c1.4,0.8,0.8,3.5,3.5,3.2c0.2-0.7,0.4-1.4,0.7-2.1
	c1.1-3.2,0.3-7.3,4.4-9.3C332.1,249.7,331.5,247.3,331.4,246.1 M327.5,215.4c-1.5-0.5-3-1-4.7-1.6c-1.4,4.3-2.6,8.2-3.8,12.2
	c0.2,0.1,0.5,0.3,0.7,0.4c2.6-3.7,5.1-7.5,7.7-11.2c1.4,0,2.8-0.2,4.1,0c1,0.1,0.9,2.8,3,1.5c-1.8-3.9-1.6-7.5,1.5-10.6
	c-0.1,0.8-0.2,1.6-0.2,2.4c0,0.3,0.6,0.6,0.9,0.9c0.2-0.5,0.7-1.1,0.5-1.4c-0.3-0.6-1-1.1-1.5-1.7c-0.9-1.4-1.7-2.7-3.3-5.2
	c-0.8,3.5-1.4,5.8-1.9,8.1c-1.4,1-2.7,2-4,3c0.1-1,0.3-1.9,0.5-3.4c-0.6,0.7-0.9,0.8-0.9,1c0.1,0.8,0.3,1.6,0.5,2.4
	C327,213.1,327.3,214.3,327.5,215.4 M349.4,190.9c-2.4,3.9-2.4,3.9,2.7,7.4c0.2-1.4,0.4-2.7,0.6-4.1c1.7-1.9,3.3,1.1,5.6-0.1
	c-0.8-1.6-1.6-3.3-2.3-5c-0.9-1.9-1.7-3.8-2.5-5.7C349.1,184.8,348.7,187.6,349.4,190.9 M269.1,153.9c-0.4-2.5-0.8-5-1.3-8.6
	c-2,4-7.7,4.7-5.8,10.5C264.4,155.1,266.7,154.5,269.1,153.9c-1.2,1.6-3.7,2.6-2.6,5.9c0.9-0.7,2-1.2,2.2-2
	C269.1,156.6,269,155.2,269.1,153.9 M204.4,143.4c0.4-0.4,0.9-0.7,1.1-1.2c0.1-0.4-0.3-0.9-0.5-1.3c-0.3,0.4-0.8,0.8-0.9,1.2
	c0,0.5,0.3,1,0.5,1.5h-4.8c-1.8,2.4-1.9,6-5.7,6.6c-0.2,0,0,2.8,0,5.6C198,150.9,202.6,148.3,204.4,143.4 M237.1,198.1
	c0.4,2.6-2,5.3,1.1,8.6c-0.5-3.5-0.8-6.1-1.2-8.7c2.6,1.4,2.9,3.9,3.2,6.5c0.3,2.5,0.5,2.5,3.4,4.9c1.5-2.8-3.5-3.8-1.9-6.8
	c1.1-2.1,1.2-4.7,1.9-7.6C240.9,196.3,239,197.2,237.1,198.1 M203.4,249.2c-1.6-1.9-3.2-3.8-4.8-5.6c-0.2-0.2-0.7-0.2-1-0.3v5.1
	C199.8,248.7,201.6,248.9,203.4,249.2c3.3-4.8,4.1-8.2,3.2-15c-1,3.8-1.9,6.6-4.5,8.2c-0.1-0.7-0.3-1.4-0.4-2.1
	c-0.2,0.2-0.4,0.3-0.6,0.5c0.4,0.5,0.8,1,1.2,1.4C202.7,244.5,203.1,246.9,203.4,249.2 M314.4,200c0.1,0.2,0.4,0.4,0.4,0.6
	c0,0.2-0.2,0.4-0.3,0.6c0-0.4,0-0.9,0-1.3c0.2-0.1,0.7-0.2,0.7-0.4c0.4-3.6-0.6-6.6-3.9-10.8c0.2,3,0.3,5.6,0.5,8.1
	c0,0.3,0.1,0.6,0.2,0.8C312.8,198.5,313.6,199.3,314.4,200 M84.5,255.7c1.1-2.4,1.5-4.8,1.2-7.4c-0.3-2.3,1.1-4.6-0.2-8.4
	c-1,5-1.8,8.5-2.2,12c-0.1,1.1,1,2.4,1.5,3.6c0.3,1.6,0.5,3.1,0.8,4.7c-2.1,2.5-0.7,6.7-3.6,8.7c-1-0.7-1.5-1-2.3-1.6
	c-0.2,2.3-0.2,4-0.5,5.7c-0.2,1.5-0.7,3-1.2,4.9c5.3-0.4,3.7-6.5,7.7-7.3c0.5,1.1,1,2.2,1.5,3.3c3.3-3.8,2.1-9.3,5.4-13.1
	c0.8-0.9,0.4-3.4-1.4-4.5c-0.1-0.5-0.1-1.1-0.4-1.6c-0.1-0.2-0.7-0.1-1.1-0.2c0.1,0.2,0.1,0.6,0.3,0.7c0.4,0.3,0.9,0.6,1.4,0.9
	c-0.2,4.5-0.2,4.5-4.1,4.3c-0.6,0-1.1,0-1.7-0.1C85.5,258.6,86.3,256.9,84.5,255.7 M184.8,203.3c-0.9,2.7-1.9,5.3,0.4,7.9
	c1.3,1.4,2.5,2,4.2,0.4c-2.4-1-3.5-2.6-2.9-5.1c0.4-1.7-0.4-2.6-1.9-3.1c0.2-0.5,0.5-1,0.6-1.4c0-0.2-0.6-0.5-1-0.7
	c-0.1,0.2-0.3,0.5-0.3,0.7C184.2,202.4,184.5,202.9,184.8,203.3 M178.2,189.2c0.5-0.2,1.1-0.4,1.3-0.7c0.2-0.3-0.3-0.9-0.4-1.3
	c-0.2,0.2-0.4,0.4-0.5,0.6c-0.1,0.5-0.1,1.1-0.2,1.6c-2.9,4.5-3.9,6.8-3.9,10c2.2-2.5,3.8-4.4,5.7-6.4
	C179.5,191.6,178.9,190.4,178.2,189.2 M344.5,198c2.8-1.5,2.1-3.3-0.1-6.5c0.1,3,0.2,4.8,0.3,6.7c-1.8,0.4-3.6,0.7-5.5,1.1
	c-0.1,1.7-0.4,3.1-0.1,4.4c0.2,0.8,1.2,1.6,2,2c0.2,0.1,1.4-0.8,1.6-1.4C343.4,202.2,343.9,200.1,344.5,198 M361.3,187.6
	c0.2-0.1,0.5-0.2,0.7-0.4c0.1-0.1,0-0.4,0-0.6c-0.2,0.4-0.3,0.8-0.5,1.2c-1.6-2.5-3.3-5-4.9-7.4c-0.2,2-0.5,4.3-0.8,6.8
	c1.7,1,2.4,3.2,5.1,2.7C361.1,189.1,361.2,188.4,361.3,187.6 M389.7,250.3c1.1,0.8,2.1,2.2,3.6,1.1c2.6-2,2.4-4.5-0.3-7.4
	C393.5,247.1,391.7,248.8,389.7,250.3c0.1-0.6,0.1-1.3,0.1-1.9C389.7,249,389.7,249.7,389.7,250.3 M251.9,178.9
	c-0.8,1.1-1.8,2.1-2.5,3.2c-0.4,0.7-0.4,1.7-0.2,2.4c0.3,0.9,0.6,2.2,2.3,1.8c0-1.1,0-2.2,0-3.4c0-1.4,0.1-2.8,0.1-4.2
	c2.8-1.3,1.8-4,2.5-6.6c-1.7,0.9-3,1.6-4.3,2.3C250.6,175.9,251.2,177.4,251.9,178.9 M433.2,173.7c-0.5-0.9-1.1-1.8-1.9-3.1
	c-0.9,1.3-1.3,2.5-2.1,2.9c-2.8,1.4-1.1,2.2,0.1,3.2c1.4-1.1,2.8-2.1,4.1-3.2c0,0.3-0.1,0.5,0,0.8c0.1,0.2,0.3,0.3,0.5,0.4
	C433.6,174.4,433.4,174.1,433.2,173.7 M193.3,171.1c0.1,0.9,0.3,1.7,0.5,2.6c-1.7-0.4-3.1-0.2-4,1.7c-0.4,0.9-1.3,1.6-1.9,2.4
	c0.1,0.5,0.2,1,0.3,1.4c-0.1-0.5-0.1-1-0.2-1.5c5.2,0.5,5.2,0.5,5.6-4.2c1,0.3,2,0.7,3.3,1.1c1-1.8,1.9-3.5,3.4-6.2
	c-3.1,1.3-5.1,2.1-7,2.9c0.1-3.1,0.2-6.1,1.9-8.8c0.1-0.2-0.5-0.7-1.1-1.6c-1.2,1.7-2.2,3.2-3,4.4
	C191.9,167.5,192.6,169.3,193.3,171.1 M224.8,206.6c-1.4-0.6-1.9,0-1.8,1.3c0,0.1,0.4,0.2,0.6,0.3c0.3-0.6,0.7-1.2,1-1.9
	c2.3-1.9,6.2-2.9,4.2-8C226.6,201.2,224.3,203.1,224.8,206.6 M337,96.3c-1.3-0.4-2.6-1.3-3.8,0c-0.4,0.5-0.4,1.3-0.7,2.1
	C334.2,97.7,335.6,97,337,96.3c1.4-0.6,2.9-1.1,4.3-1.7c-0.6,0.9-1.3,1.7-1.9,2.6c0.3,0.2,0.6,0.3,0.9,0.5c0.3-1,0.6-2,0.9-3
	c0.2-1.5,0.5-3,0.9-5.6c-2.3,1.9-3.8,3.1-5.3,4.2c0-0.8,0.2-1.6,0.1-2.4c-0.1-0.4-0.7-0.9-1.1-0.9c-0.4,0-1,0.5-1.1,0.9
	c-0.4,2,0.7,2.3,2.4,2.1C337,94.2,337.1,95.3,337,96.3 M426.4,197.9c0.7-0.8,1.5-1.6,2.2-2.4c-1.6,0.3-2.5,1-2,2.6
	c-3.4,0.6-2.4,3.8-3.4,5.8c-0.3,0.7,0.2,1.8,0.4,2.7c0.4,0,0.8,0,1.1,0C425.2,203.7,425.8,200.8,426.4,197.9 M40.6,224.3
	c1.6,0.1,3.3,0.5,4.8,0.2c1.7-0.3,1.7-1.7,0.8-3.2C44.4,222.3,42.5,223.3,40.6,224.3c-1.1,2.9-4,5.5-1.3,9.2
	C41.1,230.4,42.8,227.6,40.6,224.3 M41.8,199c0.9,1.1,1.8,2.2,2.7,3.2c2.1-0.5,3.1-1.9,3.6-4.7C45.7,198.2,43.8,198.6,41.8,199
	c1.3-2,1.3-2,0.9-3.8C42.3,196.6,42.1,197.8,41.8,199 M246,131.7c0.1,0.5,0.1,1,0.2,1.4c0-0.5-0.1-1-0.1-1.6
	c0.5-0.2,1.1-0.3,1.4-0.6c0.3-0.4,0.4-1,0.5-1.5c0.3-2.1,0.6-4.2,1-7.5C245.9,125.5,247.2,128.9,246,131.7 M59,300.2
	c1.2-3,0.9-5.7-1.7-8.6c-0.9,3-1,5.5,0.5,7.9c0.2,0.3,0.9,0.4,1.4,0.5c-0.2,0.2-0.5,0.4-0.5,0.6c0,0.5,0.1,1.1,0.1,1.6
	c0.4-0.1,0.9-0.2,1.3-0.3C59.7,301.4,59.3,300.8,59,300.2 M61.8,278.6c-1-0.1-2-0.2-3.2-0.3c0.7,1.7-0.6,3.6,2.1,4.5
	c0.3-1.6,0.5-3,0.7-4.5c0.7-0.2,1.8-0.2,2.2-0.7c0.6-0.8,0.7-2,1-3c0-0.1-0.6-0.5-0.6-0.4c-0.9,0.6-1.9,1.2-2.4,2
	C61.3,276.8,61.7,277.8,61.8,278.6 M323.3,42.5c-0.1-1-0.2-1.9-0.2-2.9c0-1.5,0-3.1,0-4.6c0.5,0,1,0,1.5-0.1c0.1,0,0.1-0.4,0.2-0.7
	c-0.5,0.3-1,0.6-1.5,0.9c-0.4,0.4-0.8,0.7-1.2,1.1C319,39.3,319.3,40.6,323.3,42.5c-1.5,2.3-1.5,4.7-0.8,7.1c-3,0.8-4.5,3.3-5.6,5.8
	c-0.5,1,0.3,2.7,0.9,3.9c0.2,0.4,1.3,0.5,2,0.7c0.8-1.5,1.4-2.7,2.1-4c1.6-1,1.7-2.5,1.4-4.1c2.7,0.2,5-0.2,6.5-2.9
	c1.6-2.9,2.7-5.8,0.9-8.8c-1-1.7-2.3-1-3.3,0.3c-2.3,3-2.3,3.9-0.1,6.9c-1.2,1.6-2.5,3.2-3.7,4.8c-0.6,0.1-1.1,0.2-1.7,0.3
	c0.1-1,0.3-2,0.4-3.1C324.8,47.5,322.7,44.8,323.3,42.5 M218.9,108.3c0.5,0.2,1.1,0.6,1.4,0.4c0.6-0.4,1.1-1,1.5-1.6
	c0-0.1-0.6-0.6-1-1c-0.5,0.5-1,1-1.5,1.6c-0.2,0.2-0.2,0.5-0.3,0.8c-3,0.7-4.5,2.6-4.6,5.7c-1.9-0.3-3.3,0.4-3.3,2.4
	c0,0.8,1,1.5,2.2,3.2c0.4-2.7,0.7-4.3,0.9-5.8C219.6,112.7,219.6,112.7,218.9,108.3 M249.4,140.9c0.5,2.6,1.9,4.5,4.3,5.7
	c-1.8,2.1-3.5,4.1-5.4,6.3c-1.5-2.3-1.2-5-3.9-5.7c-0.6-0.5-1.2-1-1.9-1.4c-0.7-0.3-1.5-0.5-2.2-0.7c-0.2,0.7-0.6,1.5-0.5,2.2
	c0.1,0.7,0.8,1.4,1.1,1.8c1.3-0.8,2.5-1.5,3.7-2.2c0,1.1-0.4,2.3,0,3.3c1.4,3.8-0.7,5.6-3.5,7.1c0.1-0.5,0.4-1.1,0.3-1.5
	c-0.2-0.5-0.7-0.9-1.1-1.4c-0.2,0.2-0.6,0.4-0.5,0.5c0.1,0.4,0.2,0.9,0.4,1.2c0.3,0.4,0.7,0.7,1,1c0.1,3,1.2,5.4,4.2,6.7
	c1.2-0.8,2.5-1.6,4-2.6c0.7,1.8,1.3,3.1,1.9,4.6c3.3-1.2,3.2-3.8,3.7-6.2c-1-0.5-1.9-0.9-3.2-1.6c1.8-2.1,2.6-4.7,5.9-3.9
	c0,0.7,0,1.3,0.1,1.9c0.1-0.1,0.5-0.3,0.4-0.4c-0.2-0.5-0.4-0.9-0.6-1.4c0-0.6-0.2-1.2,0-1.7c1.9-4.7,7-7.1,8.6-12.1
	c0.4-1.2,1.8-2.1,2.8-3.1c0.6-0.6,1.3-1.3,2-1.5c3.7-1.2,5.7-3.9,7.8-6.9c1.6-2.2,4.7-3.3,5.4-6.3c0.1-0.5-0.2-1-0.3-1.5H280
	c-1.2,3.2-2.6,5.7-6.2,6.6c-2.6,0.7-5,2.5-7.5,3.9c0,1.3,0.6,3.4-0.1,4c-4.4,3.5-7.6,8.3-12.8,10.9c-0.3-2.1-0.6-4.1-0.8-6.1
	c0.5,0,1.1,0.1,1.5,0c0.6-0.1,1.1-0.5,1.6-0.7c-0.1-0.2-0.2-0.5-0.4-0.7c-0.5,0.3-1,0.6-1.5,0.8c-0.4,0.2-0.8,0.4-1.3,0.5
	C251.6,140.8,250.5,140.9,249.4,140.9l0.2-2C249.5,139.6,249.4,140.3,249.4,140.9 M216,213.3c0.7-0.4,1.5-0.8,2.1-1.3
	c0.1-0.1,0.1-0.7,0-0.7c-0.5-0.1-1.3-0.2-1.4-0.1c-0.3,0.8-0.4,1.6-0.6,2.4c-4.6,0.8-4.7,0.8-4.3,4.3
	C214.4,217.3,215.5,215.6,216,213.3 M434.9,139.7c0.6-0.5,1.5-0.8,1.8-1.4c0.3-0.5-0.2-1.4-0.3-2.1c-0.5,0.4-1.4,0.8-1.6,1.3
	c-0.2,0.7,0.1,1.6,0.2,2.4c-2.9,0.7-2,3.1-2.5,5.1C435.8,143.3,435.8,143.3,434.9,139.7 M242.4,126.3c0.1,2.1,0.2,4.1,0.2,6.2
	c-1.3-0.1-2.8-0.6-3.9,1.4c0.2,0.9,0.5,2.2,0.9,3.5c0.3,1.1-1.3,2.8,1,3.2c2.4-2.4,3.1-5.1,1.9-8.4
	C242.5,130.2,242.4,128.2,242.4,126.3c1,0.1,2.1,0.6,2.5-1c0.6-2,1.4-4,2-6.1c2-1.6,3.9-3.1,5.8-4.6c-0.5,2-1.5,4.1-0.3,6.3
	c3.4-2.3-0.1-4.2,0.2-6.2c0.2-1.4,0.3-2.7,0.6-4.8c-2.2,1.2-4,1.8-4.5,4c-0.5,1.9-1.1,3.7-1.7,5.6c-2.7-0.2-4,1.2-4.2,3.8
	C242.9,124.2,242.6,125.2,242.4,126.3 M274.3,167.3c2.2-1.7,2.8-4.2,3.1-6.8c-0.9-1-1.7-2-2.5-2.9c-0.6,0.3-1,0.3-1.1,0.5
	c-0.3,0.7-0.6,1.4-0.7,2.2c0,0.3,0.7,1,1.1,0.9c1.1-0.1,2.1-0.5,3.1-0.7c-1.3,2.2-3,4.2-2.9,7c-2.5,0.2-2.1,2-1.9,3.6
	c0.2,1.2,0.8,2.1,2.4,0.9C274.8,170.5,274.5,168.9,274.3,167.3 M165.6,225.3c-0.5,1.4-1.4,2.9,0.3,4c2.5-0.1,2.6-3.9,5.5-3.1
	c-0.1-2.6,2.6-5.4-0.8-7.7c-1.5,2.8,0.6,5.2,0.8,7.7c-2-0.3-4-0.6-5.9-0.8c0.3-0.4,0.7-0.7,0.9-1.1c0.1-0.2-0.3-0.6-0.5-0.9
	c-0.1,0.2-0.4,0.4-0.4,0.6C165.4,224.3,165.5,224.8,165.6,225.3 M54.3,211.8c-0.7,1.6-1.4,3.1-2.2,4.9c2.9-0.5,3-0.5,2.8-1.8
	c-0.1-1.1-0.5-2.1-0.7-3.2c1.2-0.1,2.5-0.3,4-0.5c-0.8-1.8-1.3-3-1.9-4.4C54.8,208.3,57,211.1,54.3,211.8 M182.7,181.9
	c0.3,2.1,0.7,4.2,1,6.3c1.1-1.6,1.6-3.3,1.5-5C185.2,181.9,184,181.7,182.7,181.9c0.1-0.6,0.1-1.2,0.2-1.9
	C182.8,180.7,182.8,181.3,182.7,181.9 M113.2,277.7c-0.1,0.5-0.2,0.9-0.2,1.4c0-0.5,0-1.1,0-1.6c2.1-0.5,3.8-1.3,4.1-5.1
	C115.3,274.8,114.3,276.2,113.2,277.7 M355.2,208.6c0.2-0.5,0.6-1,0.6-1.6c0-0.3-0.5-0.7-0.7-1c-0.1,0.2-0.5,0.4-0.4,0.6
	c0.2,0.7,0.6,1.5,0.8,2.2c-2.6-1.4-4.4-0.5-6.6,2.2C351.9,211.2,354.2,211.5,355.2,208.6 M191.6,94.7c-0.2,0.5-0.4,0.9-0.6,1.4
	c0,0.1,0.3,0.2,0.4,0.4c0-0.7-0.1-1.3-0.1-2c1,0.9,2.1,1.7,3.7,0.8c0.2-1.8,0.2-3.5-2.5-3.9C192.1,92.6,191.8,93.6,191.6,94.7
	 M334.6,39.3c0.1,0.8,0.2,1.6,0.4,2.4h0.1C335,40.9,334.8,40.1,334.6,39.3c2,0.6,4.1,2.3,5.6-1.1C338.1,38.6,336.4,39,334.6,39.3
	 M282.3,142.8c2.7,0.1,3.2-1.4,2.8-3.7c0-0.1-0.5-0.4-0.7-0.3c-1.9,0.4-1.5,2.1-1.8,3.4c-0.1,0.3-0.1,0.6-0.1,0.8
	c-1.1,0.7-2.2,1.4-3.1,2.2c-0.2,0.1,0.1,1,0.4,1.4c0.2,0.2,1.2,0.1,1.2-0.1C281.5,145.2,281.9,144,282.3,142.8 M446.1,222.7
	c-0.2-0.6-0.3-1.3-0.1-0.3c-0.4-0.8-0.1-0.2,0.2,0.5c-1.2-0.6-2.3-1.2-3.9-2v3.8C443.8,224,445,223.4,446.1,222.7 M387.9,238.1v3.9
	c2.1-2.1,2.1-2.1-0.3-3.7c-0.4-0.3-0.8-0.6-1.3-0.8c-0.2-0.1-0.4,0.1-0.7,0.1c0.2,0.3,0.5,0.8,0.7,0.8
	C386.9,238.5,387.4,238.2,387.9,238.1 M305.5,104.8c1.6-0.3,4.3,1.2,4-2.1C308.1,103.4,306.8,104.1,305.5,104.8
	c-0.7,1.7-1.3,3.9-1.2,5.4C307.3,109,305.8,106.8,305.5,104.8 M154.5,216.4c-0.2,0.4-0.4,0.7-0.6,1.1c0.1-0.4,0.3-0.9,0.4-1.3
	c2.9-2.4,2.9-2.4,2.3-6C155.7,212.7,155.1,214.6,154.5,216.4 M378.6,230.3c-0.5,0.2-1.1,0.2-1.5,0.6c-0.3,0.3-0.6,0.9-0.6,1.3
	c0,0.3,0.7,0.5,1.1,0.8c0.2-0.4,0.6-0.8,0.7-1.3c0.1-0.5,0.1-1.1,0.1-1.6c1.2-0.6,2.7-1.1,1.8-3c-0.1-0.2-0.4-0.3-0.6-0.4
	c-0.3,0.9-0.5,1.9-0.8,2.8C378.6,229.7,378.7,230,378.6,230.3 M379.4,191.5c-0.5-1.2-0.9-2.4-1.7-4.4c-0.9,2.5-1.5,4.1,1.5,4.3
	c-0.1,0.4-0.1,0.9-0.2,1.3C379.1,192.3,379.2,191.9,379.4,191.5 M399.3,237.6c1.3-1.7,1.4-3.5,1-5.5c-0.2-1.1-0.2-2.2-0.3-3.3
	c-0.5-0.5-1-1.1-1.6-1.6c-0.4-0.3-1-0.5-1.3-0.3c-0.4,0.2-0.7,0.9-0.6,1.3c0.1,0.4,0.7,0.9,1.2,0.9c0.8,0,1.6-0.2,2.4-0.4
	c-1,3-1.4,6-0.5,9.1c-1,0.5-2,0.8-2.9,1.4c-0.3,0.2-0.1,0.9-0.2,1.4c0.5-0.1,1.2,0,1.3-0.2C398.4,239.6,398.9,238.6,399.3,237.6
	 M210.8,172.1c-1.4,0.2-1.7,1.2-1.5,2.3c0.1,0.4,0.6,0.7,1,1c0,0,0.5-0.3,0.5-0.5c0-1-0.2-2-0.2-2.9c1.9,0.5,3.3,0.1,3.3-2.2
	c0-1.4-0.2-2.7-0.2-4.1c-2.7-3.4-2.8-6.7,0.4-10.2c0.6,1,1,1.7,1.4,2.5c0,1.1-1.5,2.2,0.5,4c-0.3-1.9-0.5-3-0.7-4.2
	c2.9-1.8,2.4-5.8,5.2-7.8c0.9-0.7,0.5-3.2,0.7-4.9c1.4,1.6,2.8,3.1,4.8,5.4c1.1-3.2,1.9-5.6,2.8-8.4c1.7,2,3.3,3.8,4.8,5.6
	c2.3-0.9,3.2-2.7,3-4.7c-0.5-3.9-1.3-7.7-2-11.6c1.4-0.8,2.9-1.4,4.1-2.5c0.8-0.8,0.8-2.3-0.5-2.7c-0.8-0.3-2.5,0.1-2.7,0.6
	c-0.5,1.5-0.5,3.2-0.6,4.8c-1-0.3-2-0.5-2.2-0.6c-3.1,2.8-5.8,5.3-8.5,7.7c-2,1.8-3.4,3.8-2.8,6.6c-1.4-0.4-2.7-0.5-3.7,0.8
	c-1.1,1.5-2.2,3.8-3.6,4.1c-2.8,0.7-3.7,2.5-4.1,4.6c-0.5,3-0.5,6-0.7,9c-0.6-0.1-1.2-0.1-1.8-0.2c-0.1-1.3-0.3-2.6-0.4-4
	c-5.9,2.7-5.9,2.7-3.6,6.3c1.4-0.8,2.9-1.7,4.3-2.5c-0.5,4.5-0.4,4.6,3.2,3.8c0.9-0.5,1.8-1,2.6-1.4
	C212.6,167.8,211.7,169.9,210.8,172.1 M226,248.9c-0.1-0.3-0.1-0.6-0.3-0.7c-0.4-0.2-1-0.5-1.2-0.4c-0.3,0.2-0.4,0.8-0.6,1.2
	c0.5-0.1,1-0.3,1.6-0.3c0.3,0,0.5,0.1,0.8,0.1c0.3,0.3,0.6,0.7,0.8,1C226.7,249.5,226.3,249.2,226,248.9 M55.5,192.7
	c-0.3,0-0.6-0.1-0.7,0.1c-0.3,0.3-0.7,0.7-0.8,1.1c0,0.2,0.5,0.5,0.7,0.7c0.2-0.5,0.4-0.9,0.6-1.4c0.1-0.2,0-0.5,0-0.8
	c3.6,1,3.6,1,3.7-2.6c0-0.3-0.1-0.5-0.2-0.8c6.3-2.9,11-7.8,16-12.4c4.5-4.2,9.1-8.5,13.8-12.5c2.5-2.2,4.6-4.8,7.9-6.4
	c2.9-1.4,5.2-4.2,7.4-6.6c6.7-7.3,15.4-12.5,21.8-20.2c0.5-0.6,1.3-1.3,2-1.5c4.6-1.2,7.4-4.9,10.2-7.9c5.3-5.5,11.2-10.6,15.3-17.1
	c0.6-0.9,1.6-1.6,2.5-2.3c3.7-3.1,3.7-3.1,5.6-10.9c-4.2,4.9-9.1,7.4-12.8,11.8c-2.7,3.3-6.6,6.1-9.9,9.1c-3.5,3.1-7.8,5.4-11,9.1
	c-0.3,0.4-1.1,0.3-1.5,0.7c-2.6,2.2-5.2,4.3-7.8,6.6c-1.7,1.5-3.1,3.4-4.8,4.8c-7,5.4-13.4,11.4-19.8,17.5
	c-3.4,3.3-7.5,5.9-11.3,8.7c0-0.2,0-0.5,0-0.7c0-0.2,0.1-0.4,0.2-0.5c-0.1,0.4-0.2,0.8-0.3,1.1c-1.4,1.3-2.8,2.6-4.1,4
	c-5.3,6.1-10.9,11.8-17.3,16.8c-2.3,1.8-3.6,4.9-5.4,7.4c-1.2,1.2-2.2,2.3,0,3.5C55.5,191.5,55.5,192.1,55.5,192.7 M234,238.1
	c-0.2,0.5-0.5,0.9-0.5,1.4c0,0.3,0.5,0.6,0.7,0.9c0.1-0.2,0.4-0.4,0.4-0.5c-0.3-0.7-0.6-1.3-0.9-1.9c1-0.3,1.9-0.6,2.9-0.9
	c-0.2-0.5-0.2-1.5-0.5-1.5c-1.9-0.4-0.7,1.6-1.5,2C234.4,237.7,234.2,237.9,234,238.1 M329.6,178.4c0.4,0.6,0.8,1.2,1.3,1.7
	c0.2,0.2,0.6,0.3,1,0.4c-0.1-0.4,0-1.1-0.3-1.3C331,178.9,330.3,178.7,329.6,178.4c0.2-0.4,0.5-0.9,0.6-1.4c0-0.2-0.4-0.5-0.6-0.8
	c0,0.3,0.1,0.5,0.1,0.8C329.6,177.5,329.6,178,329.6,178.4 M308.3,209.7c-0.4,0.5-0.8,0.9-1.1,1.4c0.2,0.1,0.4,0.2,0.7,0.4
	c0.1-0.6,0.2-1.3,0.2-1.9c0.4-0.3,0.8-0.6,1.1-1c0.1-0.2,0.1-0.5,0.2-0.7c-0.2,0.2-0.6,0.2-0.7,0.5
	C308.5,208.7,308.4,209.2,308.3,209.7 M303.8,131.5c0.1,0.8,0.3,1.6,0.4,2.4c0.1,0,0.1,0,0.2,0C304.2,133.1,304,132.3,303.8,131.5
	c1.1,0.4,2.1,0.8,3.1,1.1c0.2,0.1,0.5-0.2,0.8-0.3c-0.2-0.4-0.5-1-0.7-1C305.9,131.3,304.9,131.4,303.8,131.5 M246,196.8
	c0,0.6,0.1,1.2,0.1,1.8c0,0,0.1,0,0.1,0c-0.1-0.6-0.2-1.3-0.3-1.9c1.5-0.3,2.9-0.6,1.6-2.8C247.1,194.8,246.5,195.7,246,196.8
	 M278.5,102.5c-0.3-1.3-0.7-2.6-1-4c3.4-1.1,3.6-4.9,5.7-7c0.7,0.4,1.3,0.8,2.6,1.5c0.5-1.6,1.2-3,1.3-4.5c0.1-1.3-0.5-2.6-0.7-3.9
	c0.2-0.3,0.4-0.6,0.6-0.9c2.3-1.8,2.8,2.4,5.4,1.1c0.9-1.7,1.9-3.8,3-6c0.9,1.3,1.5,2.3,2.4,3.6c1-1.7,1.9-3.2,2.8-4.6
	c0.3-0.3,0.6-0.6,0.8-0.9c1.9-1.2,2.9-2.5,3.4-5.1c0.8-4.1,1.6,1.8,3,0.5c2.2-2.8,1.7-5.4-0.4-8.1c-1.3,3.7-3.7,5.7-7.6,5.3l0.2,0.2
	c-0.4-1.9,0.1-4-1.9-5.4l0.2,0.2c-0.1-0.5-0.2-1.1-0.5-1.6c-0.3-0.6-0.8-1.2-1.2-1.8c-0.5,0.6-1.1,1.1-1.5,1.8
	c-0.3,0.5-0.3,1.1-0.4,1.6l0.2-0.3c-1.9,2-3.8,4-5.7,6V66c-1.6,1.6-4.7,1.5-4,4.6c1.6,0.6,2.5-2.9,4.2-0.5c0,1-0.1,2-0.1,3
	c-0.4,0.3-0.7,0.6-1,0.9c-1.8,0.6-4.2,0.7-5.3,1.9c-2.3,2.5-5.1,2.6-8,2.7c-0.6,1.5-1.1,2.8-1.6,4l0.1-0.1c-0.3-0.3-0.6-0.6-1-0.8
	c-0.4-1.2-1.4-2.3-2.4-1.5c-1.2,1-2.1,2.5-2.5,4c-0.5,1.6-0.4,3.4,1.7,4.2c-0.3,1.4-0.3,2.9-0.9,4.1c-0.4,0.8-1.8,1-2.4,1.7
	c-0.9,1-1.5,2.2-2.2,3.3c0-0.3,0.1-0.5,0.1-0.8c0,0.2,0,0.4-0.1,0.6c-1.7,0.4-0.6,4.5-3.8,2.8c-2.8,2.8-4.9,5.8-4.1,10.6
	c1.7-2.4,3.2-4.4,4.5-6.2c1.7,0.4,2.7,0.7,3.8,0.9c-0.8,2.7-4.3,4.4-3.3,8.3c2.7-2.8,5-5.2,7.3-7.6c0,2.1-1.7,4.6,1.7,6.6
	c-0.7-2.7-1.2-4.6-1.7-6.6c-0.3-0.2-0.6-0.4-0.9-0.7c0.6-1.2,1.2-2.4,1.8-3.6c0.9,1.2,1.8,2.3,2.7,3.5c2.3-2.2,0.7-4.6,0.6-6.9
	c1.2,0,2.5,0,3.7,0C275.5,100.6,275.9,102.2,278.5,102.5c-0.2,1.2-0.2,2.5-0.3,3.7c0.2,0,0.4,0,0.6,0
	C278.6,105,278.5,103.7,278.5,102.5 M145.3,258.6l-0.6-0.4c0.1-2.3,0.2-4.6,0.3-7c1.7-1.7,3.3-3.3,5-4.9c-0.1,0.5-0.1,1-0.2,1.5
	c0.1-0.5,0.1-0.9,0.2-1.4c0.3-0.6,0.5-1.6,1-1.7c1.8-0.6,1.9-1.6,1.2-3c1.2,0.5,2.2,0.2,2.2-1.1c0.1-1.3-0.2-2.6-0.4-4
	c3.6-1.9,1.5-4.7,0.9-7.3c-0.2,2.5-0.4,5-0.6,7.5c-0.6,1.7-1.3,3.4-1.9,5c-3.7-2.9-3.8-2.9-5,1.4c-0.4,1.3-1.7,1.4-1.9,1.8
	c-1.7,3.3-4.8,5.8-5.3,9.8c0.1,0.3,0.2,0.5,0.3,0.8c0,0.2-0.2,0.4-0.3,0.5c0-0.5,0.1-0.9,0.1-1.4c1.6-1.2,3.1-2.4,4.7-3.5
	c0,2.3,0,4.6-0.1,6.9c-2.5,1.3-2.2,3.8-2.5,6c-0.4,0.4-0.7,0.8-1,1.2c-0.1,0.1,0.2,0.4,0.3,0.6c0.2-0.7,0.3-1.3,0.5-2
	c2.2-1.3,3.4-3,3.1-5.7c2.2,0.6,4,0.6,4.3-2.3c2-0.8,3.9-1.5,5.8-2.4c0.9-1.5,1.8-3.1,2.7-4.6c1.4-1.3,2.9-2.6,4.2-4
	c0.2-0.2,0-1.1-0.4-1.4c-0.3-0.3-1.1-0.4-1.5-0.2c-2.6,1.2-2.4,3.5-2.1,5.8c-3.3,1-3.3,1-2.8,4.6c-4-0.8-4-0.8-5.7,2.4
	C147.6,255.7,147.1,258.3,145.3,258.6 M298.3,58.7c0.5,0,1,0,1.5,0.2c1.7,0.4,3.1-0.2,2.2-0.6c-0.5-0.3-1.4,0-2.2,0.1
	C299.3,58.4,298.8,58.6,298.3,58.7c0-1.3,2.8-1.5,1.3-3.5C299.1,56.5,298.7,57.6,298.3,58.7 M459.6,219.4c-0.2-0.2-0.4-0.4-0.4-0.6
	c0-0.2,0.2-0.4,0.3-0.6c0,0.4,0,0.8,0.1,1.2c-2.1-0.7-3.1,0.8-4.2,2.1c-0.3,0.3-0.7,0.6-1,0.9c0,0,0.2,0.3,0.3,0.5
	c0.1-0.5,0.3-1.1,0.4-1.6C457,221.8,458.5,221,459.6,219.4 M299.4,134.9c0.1,0.8,0,1.6,0.2,2.4c0.1,0.2,0.7,0.3,1.1,0.4
	c0.1,0,0.3-0.4,0.3-0.6c0.1-1.3-0.6-1.9-1.9-2c0.2-1,0.5-2.1,0.7-3.1c0-0.2-0.4-0.7-0.4-0.7c-0.4,0.2-1.2,0.6-1.1,0.7
	C298.6,132.9,299,133.9,299.4,134.9 M216.1,178.9c-0.3,1.2-0.9,2.5,1.2,3.8c0.1-1.5,0.2-2.7,0.3-3.9c1-0.3,2-0.6,3.8-1.1
	c-0.5,2.8-0.8,4.9-1.2,7.2c1.1,1.4,2.3,3,3.4,4.5c-1.2,3.3-1.2,3.3-1,6.4c0,0.3,0.1,0.7,0.1,1c-0.1-0.4-0.2-0.8-0.3-1.2
	c3.4-2.5,5-4.4,6.3-7.3c-0.7-0.2-1.4-0.5-2.6-0.9c2.5-2.6,4.6-5.1,7-7.3c0.6-0.5,2-0.2,3-0.2l-0.2-0.1c-1,0.9-0.5,1.8,0,2.8
	c0.3,0.6,0,1.4,0,2.3c-0.5,3.9-3.3-1.3-4.4,1.6c0.1,0.8,0.4,2.1,0.7,3.7c1.3-0.2,2.4-0.3,3.4-0.4c-0.9,2.3-1.8,4.5-2.5,6.8
	c-0.1,0.3,0.5,0.8,1.1,1.7c1.2-1.7,2.2-3.2,3.1-4.5c-0.6-1.5-1.1-2.7-1.6-3.9c0.1-1.8,0.2-3.6,0.3-5.3c2.3,1.2,2.2-1.9,3.6-2.1
	c3.8,2.1,0.5,5,0.7,8.2c1.4-0.8,2.7-1.1,3-1.8c0.8-1.7,1.4-3.6,1.4-5.5c0-1.6-1.2-3.1-1.4-4.8c-0.1-1,0.3-2.8,0.8-2.9
	c4.4-1.3,2.2-4.4,2.5-6.7c-3.2-2-6-3.7-8.6-5.2c-3.1,0.9-2.2,4.5-5,5.7c-1.9,0.8-3,3.7-4.3,5.8c-1.2,1.9-2.3,3.8-4,6.8
	c0.8-5.5-1.6-8.1-5.2-9.8c-0.6-1,0.2-3.1-1.9-2.8c-0.5,0.1-0.8,1.8-1.1,2.8c-0.2,0.5-0.2,1.1-0.2,1.6
	C214.2,176.9,214.2,176.9,216.1,178.9 M209.8,236.7c0.4,0.4,0.8,0.9,1.2,1c0.5,0.2,1.1-0.1,1.7-0.1c-0.2-0.5-0.4-1.3-0.7-1.3
	C211.3,236.3,210.5,236.6,209.8,236.7c0.1-1.9,0.2-3.9,0.3-5.8c1.1,0.7,2.2,1.5,3.2,2.2c2.1-1.9,0.3-3.5,0.5-5
	c0.2-1.6,1.3-3,1.7-4.5c0.1-0.4-0.9-1.1-1.3-1.6c-2.2,1.6-4.3,2.9-6.1,4.5c-0.7,0.6-1,2.1,1.1,2c2.7-0.1,1.4,1.6,1.1,2.8
	C210.1,233,209.9,234.9,209.8,236.7 M195.6,194.4c-2.6,1-1,2.6-0.6,4c-0.4,0.9-0.6,2.1-1.3,2.7c-1.9,1.9-1.5,3.9-0.6,6.8
	c2.3-2.7,4.2-4.8,6.1-7c-0.2,1.7,0,3.7-0.8,4.9c-2.4,3.5-5.2,6.7-7.8,10c-1,1.3-2.2,2.6-3,4.1c-0.7,1.5-1,3.3,1,4.3
	c2.2,1,1.7,2.6,0.9,4.2c-0.6,1.3-1.3,2.5,0.3,3.5c3-1.1,3-3.8,3.4-6.3c0.2-1.6,0.4-3.6,3-3.2c-0.1,1.3-0.2,2.7-0.3,4
	c0.4,0,0.8-0.1,1.1-0.1c-0.3-1.4-0.7-2.7-1-4.1c3.7,2,3.7,2,4.9-1.9c2.9-2,2.9-2,1.9-5.2c-2.1,1.4-3,3-1.7,5.4
	c-1.3-0.4-2.7-0.6-4-1.1c-2.1-0.8-2.2-2.2-1-3.8c0.7,0.4,1.3,0.8,2.3,1.3c0.9-2.3,1.8-4.5,2.7-6.6c1.6,0.3,2.9,0.6,4.1,0.8
	c0.8,1.3-0.5,3.7,2.5,3.8c1.7-2,3.6-4,5.3-6.2c1.1-1.4,1.2-3.1-0.1-4.6c1.1,0.8,2.2,1.6,4.2,0.8c-0.7-1.7-1.3-3.3-2-5
	c-2,1.2-2.9,2.4-2.1,4.3c-0.8,0.7-1.6,1.4-2.6,2.2c-1.3-2.7-1.1-4.8,0.7-6.6c1.4-1.4,2.9-2.7,4.5-3.9c2.7-1.9,3.3-4.4,2.4-7.5
	c-0.8-0.3-1.6-0.8-2.4-0.8c-1.4,0.1-2.8,0.5-4.1,0.7c0.6-1.6,2.8-2.9,0.9-5.6c-1.8,1.8-3.1,3.7-4.4,6c1.5-0.2,2.6-0.4,3.6-0.5
	c-1.9,7.2-3.9,10.1-10.9,15.5c-0.6-0.8-1.3-1.6-2-2.5c0.4-1.3,0.9-2.5,1.3-3.8c1,0.2,2.1,0.3,3.2,0.5c0.7-2.1,1.4-4.1,2.2-6.7
	c-4.2,0.8-3.7,4.3-5.2,6.4c-1.9,0.3-3.7,0.6-5.5,0.9c0.2-1.5,0.3-2.9,0.5-4.4c0.6,0,1.1,0.2,1.7,0c0.4-0.1,1-0.5,1.2-0.9
	c0.1-0.3-0.4-1.1-0.6-1.1c-0.5,0-1.1,0.3-1.4,0.7C195.8,193.2,195.8,193.8,195.6,194.4 M208,275.7c0.6,0,1.3,0,1.9-0.1
	c-0.6,0-1.2,0-1.9-0.1c-0.1,1.1-0.2,2.2-0.3,3.2c0.1,0,0.2,0,0.3,0C208,277.8,208,276.7,208,275.7 M182.8,133.7
	c0,0.4,0.1,0.8,0.1,1.2c0-0.5,0-0.9,0-1.3c0.3-0.1,0.7-0.2,1-0.4C183.6,133.4,183.2,133.5,182.8,133.7 M298.9,116.7
	c-0.5-0.3-1.1-0.6-1.6-1c0.5,0.3,0.9,0.6,1.3,0.8c0.4,0.7,0.9,1.4-0.6,1.2C298.3,117.4,298.6,117,298.9,116.7 M452.8,173.4v-2.8
	c-0.2,0-0.3,0-0.5,0.1c0.2,1,0.3,1.9,0.5,2.9c-0.2,0.1-0.4,0.3-0.6,0.4c-0.2,0.1-0.4,0-0.7-0.1C452,173.7,452.4,173.6,452.8,173.4
	 M461.7,209.4c-0.1-0.9-0.3-1.8-0.4-2.6c-0.1,0-0.2,0-0.2,0C461.2,207.7,461.4,208.6,461.7,209.4c-0.4,0.2-0.7,0.3-1,0.5
	c0-0.3,0-0.5,0-0.8C461,209.2,461.3,209.3,461.7,209.4 M303.3,239.2c0.3-0.5,0.6-1,0.4-0.6c0.1-0.4,0,0.2-0.2,0.9l-0.5,0.3
	C303,239.8,303.4,239.2,303.3,239.2 M123.4,240.1c-0.3,0.4-0.6,0.9-0.8,1.3c0,0.1,0.3,0.3,0.4,0.5c0.1-0.7,0.1-1.3,0.2-2
	c0.6-0.2,1.2-0.5,1.7-0.7c-0.2-0.1-0.5-0.3-0.5-0.3C124,239.3,123.7,239.7,123.4,240.1 M362.8,214.7c-0.3,0.4-0.7,0.7-1,1.2
	c-0.1,0.1,0.1,0.5,0.2,0.7c0.4-0.2,1.1-0.4,1.1-0.6c0-0.5-0.3-1-0.5-1.4c0.5,0,0.9,0,1.4,0c-0.1-0.3-0.2-0.7-0.4-1
	C363.3,213.8,363.1,214.2,362.8,214.7 M492.7,192.4c0.5-0.1,1.1,0.1,1.4-0.2c0.3-0.3,0.2-0.9,0.2-1.4c-0.4,0.3-0.9,0.6-1.3,1
	c-0.2,0.2-0.1,0.5-0.1,0.8c-0.3,0.3-0.7,0.6-1,0.9c0,0,0.2,0.3,0.4,0.5C492.4,193.4,492.5,192.9,492.7,192.4 M498.3,167.3
	c0.3-0.4,0.7-0.9,0.9-1.3c0-0.1-0.2-0.4-0.4-0.5c-0.1,0.7-0.2,1.4-0.3,2.1c-0.5,0.2-1.2,0.2-1.5,0.6c-0.2,0.2,0.1,0.9,0.2,1.4
	c0.2-0.2,0.4-0.4,0.5-0.6C498,168.4,498.2,167.9,498.3,167.3 M338.3,183.4c0.1,0.4,0.2,0.7,0.4,1.1c0-0.4-0.1-0.8-0.1-1.3
	c0.2-0.2,0.5-0.4,0.7-0.6c0,0.2,0.1,0.4,0.1,0.7C339,183.3,338.6,183.4,338.3,183.4 M406.8,239.2c-1.1,6.6-4.8,10.7-10.9,13.8
	c-4.3,2.2-7.6,6.5-11.8,10.3c-0.9-0.9-2-1.9-3.3-3.3c-0.3,0.6-0.6,1.4-1.2,2.7c-3.6-1.4-3-4.8-3.9-7.4c2.4-4.1,0.1-7.4-1.8-11.1
	c-0.7,0.2-1.6,0.3-2,0.7c-0.8,0.9-1.5,1.9-2.6,0.7c-0.6-0.7-1.2-2.3-0.8-2.9c0.9-1.3,2.4-2.2,3.6-3.3c0.4-1.1,1.6-2.2-0.5-4
	c0.3,1.9,0.5,3,0.7,4.2c-2.2,0.3-4.4,0.5-7.1,0.9c-1.3-3.5-2.6-6.9-4.2-11.2c-1.4,3.9-2.2,7.3,0.1,9.8c2.3,2.6-0.7,2.5-1.3,4.1
	c-1.2-1-2.2-1.8-3.3-2.6c1.6-1.3,0.8-2.4-0.5-3.3c-0.1-0.1-0.5,0-0.7,0.1c0.2,1,0.4,2,0.7,2.9c0.1,0.2,0.5,0.3,0.7,0.4
	c-1.4,0-2.1,0.9-1.8,2c0.8,3-1.2,3-3.1,3.2c0-0.4-0.1-0.8-0.1-1.2c0.1,0.4,0.3,0.8,0.4,1.2c-1.2,0.1-2.3,0.2-3.5,0.3l0.1-0.1
	c-1.4,1.7-2.6,3.4-2.6,5.8c0,2-0.6,3.8-2.4,4.8c-0.2-1.6-0.4-3.2-0.7-4.8c-0.8-4.3-1.8-8.6,2.1-12c1.1-1.6,2.1-3.3,3.4-4.7
	c1.1-1.2,1.4-2.2-0.1-3.3c-1.8,2.5-4.9,4.3-3.2,8.1c-1.9-0.6-3.7-1.6-5.6,0.8c0.3,1.1,0.7,2.4,1,3.7c0.3,1.7,0.2,3.4,0.6,5
	c0.7,2.4,1.7,4.7,2.6,7.1c-0.3,1.2-0.6,2.3-0.9,3.5c-0.8-0.4-1.7-0.7-2.5-1.1c-0.1,0,0-0.5,0-0.7c-2.7-1.5-5.4,1-8.2,0
	c0,0-0.6,0.9-0.5,1.2c0.2,0.5,0.7,0.9,1.1,1.1c3.2,1.3,5.1-1.6,7.6-2.3c-0.1,5.9-5.2,8.3-8.3,12.2c-0.3,0.4-1.6-0.1-2.3,0.1
	c-0.7,0.2-1.9,0.9-1.8,1.2c0.5,4.1-3.8,5.2-5,8.4c-1.1,2.7-3.2,5.1-5.6,7.2c-2.7,2.3-4.3,5.8-6.7,9c-1.9,0.3-4.5,0.7-7.3,1.1
	c-3.7-3.4-4.3-7.8-2.3-12.3c1.1-2.5,1.2-3.8-1-5.5c-0.8-0.6-0.5-2.6-0.9-5.7c-1.9,3-3.1,4.9-4.6,7.2c-1.7-4.5-4.6-2.8-6.8-3.2
	l0.2,0.2c-0.2-3.4-0.3-6.8-0.7-10.1c-0.4-3.3-1.3-6.5-2-9.8c-1.2,2.2-1.9,4.5-1.4,6.5c0.7,2.6-0.4,4.4-1.2,6.5l0.2-0.1
	c-2.9,0.3-0.9-2.7-2.3-3.4c-3.6,3.3-3.6,3.3-1.1,8.4c0.1,0.8,0.5,1.6,0.4,2.4c-0.3,2.6,0.8,4,3.1,4.9l-0.3-0.2
	c-1.8,2.1-3.4,4.2-5.3,6.2c-0.5,0.5-1.7,0.7-2.2,0.5c-0.5-0.2-1-1.4-0.8-2c0.3-1.5,1-2.9,0.8-4.7c-1,1.2-2.1,2.3-3.1,3.5
	c-0.7-0.6-1.2-1.1-1.8-1.6c-0.2,0.1-0.6,0.2-0.6,0.4c-0.2,1.4-0.1,2.9-0.7,4.1c-0.4,0.9-2,1.2-2.3,2c-0.2,0.7,0.9,1.7,1.4,2.6
	c-2.6,3-5.3,6.1-8.3,9.4c-2.4,1.5-6.1-0.8-8.7,1.9c-0.3,0.3-2.1-0.5-2.8-1.2c-2.6-2.5-3.6-5.8-3.1-9.3c0.5-3.3,1.2-6.4-1.3-9.3
	c-0.8-0.9-0.2-2.8-0.7-4.1c-0.5-1.2-1.7-2.2-2.6-3.3h0.1c1.2-0.7,0.8-1.5-0.2-1.5c-0.9,0-1.8,0.9-2.9,1.5c-2.2-2.8-2.8-6-2.8-9.4
	c0-0.6-1.6-1.1-2.4-1.7c0.9-2.6,1.8-5.2,2.7-7.8c1.5-0.7,3-1.5,4.5-2.2c-0.9-1.9,2.1-3.9-0.8-6.5c0.3,2.7,0.6,4.6,0.8,6.6
	c-3.5-1.6-3.5-1.6-4.2,2.4c-1.5,0.2-3,2.3-4.6,0.2c-1.1-0.1-2.3-0.4-3.4-0.3c-0.5,0.1-1,1-1.4,1.5c0.5,0.2,1.1,0.7,1.4,0.6
	c1.2-0.6,2.3-1.4,3.5-2.1c-1,1.9-1.3,3.7,0.5,5.4c0.6,0.5,0.7,1.5,1.1,2.2c-0.7,0.8-2.1,1.7-2.1,2.5c0.1,3.4-3,3.5-4.8,5
	c0.3,2.8,1.6,4.7,3.8,6.2l-0.1-0.1c-4.1,2.5-8.7,4.5-11.6,8.7c-0.6,0.8-1.9,1-2.9,1.5c2-1.8,3.6-3.7,2.5-6.7
	c-3.4,1.7-2.1,4.4-2.4,6.7c-0.5,0.9-0.9,2.1-1.6,2.8c-2.7,2.7-7,4-7.8,8.4c-6.4,2.4-7.6,9.2-11.4,13.8c-2.2-0.6-4.5-2.4-6.2,0.9
	c-0.2,0.4-1.7,0.5-2.2,0.2c-0.4-0.3-0.6-1.5-0.4-2.1c0.5-1.4,1.4-2.7,2.3-4.5c-2,0.5-3.3,1.2-4.3,0.9c-0.6-0.2-1.1-1.8-1.1-2.9
	c-0.1-1.4,0.1-2.8,0.5-4.2c0.2-0.7,1.1-1.2,1.7-1.8c-0.1,0.4-0.1,0.8-0.1,1.2c0.1-0.4,0.2-0.8,0.3-1.2c0.2-1,0.4-2.1,0.6-3.3
	c-1,0.3-1.7,0.4-2.1,0.6c-2.1,1.4-2.2,5.3-5.9,4.7c-1.8,2.2-2.3,5.4-5.2,6.7c-3.9,7-9.9,11.3-17.6,14.2c-1.5-2.8-3.1-5.4-4.2-8.3
	c-0.5-1.2-0.5-3,0-4.1c2.7-4.9-0.2-7.8-4-12.1c0.5,5.7-1.7,9-4.9,12.9c-1.2-2.3-2.1-4-2.9-5.6c-0.9-1.7-1.9-3.5-3-5.5
	c1.4-1,2.9-1.8,4-2.9c2.1-2,1.6-5.4-0.9-7.2c-0.4-0.3-1.4,0.1-2.2,0.2c-0.6-3.2,3-5.9,0.7-9.1c-2.3,0.7-0.7,4.2-3.9,4.8
	c-2.9,0.5-2.6,2.3,0.7,4.4c-0.3,2.8-1.5,4.7-4.8,4.3c-0.2-0.8-0.4-1.5-0.6-2.3c-0.4,0.2-0.9,0.3-1.3,0.5c-0.1,0.1-0.1,0.7-0.1,0.7
	c0.7,0.3,1.4,0.6,2.2,0.9c0.1,2.3,0.3,4.6-2.7,5.4c-1.3,0.4-2.5,1.1-3.9,1.7c-2.1-2.8,2.6-4.9,0.8-7.8c-1.8-0.6-2.4,1-2.8,2.2
	c-1.2,3.8-2.5,7.6-3.2,11.5c-1.1,6.3-5.8,8.6-10.9,10.5c-2.6-1.3-3.9,2-6.5,1.7c-2.5-3.6-4.6-7.3-2.3-12.3c1.7-3.7,0.2-7.2-1.9-10.4
	c0.6,0,1.2-0.1,1.7-0.1c-0.5,0.1-1.1,0.1-1.6,0.2c-1.6,0.1-3.3,0.2-5,0.3c-2.1-2.4,1.7-3.9,0.8-6.3c-1.4-2.2-4.3,2-5.6-1.1
	c-0.4,0.6-0.8,1.2-1.2,1.8c-0.8,1.1-1.4,2.4-2.4,3.3c-0.2,0.2-1.3-0.5-2.5-0.9c-0.6,0.7-1.6,1.5-2.1,2.6c-1.3,2.7-2.3,5.7-3.7,8.3
	c-1.4,2.6-5.7,2.7-6.1,6.4c-5.5,6.4-10.9,12.7-19.2,15.3c-0.8-0.5-1.5-0.6-1.7-1.1c-1-2-1.9-4.1-2.8-6.2c0.9-2.2,1.7-4.2,2.5-6.4
	c-0.9-1.5-1.8-3-2.5-4.5c-1.4-2.8-1.6-5.6,0.7-8.1c-0.2-0.5-0.4-1.1-0.4-1.6c0-0.9-0.2-1.1-0.8-0.4c-0.1,0.1,0,0.6,0.1,0.8
	c0.3,0.5,0.7,0.8,1.1,1.3c-2.4-0.6-2.7,2.2-4.6,2.9c-2.1-1.5,0.4-3.6-1-6.1c-2.4-1.6-4.5-4.5-5.3-8.3c-0.4-2.2-0.2-4,1.3-5.5
	c2.4-2.4,4.6-5.4,7.5-6.9c3.7-2,5.8-5.3,8.6-8c2.6-2.5,4.5-5.5,8.2-7.1c2.9-1.3,5-4.4,7.3-7c2.6-2.9,5.5-5.6,8.5-7.6
	c2.4-1.6,2.9-3.9,4.6-6c0.6,0.7,1.1,1.3,1.6,1.9c0.3-0.2,1-0.5,1-0.7c-0.3-3.9,0.3-7.4,4.3-10c0.3,0.1,1.5,1,2,0.7
	c1.5-0.8,0.9-4,3.9-3.1c3.4-2.5,5.9-12.2,4.6-16.3c-0.8-2.4-2.8-2.4-4.8-3.2c-2.1,2.7-4.2,5.5-6.9,9c-0.5-2.3-0.8-3.6-1.1-4.9
	c1.2-1.1,2.3-2.2,0.2-4v4.2c-1.1-1.8-2.7-2.8-4.7-3.2c3.2-3.2,5.4-7.2,9.2-10c1.9-1.4,1.6-2.7-0.3-5.9c-5.1,4.6-10,9.1-12.7,15.5
	c-0.3,0.8,0,1.9,0,3c2.1-0.6,1.5-3.9,4.2-2.8c0.5,1.2,0.9,2.4,1.4,3.7l-0.1,0c-1.4,1.6-2.9,3.2-4.3,4.9c0.5,1.1,1.8,2.5,1.4,3.3
	c-1.8,4.1-4.4,7.6-8.4,9.7c-0.1,0.1-0.7-0.7-1.1-1.1c2.1-2.4,2.8-5.4,3.1-8.4c-0.5-0.7-0.8-1.4-1.4-2c-0.5-0.5-1.2-0.9-1.8-1
	c-0.3-0.1-1.1,0.8-1,1.1c0.2,0.7,0.6,1.8,1.1,2c1,0.3,2.1,0,3.2,0c-2.4,2.4-3.1,5.4-3,8.7c-0.6,0.4-1.8,0.7-1.9,1.2
	c-0.2,3.8-2.7,6.5-5.3,8.3c-3,2.2-5.2,5.1-8.1,7.3c-6.7,5.1-13.7,9.8-20.6,14.7c-0.4,0.3-1.1,0.2-1.7,0.3c-2.3-0.7-2.6-2.9-2.8-4.7
	c-0.2-2.5,0.1-5,0.2-7.6c0-1.1,0.4-2.8-0.1-3.2c-4.7-3.7-1.6-11.1-6-14.2c-3.5-2.5-4-5.2-3.8-8.6c0.1-1.6,0.9-3.2,1.8-4.7
	c2.3-3.9,4.7-7.7,7-11.5c2.1-0.8,2.9-2.6,3.4-4.6c-1.2,0.6-2.1,1.5-2.8,2.6c-0.4,0.6-0.3,1.5-0.5,2.2c-1,0.2-2.3,0.2-3,0.8
	c-3,2.9-5.8,6-8.8,9c-1.9,2-3.4,4.5-6.9,5.1c-2.6-4.5-3.7-9-0.9-13.8c-0.2-0.8-0.3-1.7-0.5-2.5c-0.1,0.1-0.3,0.1-0.4,0.2
	c0.3,0.8,0.6,1.6,0.9,2.4c-2.8-4.7-2.8-4.7-1.7-12.4c-2.5-3-5.4-6.2-5.9-10.6c-0.4-3.5-0.1-6.5,2.8-9.3c7-6.7,13.2-14.1,20.7-20.3
	c4.3-3.6,8.3-7.7,12.2-11.9c2.6-2.8,5.9-4.3,8.7-6.6c5.2-4.4,10.3-8.9,15.4-13.3c1.3-1.1,2.4-2.5,3.8-3.4c5-2.9,9.2-6.5,12.9-10.9
	c3-3.6,7.1-6.2,10.8-9.3c7-6,14-12.1,21.1-18c1.9-1.5,4.3-2.4,6.7-3.7c-0.5,5.4-2.4,8.8-6.6,11.3c-2.6,1.6-5,3.3-7.4,5.2
	c-2.1,1.7-4.1,2.9-4.5,5.6c-0.4,2.4-1.9,2.9-3.9,3.1c-0.1,0-0.1,1.1-0.1,1.6l0.1-0.2c-0.2,0.2-0.4,0.5-0.6,0.6
	c-2.3,0.5-3.6,3.6-6.5,2.3c-1.3,1.8-2.3,3.9-3.9,5.4c-4.4,4.5-8.6,9.3-14.1,12.6c-0.4,0.2-0.5,0.9-0.8,1.3l0-0.2
	c-1.2,1.6-2.3,3.2-3.4,4.8c-0.6,0.9-1.3,2.6-1.9,2.6c-4.2-0.2-4.4,3.8-6.5,5.8c-1,0.9-2,2.4-3.1,2.5c-3.9,0.5-5.7,3.8-7.2,6.3
	c-1.5,2.5-2.1,4.4-5.4,3.4c-0.5-0.2-1.7,0.6-2,1.2c-1.2,2.4-3,4-5.3,5.6c-1.8,1.2-3,3.7-5,5.4c-2.1,1.8-3.6,4.3-5.3,6.5
	c-1.6,2-3.2,3.9-4.7,6c-0.3,0.4-0.2,1-0.3,1.7c0.8,0.1,1.7,0.1,3.2,0.2c-1.9,2.4-3.5,4.6-5.4,6.5c-3.1,3.2-5.2,6.5-4.1,11.3
	c0.4,1.7-1.4,3.8,0.8,6c1.2-0.8,2.7-1.4,3.8-2.5c3-3,5.3-6.9,8.7-9.3c3.4-2.4,6.2-5.2,8.9-8.3c2.2-2.6,5.4-4.3,8.2-6.2
	c0.5-0.3,1.6,0.4,2.5,0.6c2.5-2.3,1.9-7.6,7-7.4c1.4-5.8,7.3-7.5,10.7-11.4c2-2.3,3.7-5.1,7.4-5.1c0.6,0,1.7-1,1.8-1.6
	c0.2-3.6,5-2.7,5.6-5.8c3.5-0.3,2.9-3.7,4.6-6.2c1.1,0.5,2.3,1,3.5,1.5c2.7-0.9,0-5.1,3.7-5.9c1.8-0.4,2.9-3.2,4.7-4.5
	c1.4-1,2.9-1.7,3.4-3.6c0.8,0.3,1.7,0.6,2.5,0.9c0.8-1.1,1.3-2.6,2.4-3.3c7.3-4.9,12.3-12.2,18.6-18.1c4.1-3.9,8.1-8,11.9-12.1
	c2.5-2.7,4.8-5.6,6.9-8.6c1.6-2.2,3.4-3.8,6.2-3.5c1.6-2.1-0.4-5.6,3.2-6.5c0.6,0.5,1.2,1.1,1.8,1.7c0.3-0.3,0.7-0.7,0.9-1
	c0.4-0.7,0.9-2.1,1-2.1c1.8,0.6,3.3,1.4,5.3-0.4c1.4-1.3,3.3-1.9,3.2-4.3c3.7-0.5,5.2-4.1,8.1-5.9c1.6-1,2.5-3.1,0.6-5.4
	c-1.3,0.8-2.6,1.7-4.2,2.8c-0.3-4.3,2.2-6.7,5.1-8.3c3.3-1.9,5.2-5.1,7.7-7.7c0.5-0.5,0.4-1.6,0.3-2.4c-0.1-0.4-0.7-1.1-1.1-1.1
	c-0.6,0-1.5,0.3-1.8,0.8c-2,3.4-1.9,3.4-5.3,0.1l0.1,0.2c-0.3-0.8-0.4-1.7-0.8-2.4c-0.2-0.4-1.1-1-1.2-0.9c-0.6,0.4-1.2,1-1.5,1.6
	c-0.3,0.8-0.1,1.7-0.1,2.5c-0.2,0.1-0.5,0.3-0.8,0.4c-3.3,0.7-3.6,3.9-4.9,6.2c-1.4-0.7-2.6-1.3-4.1-2c-2,3.4-3.5,7.3-8.5,7.2
	c-1.1,0-2.1,2.1-4.3,4.3c0.6-3.1,0.3-5.2,1.2-6.2c2.1-2.3,4.5-4.4,7.1-6c5.3-3.2,9.5-7.7,14-11.8c4.4-4,9.1-7.6,14.2-11.7
	c0.6,1.4,1.3,2.3,1.3,3.2c0.3,6.2-0.5,12.5,1.6,18.5c-1.1,4.2-0.1,7.6,2.8,10.9c1.4,1.6,2.8,9.7,3,13.2c2.8-2.2,5.6-4,9.1-4
	c4.3-7.2,10.7-12.2,17.4-16.9c1.9-1.3,3.8,1.1,5.9,0.4c0.2-0.1,1.7,2.2,1.7,3.4c-0.1,3.1-0.7,6.1-1.2,9.8c0.7,1.4,1.7,3.4,2.7,5.2
	c2.5,0,4.7,0,7,0c0.1,0.5,0.1,1,0.3,1.5c0.1,0.2,0.5,0.3,0.8,0.4c-0.1-0.2,0-0.5-0.2-0.7c-0.3-0.4-0.8-0.6-1.1-1
	c1.9-2.1,3.4-5,5.7-6c2.6-1.1,3.4-3.6,6.1-5.1c0.9,1.2,1.6,2.7,2.8,3.6c2.3,1.8,0,5.9,3.7,6.8c0.5,2.7,1,5.5,1.5,8.3
	c2.4,0.8,6-0.4,6.5,4.1c1.7-1,3.1-1.8,4.7-2.7v-6.9c1.7,1.6,2.7,2.6,3.7,3.5c3.1-1.3,1-4.4,2.4-6.7c0.6,1.7,1.1,2.9,1.5,4.2
	c2.2-0.5,3.1-1.4,1.4-3.4l-0.1,0.1c2.3-0.3,4.2,0,5.5,2.3c0.8,1.5,2.2,1.6,3.3,0.3c1.6-1.9,0.3-2.8-1.5-3.4c0.3-1.4,0.7-2.7,1-4.1
	l-0.2,0.3c1.2-1.2,2.5-2.4,3.7-3.6l-0.2,0.2c2-1.3,4.4-2.3,6-4c1-1,1.1-3.1,1-4.7c0-1-1-1.9-1.7-3.1c1.6-0.9,2.9-1.7,4.2-2.4
	c0.6,0.9,1.1,1.8,1.8,3c2.8-1.7,3.9-4.2,3.4-7.1c-0.5-3,1.4-3.9,3.3-5c1,0.5,2,0.9,3.3,1.5c0.3-1.9,0.5-3.6,0.8-5.3
	c0.3,0,0.5,0,0.8,0c0.9,4,1.7,8,2.5,11.9c2.6,0.1,2.7-1.4,2.9-2.8c0.8,0.2,1.6,0.7,2.3,0.6c0.5-0.1,1.1-0.8,1.4-1.4
	c0.1-0.3-0.2-1.3-0.5-1.3c-0.7-0.1-1.6-0.2-2.1,0.2c-0.5,0.5-0.6,1.4-0.9,2.2c-0.3-0.1-0.6,0-0.8-0.2c-1.7-1.3-3.1-3.1-2.2-5
	c1.8-3.6-3.2-9.4,4.1-11.3c0.2,0.6,0.5,1.3,0.8,2c0.2,0.5,0.3,1.1,0.4,1.6c0.4,0,1.1,0.1,1.3-0.2c1.2-1.6,2-3.3,2-5.4
	c0-1.2,1.2-2.4,1.8-3.6c0.2,0.6,0.4,1.1,0.7,1.7c0.1-0.2,0.2-0.4,0.1-0.5c-0.3-0.4-0.7-0.7-1-1c4.3-4.8,8.4-9.9,14.7-13.9
	c-0.4,2.1-0.7,3.7-1.1,6c1.9-1,3.3-1.7,4.9-2.6c-0.4-1.5-0.8-3.1-1.3-5.3c2.3-2.3,4.9-4.9,7.5-7.4c2.1,1.9,0.8,6.5,5.7,5.4
	c-0.2,1.8-0.2,3.2-0.7,4.5c-0.4,1.3-1.3,2.4-2.1,3.8c2.9,1.5,4.7,3.2,3.8,6.6c-0.5,1.9-1,4-0.6,5.8c0.3,1.7,1.7,3.2,1.3,5.3
	c-0.1,0.4,2,1.3,3.4,2.2c0.3,1.1,0.5,2.8,1.2,4.3c1.7,3.5,0.9,6.6-1.1,9.6c-0.7,1.1-1.3,2.5-1.6,3.8c-0.2,0.7,0.4,1.6,0.6,2.3
	c2.5,1.3,2.4-1.9,3.9-2.1c0.4,0.3,1.1,0.5,1.2,0.9c0.3,0.8,0.6,1.7,0.6,2.5c-0.6,7.1,2.7,13.1,5.3,19.4c1.9,4.6,2.7,9.7,4.1,14.9
	c-3.2,2.7-5.3,5.9-8.9,7.9c-1.6,0.9-2.2,3.6-3.7,4.2c-1.9,0.9-3.6,1.2-3.3,3.8c0,0.4-0.3,1.3-0.7,1.3c-5.5,1.5-7.2,6.8-10.4,10.5
	c-0.9,1.1-2.3,1.6-3.1,2.4c-2.1,2.1-5.9,2.7-6.3,6.4c-0.1,0.7-1.1,1.7-1.7,1.7c-3.1,0.3-3.7,2.9-3.7,4.9c0,3.9,0.8,7.8,1.3,11.7
	c0,0.2,0.3,0.5,0.5,0.6c0.7,0.3,1.6,0.9,2.3,0.7c0.6-0.1,1.3-1.1,1.4-1.7c0.1-0.4-0.8-1.1-1.3-1.6c-0.5-0.5-1.1-0.9-1.5-1.4
	c-0.1-0.2,0.6-1.2,0.9-1.2c4-0.1,6.1-3.2,8.9-5.5c3.4,1.5,1.5,5.9,4.5,8c0.5-1.5,1.1-2.9,1.7-4.7c4.4,3.8-0.8,8.9,2,12.7
	c0.2-0.5,0.4-1,0.7-1.5c0.2-0.1,0.6-0.3,0.6-0.3c1.5,2.9,3,5.9,4.3,8.9c0.3,0.7,0.5,1.9,0.1,2.4c-2.6,4-1,8.9-3.1,12.9
	c-0.1,0.2,0.2,0.5,0.4,1.3c3.7-2.2,3-6.3,4.5-9.5c4.2,4,5.7,8.9,4.9,14.3c3.7,1.3,3.1-3,5.3-3.4c0.2,1.5,0.4,2.9,0.6,4.6
	c1-0.6,1.6-0.7,1.9-1.1c1.1-1.6,0.4-2.4-2.7-3.3c0.6-2.9,3.2-4,5.3-5.5c0.2,1,0.5,1.9,0.8,3.2c1.2-0.9,2.1-1.5,3.3-2.4
	c-1.8-0.3-3.1-0.4-4.4-0.6c0.1-2.3-1.8-2.4-3.8-2.8c2.2-4.9,5.2-8.1,10.3-8.6c-1,1.7-2.1,3.4,0.5,4.7c0.1,0.7,0.3,1.4,0.4,2.1
	c0.3-0.2,0.6-0.4,0.8-0.7c-0.5-0.4-1-0.9-1.5-1.3c-0.1-1.6-0.3-3.2-0.4-4.8c0.8-4.1,4.6-5.3,7.1-7.8c3.7,1.9,0.8,6.7,4.1,8.8
	c2.6-0.2,1.3-2.4,1.7-3.8c0.1-0.2,0.4-0.6,0.4-0.6c1.4,0.7,2.8,1.4,4.5,2.2c1,1.4-1.8,4.5,1.9,5.3c0.6,0.1,1,1.2,1.4,1.9
	c1,2.3,1.6,5,3,7c1.4,1.9,3.6,3.3,5.4,4.9c-1.8,1-2.1,2.4-0.4,4.8c0.1-2.1,0.1-3.5,0.2-4.9c1.5,0.7,3.1,1.3,4.1,1.8
	c0.1-0.3,0.6-2.1,1.2-3.9c0-0.1,0.5-0.1,0.7,0c0.2,0.2,0.2,0.5,0.4,0.7c0.6,0.3,1.6,0.6,1.7,1c0.2,0.9-0.2,1.9-0.5,3.9
	c3.9-2.6,3.2-5.3,2.6-8.8c-1.6,1.7-2.7,2.9-3.8,4.1c0.5-2.7,1-5.5,1.5-8.1c-1.3-1-2-0.2-2.7,0.7c-1.3,1.7-2.6,3.4-3.9,5.1
	c-2-1.9-2.4-3.4-0.4-5.2c2-1.9,4-4,5.7-6.2c1.6-2.1,5-1.7,5.6-4.7l-0.2,0.2c1.9-1.4,4-2.6,4.1-5.4c0-0.4,1.2-0.8,1.8-1.2l-0.1-0.2
	c0.6,0.5,1.2,1.5,1.7,1.5c2.9-0.5,4.1-2.7,4.4-5.4c0-0.3-1.2-0.7-2.2-1.2c1.5-7.6,6.7-13,12.3-18.2c0.5,0.6,1,1.1,1.5,1.7
	c2.4-2.4,2.4-2.4,0-5.3c-0.8-1-0.9-2.8,0.2-2.9c3-0.4,1.7-3.2,3.5-4.8c1.7,1.6,0.8,4.4,2.3,5.8c1.8,1.7,3.8,2.8,3.9,5.8
	c0,2.1,2.1,3.6,2.3,6.1c0.1,1.9,2.6,4.4,4.5,5.1c2.8,1.1,4,3,4.6,5.4c0.5,2.2,2.1,3.2,3.7,4.3l-0.2-0.2c1,2.6,3,5.2-0.5,7.5
	c-0.1-0.7-0.1-1.4-0.2-2.1c-0.1,0.2-0.4,0.4-0.4,0.5c0.2,0.5,0.5,0.9,0.7,1.4c0.3,2.4,0.6,4.8,1,7.7c0.8-2.3,1.3-4,2.3-7
	c1.5,2.8,2.3,4.6,3.3,6.3c0.6,1,0.7,1,3.8,0c0.5,1.5,1.1,2.9,1.6,4.4c0.4,1.3,0.7,2.7,1,4c-1.1-0.3-2.2-0.6-3.4-0.9
	c0.6,3.5,2.1,0.8,3.2,0.7c1.3,2.1,2.5,4.2,4,6.7c2.1-2.3,3.9-4.2,6-6.4c-1.9-0.2-3-0.2-4.7-0.4c2.2-4,4.2-7.6,6.2-11.2h2.6
	c3.9-5.1,5-10.9,4.5-17.4c1.3,2.4,2.8,4.6,3.9,7.1c0.4,0.9-0.1,2.1-0.2,3.2c-0.4,2.7-0.1,5,3.1,5.7c0,0.8-0.1,1.6-0.1,2.4
	c0,0.2,0.3,0.5,0.4,0.7c0.3-0.4,0.9-0.9,0.8-1.2c-0.3-0.7-0.8-1.2-1.3-1.8c1.2-0.7,2.3-1.4,3.6-2.1c8.1,8.4,15.3,16.7,12.4,29.4
	c-0.2-1.5-0.3-3-0.5-4.5c-0.3-2.8-2.2-2.9-4.4-2.4c0.1-1.8,0.3-3.6,0.4-5.4c-0.7,0.7-0.9,1.4-0.8,2.1c0.1,1.1,0.3,2.2,0.4,3.3
	c1.4,0.1,2,0.9,2.1,2.2c0.1,1.5-2.9,0.3-2.3,2.5c0.3,1,0.7,2.4,0.2,3.2c-1.9,3.2-2,6.3-0.4,9.7c0.4,1-0.5,2.5-0.9,4.2
	c-2.3-2.7-1.4-5.2-1.1-7.7c0.2-1.8-0.3-3.4-2.6-3.5c0.3,1.9,0.6,3.7,0.9,5.2c-1.2,1.2-4-1.4-3.3,2.1c0.2,0.8,0.6,1.7,0.4,2.4
	c-0.7,2-1.9,1.3-3.3-0.1c-0.5,1.8-1,3.2-1.5,5.1c-0.9-1.3-1.5-2.1-2.5-3.5c-2,2.4-0.7,5-0.2,7c0.6,2.4,1.8,4.3,0.4,7.1
	c-0.8,1.7,0.2,4.3,0.5,7.1c-1.4,1.5-3.1,3.4-4.9,5c-1.6,1.5-3.8,2.5-5.2,4.3c-2.1,2.6-4.9-1.8-6.9,1.2c-2.8-3.9-4.2-7.8-1.7-12.4
	c0.5-1,0.6-2.2,0.9-3.3l-0.2,0.1c2.1-2.1,2-4.2-0.6-6.6c-0.5,1.2-0.9,2.1-1.2,3l0.2-0.3c-1.7,0.6-3.3,1.2-5,1.7
	c-0.2,0.1-0.4,0.2-0.7,0.4c0-0.1,0-0.3-0.1-0.4c0-1.4,0-2.9,0-4.3c-0.4,0-0.7,0.1-1.1,0.2c0.4,1.4,0.7,2.8,1.1,4.2
	c-1.1-0.7-2.3-1.4-3.5-2.2c-1.2,6.8-1.2,6.8-5.1,10.8c-1.5-0.6-1.2-1.9-0.5-2.7c3.5-3.9,2.1-9.1,3.6-13.6c0.5-1.4-1.1-3.6-2-5.3
	c-0.2-0.4-1.6-0.3-2.8-0.5c-0.8,3.6-1.5,7-2.3,10.6c1.5,0.7,2.5,1.5,1.4,3.1c-1.7,2.5-3.6,5-5.3,7.5c0,0,0,0,0,0
	c-1.2,1.5-2.4,3-3.6,4.5l0.2-0.3c-0.6,1.2-2,2.6-1.7,3.7c1,4-1.7,6.3-3.6,8.9c-1.8,2.5-3.8,4.9-5.7,7.3c-1.3,0-2.8,0-4.4,0
	c-2.6,0-4.7-1.4-4.9-3.6c-0.2-2.8-0.1-5.7,0.3-8.5c0.6-3.6,1.6-7.1,2.5-10.6c-1.1-0.9-2.2-1.6-3-2.5c-0.8-1-1.4-2.2-2.1-3.4
	c-2.7,3.2-2.7,3.2-0.4,5.7c-1.2,1.3-2.4,2.6-3.8,4c-0.5-0.6-1.1-1.3-1.6-1.9c0-0.6,0.1-1.1,0.2-1.6c0-0.1-0.2-0.2-0.4-0.3
	c0.1,0.7,0.3,1.4,0.4,2.1c-1.5-0.5-3-0.9-4.9-1.5c0-2.9,0.2-5.9-0.1-8.9c-0.3-3-1.2-5.9-1.9-9.5c-0.4,1.4-1,2.4-1,3.4
	c0,1.5,0,2.8-1.6,3.5l0.2,0.3c-0.4-0.6-0.7-1.2-1.1-1.8c-0.3,0.6-0.6,1.2-0.9,1.8l0.3-0.2c-1.6,0.2-3.1,0.4-4.7,0.6
	c-1.2-2.2-2.2-4.1-3.3-6c-0.9-1.7-0.1-3.2,0.8-4.6c1.7-1,3.3-2.3,5.1-2.9c1.9-0.6,4-0.6,6.2-0.8c-1.3-2.7,0.6-5.7-1.2-8.3
	c-1.8,1.5-2.5,4-5.3,3c-0.3-0.1-0.9,0.5-1.4,0.8c0.5-7.8,0.5-7.8-3.2-10.5c0.6,1.9,1.3,3.5,1.6,5.1c0.4,1.8-0.6,4.1,1.8,5.3
	c-2.2,1.1-3.7,2.5-3.2,5.3c0.2,1.1-0.1,2.3-0.1,3.4c-1.1-1-2.2-1.9-3.2-2.9c-3.5,2-3.3,4.7-1.9,7.7c-2.5,2.9-2.5,3,0.1,6.9
	c-0.7,0.8-1.7,1.9-0.4,2.6c1.3,0.6,1.7-0.8,1.9-1.9c0-0.3-0.1-0.5-0.2-0.8c0.9-0.3,1.8-0.7,3-1.1c-0.3,2.5-0.6,4.5-0.9,6.5
	c-3.5,0.3-3.5,0.3-2.1,3.5c0.8-1.4,1.4-2.6,2-3.7c1.1,0,2.3,0,3.4,0.1l-0.2-0.2c0,0.5,0.2,1.3,0,1.6c-3.6,4.7-4.2,9.8-2.1,15.3
	c0.2,0.5,0.1,1.2-0.1,1.6c-0.2,0.3-0.8,0.4-1.2,0.6c-0.2-0.4-0.4-0.9-0.6-1.3c-1.2-0.9-2.3-1.9-3.4-2.8c-2,2.8-2,6.6-5.4,8
	c0.3,0.3,0.6,0.6,0.9,0.9c-0.2,0.1-0.4,0.2-0.7,0.3c0-0.4,0-0.9,0-1.3c2.8-0.2,5.3-1.1,6.9-3.8C405.3,240.1,406.2,239.7,406.8,239.2
	"/>
<path fill="#F3A1B4" d="M547.6,148.6c-0.2,0.1-0.4,0.1-0.5,0.2c0,0.2,0.1,0.4,0.1,0.6c0.2-0.1,0.5-0.1,0.5-0.2
	C547.8,149.1,547.7,148.8,547.6,148.6 M558.5,168.3c-0.2-0.4-0.4-0.9-0.5-1.3c-0.2,0.2-0.5,0.3-0.5,0.5c0,0.4,0.1,0.9,0.1,1.3
	C557.8,168.6,558.2,168.4,558.5,168.3 M558.9,160.4c0.2,0.5,0.4,1,0.6,1.5c0.2-0.2,0.6-0.4,0.5-0.6c-0.1-0.5-0.4-0.9-0.5-1.4
	C559.3,160.1,559.1,160.3,558.9,160.4 M561,166.6l0.5,0l-0.3-0.6L561,166.6z M562.6,172.9l0.3,0.7l0.3-0.7L562.6,172.9z
	 M551.4,142.5c-0.3,0-0.7,0-1,0c0.1,1.5,0.2,3,0.2,4.5c0.3,0,0.5,0,0.8,0V142.5z M571.5,170c-5,1.6-6,8.3-11.8,7.8
	c-3.6-1-5.9-4-8.4-6.5c-0.9-0.9-1.3-2.4-1.7-3.7c-2.4-7.2-3.7-14.7-6.6-21.8c-1.2-3.1-1.2-6.6-1.8-10c3.3-0.7,2.9,2.7,4.6,3.2h9
	c-1.6,3.3-0.9,6,1.2,8.6c1.4,1.8,2.2,3.9,3.5,5.8c1,1.5,3.4,2.9,3.3,4.2c-0.2,2.8,2.9,3.5,2.8,5.9c0,1.3,1,1.9,2.3,2
	C570.5,165.6,570.6,167.8,571.5,170"/>
<path fill="#F3A1B4" d="M506.5,216.5c-3.6-1.5-3.8-1.8-2.9-3.8c1-2.2,2.8-4.2,2.3-7c-0.1-0.5,1.6-1.2,2.4-1.8
	c-0.1,0.7-0.3,1.4-0.4,2.2C507.5,209.3,507.1,212.6,506.5,216.5"/>
<path fill="#F3A1B4" d="M515,209.5c-1.7,1.2-3.3,2.4-5.5,4.1c-0.1-1.8-0.2-2.9-0.3-4.4c2.2,0.2,4.1,0.3,6,0.5L515,209.5z"/>
<path fill="#F3A1B4" d="M545.3,181.3c-2.1,1.6-2.9,2.3-3.8,2.9c-0.2,0.1-0.8-0.3-1.3-0.5c0.2-0.5,0.3-1.3,0.7-1.4
	C541.8,181.9,542.9,181.8,545.3,181.3"/>
<path fill="#F3A1B4" d="M523.4,198.5c0-0.8,0-1.6,0-2.4c0-0.3,0.3-0.6,0.5-0.9c0.1,0.3,0.1,0.5,0.2,0.8c0.1,0.8,0.1,1.6,0.2,2.4
	C523.9,198.4,523.6,198.5,523.4,198.5"/>
<path fill="#F3A1B4" d="M544.1,175.2c0.9-1-1.6-3.5,1.6-3.6c-0.6,1.2-1.2,2.3-1.8,3.5L544.1,175.2z"/>
<path fill="#F3A1B4" d="M543.9,175c-0.3,0.4-0.6,0.8-1,1.1c-0.3,0.3-0.7,0.6-1.1,0.8c-0.1,0-0.5-0.3-0.5-0.5
	c0.1-0.4,0.2-1.2,0.4-1.2c0.7-0.2,1.5-0.1,2.3-0.1C544.1,175.2,543.9,175,543.9,175"/>
<path fill="#F3A1B4" d="M515.1,209.6c-0.3-1.1-0.6-2.3-1-4.1c2.2,1.7,0.7,2.8,0.8,3.9C515,209.5,515.1,209.6,515.1,209.6"/>
<path fill="#F3A1B4" d="M516.8,159.8c0.5-0.8,1.1-1.6,1.6-2.5c1.3,2.1-0.9,1.7-1.7,2.3L516.8,159.8z"/>
<path fill="#F3A1B4" d="M530.3,191.5c-0.2-0.5-0.4-1-0.4-1.5c0-0.1,0.7-0.2,1-0.4c0,0.5,0.1,1.1,0.1,1.6
	C531,191.3,530.6,191.4,530.3,191.5"/>
<path fill="#F3A1B4" d="M550.4,176.4c0.1-0.2,0.2-0.5,0.3-0.7c0.2,0.3,0.5,0.7,0.6,1c0,0-0.4,0.2-0.6,0.4
	C550.6,176.8,550.5,176.6,550.4,176.4"/>
<path fill="#F3A1B4" d="M536.7,145.1c0.4,0,0.8,0.1,1.2,0.1c0.4,0,0.7-0.2,1.1-0.2c-0.1,0.1-0.2,0.4-0.2,0.4
	c-0.2-0.1-0.5-0.3-0.7-0.3C537.6,145,537.2,145.1,536.7,145.1L536.7,145.1z"/>
<path fill="#F3A1B4" d="M536.8,145.1c0-0.8-0.2-1.6-0.1-2.4c0-0.4,0.4-0.7,0.7-1c0.2,0.4,0.6,0.9,0.5,1.2
	C537.7,143.7,537.1,144.4,536.8,145.1C536.7,145.1,536.8,145.1,536.8,145.1"/>
<path fill="#F3A1B4" d="M533.6,188c0.2,0,0.4,0,0.5,0.1c0.1,0.2,0.1,0.4,0.2,0.7c-0.3,0-0.6-0.1-0.8-0.1
	C533.5,188.4,533.6,188.2,533.6,188"/>
<path fill="#F3A1B4" d="M527.3,192.3c0.1,0.2,0.1,0.4,0.2,0.6c-0.3,0-0.6,0.1-0.9,0.1c0-0.2,0-0.5,0.1-0.7
	C526.8,192.3,527.1,192.3,527.3,192.3"/>
<polygon fill="#F3A1B4" points="519.9,192.1 520.4,192.1 520.2,191.6 "/>
<path fill="#F3A1B4" d="M518.3,203c0.2,0,0.5,0,0.6,0.1c0.1,0.2,0.2,0.5,0.1,0.8c-0.4,0.8-0.7,0.8-0.9-0.1
	C518,203.5,518.2,203.2,518.3,203"/>
<path fill="#F3A1B4" d="M516.8,159.7c0.2,0.9,0.4,1.8,0.6,2.8c-0.2,0-0.5,0-0.7,0.1c0.1-0.9,0.2-1.7,0.2-2.6
	C516.8,159.8,516.8,159.7,516.8,159.7"/>
</svg>
