<?xml version="1.0" encoding="utf-8"?>
<!-- Generator: Adobe Illustrator 27.3.0, SVG Export Plug-In . SVG Version: 6.00 Build 0)  -->
<svg version="1.1" id="Ebene_1" xmlns="http://www.w3.org/2000/svg" xmlns:xlink="http://www.w3.org/1999/xlink" x="0px" y="0px"
	 viewBox="0 0 992.13 425.2" style="enable-background:new 0 0 992.13 425.2;" xml:space="preserve">
<g>
	<path d="M322.11,78.08c-4.15,6.5-5.42,13.37-5.42,26.01v71.53c0,12.64,1.27,19.69,5.42,26.19v0.9h-36.31v-0.9
		c4.34-6.5,5.42-13.55,5.42-26.19v-27.64h-58.35v27.64c0,12.64,1.08,19.69,5.42,26.19v0.9h-36.31v-0.9
		c4.15-6.5,5.42-13.55,5.42-26.19V104.1c0-12.64-1.26-19.51-5.42-26.01v-0.9h36.31v0.9c-4.34,6.5-5.42,13.37-5.42,26.01v27.46h58.35
		V104.1c0-12.64-1.08-19.51-5.42-26.01v-0.9h36.31V78.08z"/>
	<path d="M508.35,201.82c5.06-6.32,6.32-13.37,6.32-26.55V93.44h-11.38c-15.71,0-24.02,3.25-28.18,9.57h-1.08V77.18h106.76v25.83
		h-1.08c-4.34-6.32-12.46-9.57-28.18-9.57h-11.38v81.83c0,13.19,1.26,20.23,6.32,26.55v0.9h-38.11V201.82z"/>
	<path d="M688.8,175.09v27.64h-94.29v-0.9c4.34-6.5,5.42-13.73,5.42-27.09v-70.81c0-12.28-1.26-19.51-5.42-25.83v-0.9h91.58v25.11
		h-1.08c-5.24-6.14-11.92-8.67-27.82-8.67H625.4v37.75h24.39c14.45,0,19.87-2.35,24.57-6.68h1.08v29.62h-1.08
		c-4.34-4.34-10.48-6.5-24.57-6.5H625.4v38.48h34.68c14.09,0,22.04-2.17,27.64-11.2H688.8z"/>
	<path d="M706.68,201.82c3.79-5.24,5.42-13.55,5.42-26.37V105c0-11.38-0.36-19.15-5.42-26.92v-0.9h36.31v0.9
		c-5.06,7.77-5.42,15.54-5.42,26.92v81.28h27.64c14.45,0,22.94-2.53,28-12.82h1.27v29.26h-87.79V201.82z"/>
	<path d="M81.06,289.8c0-41.36,32.88-65.75,68.64-65.75c13.19,0,26.55,3.25,37.39,9.21v25.47h-1.08
		c-8.67-11.74-20.59-17.88-33.78-17.88c-26.01,0-43.53,18.97-43.53,46.24c0,29.8,19.69,47.33,46.42,47.33
		c13.19,0,24.57-4.15,35.22-11.38l3.43,13.55c-12.82,12.46-27.46,18.06-44.26,18.06C111.59,354.65,81.06,330.44,81.06,289.8"/>
	<path d="M302.52,324.48v27.64h-94.29v-0.9c4.34-6.5,5.42-13.73,5.42-27.1v-70.81c0-12.28-1.26-19.51-5.42-25.83v-0.9h91.58v25.11
		h-1.08c-5.24-6.14-11.92-8.67-27.82-8.67h-31.79v37.75h24.39c14.45,0,19.87-2.35,24.57-6.68h1.08v29.62h-1.08
		c-4.33-4.33-10.48-6.5-24.57-6.5h-24.39v38.48h34.68c14.09,0,22.04-2.17,27.64-11.2H302.52z"/>
	<path d="M320.58,351.22c4.33-5.96,5.42-14.81,5.42-27.1v-89.96l-4.7-7.04v-0.54h37.39l51.84,90.32h1.08v-62.68
		c0-12.28-1.08-20.77-5.42-26.73v-0.9h29.8v0.9c-4.52,5.96-5.42,14.45-5.42,26.73v97.9h-27.28l-57.26-98.45h-1.08v70.45
		c0,12.28,0.9,21.13,5.42,27.1v0.9h-29.8V351.22z"/>
	<path d="M483.69,351.22c5.06-6.32,6.32-13.37,6.32-26.55v-81.83h-11.38c-15.71,0-24.02,3.25-28.18,9.57h-1.08v-25.83h106.76v25.83
		h-1.08c-4.34-6.32-12.46-9.57-28.18-9.57h-11.38v81.83c0,13.19,1.26,20.23,6.32,26.55v0.9h-38.11V351.22z"/>
	<path d="M600.38,279.87h13.01c14.99,0,24.02-7.23,24.02-19.33c0-12.28-9.57-18.06-23.66-18.06h-13.37V279.87z M683.65,351.76v0.36
		h-31.43l-42.45-56.36h-9.39v28.72c0,13.19,1.08,20.23,5.42,26.73v0.9h-36.13v-0.9c4.33-6.5,5.42-13.55,5.42-26.73v-71.17
		c0-11.74-0.72-19.33-5.42-25.83v-0.9H617c28.18,0,46.78,13.01,46.78,33.78c0,15.17-10.3,26.73-27.28,31.79L683.65,351.76z"/>
	<path d="M727,302.08h35.77l-17.52-45.34h-1.08L727,302.08z M797.99,324.12c5.06,12.46,8.13,20.41,14.27,27.1v0.9h-38.48v-0.9
		c3.79-6.68,1.99-15.35-2.35-26.73l-2.35-5.96h-48.23l-2.17,5.6c-4.52,11.92-5.78,20.59-1.26,27.1v0.9h-32.33v-0.9
		c6.86-6.5,9.57-15.17,13.91-26.37l38.47-98.27h21.32L797.99,324.12z"/>
	<path d="M823.27,351.22c3.79-5.24,5.42-13.55,5.42-26.37V254.4c0-11.38-0.36-19.15-5.42-26.91v-0.9h36.31v0.9
		c-5.06,7.77-5.42,15.54-5.42,26.91v81.29h27.64c14.45,0,22.94-2.53,28-12.83h1.27v29.26h-87.79V351.22z"/>
	<path d="M399.1,70.55c-5.21,0-9.44,4.24-9.44,9.44c0,5.21,4.24,9.44,9.44,9.44s9.44-4.24,9.44-9.44
		C408.55,74.78,404.31,70.55,399.1,70.55"/>
	<path d="M399.1,190.47c-5.21,0-9.44,4.24-9.44,9.44c0,5.21,4.24,9.44,9.44,9.44s9.44-4.24,9.44-9.44
		C408.55,194.71,404.31,190.47,399.1,190.47"/>
	<path d="M366.68,97.15c0.8,0.22,1.63,0.33,2.46,0.33c1.64,0,3.27-0.44,4.71-1.27c4.51-2.6,6.06-8.39,3.46-12.9
		c-2.6-4.51-8.39-6.06-12.9-3.46c-2.18,1.26-3.74,3.3-4.4,5.73c-0.65,2.44-0.32,4.98,0.94,7.17
		C362.21,94.93,364.24,96.49,366.68,97.15"/>
	<path d="M431.53,182.76c-2.44-0.65-4.98-0.32-7.17,0.94c-2.18,1.26-3.75,3.3-4.4,5.74c-0.65,2.44-0.32,4.98,0.94,7.17
		c1.26,2.18,3.3,3.75,5.73,4.4c0.8,0.22,1.63,0.33,2.46,0.33c1.64,0,3.27-0.44,4.71-1.27c4.51-2.6,6.06-8.39,3.46-12.9
		C436,184.97,433.97,183.41,431.53,182.76"/>
	<path d="M351.9,101.79c-2.18-1.26-4.73-1.59-7.17-0.94c-2.44,0.65-4.48,2.21-5.74,4.4c-2.6,4.51-1.05,10.3,3.46,12.9
		c1.44,0.83,3.07,1.27,4.71,1.27c0.83,0,1.65-0.11,2.46-0.32c2.44-0.65,4.47-2.21,5.74-4.4C357.96,110.19,356.41,104.4,351.9,101.79
		"/>
	<path d="M455.75,161.75c-2.18-1.26-4.73-1.59-7.17-0.94c-2.44,0.65-4.48,2.21-5.74,4.4c-2.6,4.51-1.05,10.3,3.46,12.9
		c1.44,0.83,3.07,1.27,4.71,1.27c0.83,0,1.65-0.11,2.46-0.32c2.44-0.65,4.47-2.21,5.74-4.4
		C461.81,170.14,460.26,164.36,455.75,161.75"/>
	<path d="M348.59,139.95c0-5.21-4.24-9.44-9.44-9.44c-5.21,0-9.44,4.24-9.44,9.44c0,5.21,4.24,9.44,9.44,9.44
		C344.35,149.4,348.59,145.16,348.59,139.95"/>
	<path d="M459.06,130.51c-5.21,0-9.44,4.24-9.44,9.44c0,5.21,4.24,9.44,9.44,9.44s9.44-4.24,9.44-9.44
		C468.51,134.74,464.27,130.51,459.06,130.51"/>
	<path d="M342.46,161.75L342.46,161.75c-4.51,2.6-6.06,8.39-3.46,12.9c1.26,2.18,3.3,3.75,5.74,4.4c0.8,0.22,1.63,0.33,2.46,0.33
		c1.64,0,3.27-0.44,4.71-1.27c4.51-2.6,6.06-8.39,3.46-12.9C352.75,160.7,346.97,159.15,342.46,161.75"/>
	<path d="M448.59,119.09L448.59,119.09c0.8,0.22,1.63,0.32,2.46,0.32c1.64,0,3.27-0.44,4.71-1.27c4.51-2.6,6.06-8.39,3.46-12.9
		c-1.26-2.18-3.3-3.75-5.73-4.4s-4.98-0.32-7.17,0.94c-4.51,2.6-6.06,8.39-3.46,12.9C444.11,116.88,446.15,118.44,448.59,119.09"/>
	<path d="M373.85,183.7c-2.19-1.26-4.73-1.6-7.17-0.94c-2.44,0.65-4.47,2.21-5.74,4.4c-2.6,4.51-1.05,10.3,3.46,12.9
		c1.44,0.83,3.07,1.27,4.71,1.27c0.83,0,1.65-0.11,2.46-0.32c2.44-0.65,4.47-2.22,5.74-4.4s1.6-4.73,0.94-7.17
		C377.59,187,376.03,184.96,373.85,183.7"/>
	<path d="M424.36,96.2c1.44,0.83,3.07,1.27,4.71,1.27h0c0.83,0,1.65-0.11,2.46-0.33c2.44-0.65,4.47-2.22,5.74-4.4
		c2.6-4.51,1.05-10.3-3.46-12.9c-2.19-1.26-4.73-1.6-7.17-0.94c-2.44,0.65-4.47,2.22-5.74,4.4C418.3,87.81,419.85,93.6,424.36,96.2"
		/>
</g>
</svg>
